<svg version="1.1" viewBox="0.0 0.0 446.0 275.0" fill="none" stroke="none" stroke-linecap="square" stroke-miterlimit="10" width="446" height="275" xmlns:xlink="http://www.w3.org/1999/xlink" xmlns="http://www.w3.org/2000/svg"><path fill="#ffffff" d="M0 0L446.0 0L446.0 275.0L0 275.0L0 0Z" fill-rule="nonzero"/><path stroke="#333333" stroke-width="1.0" stroke-linecap="butt" d="M72.5 209.5L432.5 209.5" fill-rule="nonzero"/><path stroke="#cccccc" stroke-width="1.0" stroke-linecap="butt" d="M72.5 154.5L432.5 154.5" fill-rule="nonzero"/><path stroke="#cccccc" stroke-width="1.0" stroke-linecap="butt" d="M72.5 99.5L432.5 99.5" fill-rule="nonzero"/><path stroke="#cccccc" stroke-width="1.0" stroke-linecap="butt" d="M72.5 43.5L432.5 43.5" fill-rule="nonzero"/><clipPath id="id_0"><path d="M72.75 43.916668L432.25 43.916668L432.25 209.25L72.75 209.25L72.75 43.916668Z" clip-rule="nonzero"/></clipPath><path stroke="#000000" stroke-width="0.0" stroke-linecap="butt" stroke-opacity="0.0" clip-path="url(#id_0)" d="M91.0 209.0L83.0 209.0L83.0 184.0C83.0 182.89543 83.89543 182.0 85.0 182.0L89.0 182.0C90.10457 182.0 91.0 182.89543 91.0 184.0Z" fill-rule="nonzero"/><path fill="#4285f4" clip-path="url(#id_0)" d="M91.0 209.0L83.0 209.0L83.0 184.0C83.0 182.89543 83.89543 182.0 85.0 182.0L89.0 182.0C90.10457 182.0 91.0 182.89543 91.0 184.0Z" fill-rule="nonzero"/><path stroke="#000000" stroke-width="0.0" stroke-linecap="butt" stroke-opacity="0.0" clip-path="url(#id_0)" d="M121.0 209.0L113.0 209.0L113.0 180.0C113.0 178.89543 113.89543 178.0 115.0 178.0L119.0 178.0C120.10457 178.0 121.0 178.89543 121.0 180.0Z" fill-rule="nonzero"/><path fill="#4285f4" clip-path="url(#id_0)" d="M121.0 209.0L113.0 209.0L113.0 180.0C113.0 178.89543 113.89543 178.0 115.0 178.0L119.0 178.0C120.10457 178.0 121.0 178.89543 121.0 180.0Z" fill-rule="nonzero"/><path stroke="#000000" stroke-width="0.0" stroke-linecap="butt" stroke-opacity="0.0" clip-path="url(#id_0)" d="M150.0 209.0L142.0 209.0L142.0 182.0C142.0 180.89543 142.89543 180.0 144.0 180.0L148.0 180.0C149.10457 180.0 150.0 180.89543 150.0 182.0Z" fill-rule="nonzero"/><path fill="#4285f4" clip-path="url(#id_0)" d="M150.0 209.0L142.0 209.0L142.0 182.0C142.0 180.89543 142.89543 180.0 144.0 180.0L148.0 180.0C149.10457 180.0 150.0 180.89543 150.0 182.0Z" fill-rule="nonzero"/><path stroke="#000000" stroke-width="0.0" stroke-linecap="butt" stroke-opacity="0.0" clip-path="url(#id_0)" d="M179.0 209.0L171.0 209.0L171.0 169.0C171.0 167.89543 171.89543 167.0 173.0 167.0L177.0 167.0C178.10457 167.0 179.0 167.89543 179.0 169.0Z" fill-rule="nonzero"/><path fill="#4285f4" clip-path="url(#id_0)" d="M179.0 209.0L171.0 209.0L171.0 169.0C171.0 167.89543 171.89543 167.0 173.0 167.0L177.0 167.0C178.10457 167.0 179.0 167.89543 179.0 169.0Z" fill-rule="nonzero"/><path stroke="#000000" stroke-width="0.0" stroke-linecap="butt" stroke-opacity="0.0" clip-path="url(#id_0)" d="M208.0 209.0L200.0 209.0L200.0 153.0C200.0 151.89543 200.89543 151.0 202.0 151.0L206.0 151.0C207.10457 151.0 208.0 151.89543 208.0 153.0Z" fill-rule="nonzero"/><path fill="#4285f4" clip-path="url(#id_0)" d="M208.0 209.0L200.0 209.0L200.0 153.0C200.0 151.89543 200.89543 151.0 202.0 151.0L206.0 151.0C207.10457 151.0 208.0 151.89543 208.0 153.0Z" fill-rule="nonzero"/><path stroke="#000000" stroke-width="0.0" stroke-linecap="butt" stroke-opacity="0.0" clip-path="url(#id_0)" d="M237.0 209.0L229.0 209.0L229.0 164.0C229.0 162.89543 229.89543 162.0 231.0 162.0L235.0 162.0C236.10457 162.0 237.0 162.89543 237.0 164.0Z" fill-rule="nonzero"/><path fill="#4285f4" clip-path="url(#id_0)" d="M237.0 209.0L229.0 209.0L229.0 164.0C229.0 162.89543 229.89543 162.0 231.0 162.0L235.0 162.0C236.10457 162.0 237.0 162.89543 237.0 164.0Z" fill-rule="nonzero"/><path stroke="#000000" stroke-width="0.0" stroke-linecap="butt" stroke-opacity="0.0" clip-path="url(#id_0)" d="M266.0 209.0L258.0 209.0L258.0 170.0C258.0 168.89543 258.89542 168.0 260.0 168.0L264.0 168.0C265.10458 168.0 266.0 168.89543 266.0 170.0Z" fill-rule="nonzero"/><path fill="#4285f4" clip-path="url(#id_0)" d="M266.0 209.0L258.0 209.0L258.0 170.0C258.0 168.89543 258.89542 168.0 260.0 168.0L264.0 168.0C265.10458 168.0 266.0 168.89543 266.0 170.0Z" fill-rule="nonzero"/><path stroke="#000000" stroke-width="0.0" stroke-linecap="butt" stroke-opacity="0.0" clip-path="url(#id_0)" d="M295.0 209.0L287.0 209.0L287.0 195.0C287.0 193.89543 287.89542 193.0 289.0 193.0L293.0 193.0C294.10458 193.0 295.0 193.89543 295.0 195.0Z" fill-rule="nonzero"/><path fill="#4285f4" clip-path="url(#id_0)" d="M295.0 209.0L287.0 209.0L287.0 195.0C287.0 193.89543 287.89542 193.0 289.0 193.0L293.0 193.0C294.10458 193.0 295.0 193.89543 295.0 195.0Z" fill-rule="nonzero"/><path stroke="#000000" stroke-width="0.0" stroke-linecap="butt" stroke-opacity="0.0" clip-path="url(#id_0)" d="M324.0 209.0L316.0 209.0L316.0 188.0C316.0 186.89543 316.89542 186.0 318.0 186.0L322.0 186.0C323.10458 186.0 324.0 186.89543 324.0 188.0Z" fill-rule="nonzero"/><path fill="#4285f4" clip-path="url(#id_0)" d="M324.0 209.0L316.0 209.0L316.0 188.0C316.0 186.89543 316.89542 186.0 318.0 186.0L322.0 186.0C323.10458 186.0 324.0 186.89543 324.0 188.0Z" fill-rule="nonzero"/><path stroke="#000000" stroke-width="0.0" stroke-linecap="butt" stroke-opacity="0.0" clip-path="url(#id_0)" d="M353.0 209.0L345.0 209.0L345.0 181.0C345.0 179.89543 345.89542 179.0 347.0 179.0L351.0 179.0C352.10458 179.0 353.0 179.89543 353.0 181.0Z" fill-rule="nonzero"/><path fill="#4285f4" clip-path="url(#id_0)" d="M353.0 209.0L345.0 209.0L345.0 181.0C345.0 179.89543 345.89542 179.0 347.0 179.0L351.0 179.0C352.10458 179.0 353.0 179.89543 353.0 181.0Z" fill-rule="nonzero"/><path stroke="#000000" stroke-width="0.0" stroke-linecap="butt" stroke-opacity="0.0" clip-path="url(#id_0)" d="M382.0 209.0L374.0 209.0L374.0 177.0C374.0 175.89543 374.89542 175.0 376.0 175.0L380.0 175.0C381.10458 175.0 382.0 175.89543 382.0 177.0Z" fill-rule="nonzero"/><path fill="#4285f4" clip-path="url(#id_0)" d="M382.0 209.0L374.0 209.0L374.0 177.0C374.0 175.89543 374.89542 175.0 376.0 175.0L380.0 175.0C381.10458 175.0 382.0 175.89543 382.0 177.0Z" fill-rule="nonzero"/><path stroke="#000000" stroke-width="0.0" stroke-linecap="butt" stroke-opacity="0.0" clip-path="url(#id_0)" d="M412.0 209.0L404.0 209.0L404.0 180.0C404.0 178.89543 404.89542 178.0 406.0 178.0L410.0 178.0C411.10458 178.0 412.0 178.89543 412.0 180.0Z" fill-rule="nonzero"/><path fill="#4285f4" clip-path="url(#id_0)" d="M412.0 209.0L404.0 209.0L404.0 180.0C404.0 178.89543 404.89542 178.0 406.0 178.0L410.0 178.0C411.10458 178.0 412.0 178.89543 412.0 180.0Z" fill-rule="nonzero"/><path stroke="#000000" stroke-width="0.0" stroke-linecap="butt" stroke-opacity="0.0" clip-path="url(#id_0)" d="M100.0 209.0L92.0 209.0L92.0 133.0C92.0 131.89543 92.89543 131.0 94.0 131.0L98.0 131.0C99.10457 131.0 100.0 131.89543 100.0 133.0Z" fill-rule="nonzero"/><path fill="#ea4335" clip-path="url(#id_0)" d="M100.0 209.0L92.0 209.0L92.0 133.0C92.0 131.89543 92.89543 131.0 94.0 131.0L98.0 131.0C99.10457 131.0 100.0 131.89543 100.0 133.0Z" fill-rule="nonzero"/><path stroke="#000000" stroke-width="0.0" stroke-linecap="butt" stroke-opacity="0.0" clip-path="url(#id_0)" d="M130.0 209.0L122.0 209.0L122.0 125.0C122.0 123.89543 122.89543 123.0 124.0 123.0L128.0 123.0C129.10457 123.0 130.0 123.89543 130.0 125.0Z" fill-rule="nonzero"/><path fill="#ea4335" clip-path="url(#id_0)" d="M130.0 209.0L122.0 209.0L122.0 125.0C122.0 123.89543 122.89543 123.0 124.0 123.0L128.0 123.0C129.10457 123.0 130.0 123.89543 130.0 125.0Z" fill-rule="nonzero"/><path stroke="#000000" stroke-width="0.0" stroke-linecap="butt" stroke-opacity="0.0" clip-path="url(#id_0)" d="M159.0 209.0L151.0 209.0L151.0 122.0C151.0 120.89543 151.89543 120.0 153.0 120.0L157.0 120.0C158.10457 120.0 159.0 120.89543 159.0 122.0Z" fill-rule="nonzero"/><path fill="#ea4335" clip-path="url(#id_0)" d="M159.0 209.0L151.0 209.0L151.0 122.0C151.0 120.89543 151.89543 120.0 153.0 120.0L157.0 120.0C158.10457 120.0 159.0 120.89543 159.0 122.0Z" fill-rule="nonzero"/><path stroke="#000000" stroke-width="0.0" stroke-linecap="butt" stroke-opacity="0.0" clip-path="url(#id_0)" d="M188.0 209.0L180.0 209.0L180.0 109.0C180.0 107.89543 180.89543 107.0 182.0 107.0L186.0 107.0C187.10457 107.0 188.0 107.89543 188.0 109.0Z" fill-rule="nonzero"/><path fill="#ea4335" clip-path="url(#id_0)" d="M188.0 209.0L180.0 209.0L180.0 109.0C180.0 107.89543 180.89543 107.0 182.0 107.0L186.0 107.0C187.10457 107.0 188.0 107.89543 188.0 109.0Z" fill-rule="nonzero"/><path stroke="#000000" stroke-width="0.0" stroke-linecap="butt" stroke-opacity="0.0" clip-path="url(#id_0)" d="M217.0 209.0L209.0 209.0L209.0 54.0C209.0 52.89543 209.89543 52.0 211.0 52.0L215.0 52.0C216.10457 52.0 217.0 52.89543 217.0 54.0Z" fill-rule="nonzero"/><path fill="#ea4335" clip-path="url(#id_0)" d="M217.0 209.0L209.0 209.0L209.0 54.0C209.0 52.89543 209.89543 52.0 211.0 52.0L215.0 52.0C216.10457 52.0 217.0 52.89543 217.0 54.0Z" fill-rule="nonzero"/><path stroke="#000000" stroke-width="0.0" stroke-linecap="butt" stroke-opacity="0.0" clip-path="url(#id_0)" d="M246.0 209.0L238.0 209.0L238.0 82.0C238.0 80.89543 238.89543 80.0 240.0 80.0L244.0 80.0C245.10457 80.0 246.0 80.89543 246.0 82.0Z" fill-rule="nonzero"/><path fill="#ea4335" clip-path="url(#id_0)" d="M246.0 209.0L238.0 209.0L238.0 82.0C238.0 80.89543 238.89543 80.0 240.0 80.0L244.0 80.0C245.10457 80.0 246.0 80.89543 246.0 82.0Z" fill-rule="nonzero"/><path stroke="#000000" stroke-width="0.0" stroke-linecap="butt" stroke-opacity="0.0" clip-path="url(#id_0)" d="M275.0 209.0L267.0 209.0L267.0 78.0C267.0 76.89543 267.89542 76.0 269.0 76.0L273.0 76.0C274.10458 76.0 275.0 76.89543 275.0 78.0Z" fill-rule="nonzero"/><path fill="#ea4335" clip-path="url(#id_0)" d="M275.0 209.0L267.0 209.0L267.0 78.0C267.0 76.89543 267.89542 76.0 269.0 76.0L273.0 76.0C274.10458 76.0 275.0 76.89543 275.0 78.0Z" fill-rule="nonzero"/><path stroke="#000000" stroke-width="0.0" stroke-linecap="butt" stroke-opacity="0.0" clip-path="url(#id_0)" d="M304.0 209.0L296.0 209.0L296.0 167.0C296.0 165.89543 296.89542 165.0 298.0 165.0L302.0 165.0C303.10458 165.0 304.0 165.89543 304.0 167.0Z" fill-rule="nonzero"/><path fill="#ea4335" clip-path="url(#id_0)" d="M304.0 209.0L296.0 209.0L296.0 167.0C296.0 165.89543 296.89542 165.0 298.0 165.0L302.0 165.0C303.10458 165.0 304.0 165.89543 304.0 167.0Z" fill-rule="nonzero"/><path stroke="#000000" stroke-width="0.0" stroke-linecap="butt" stroke-opacity="0.0" clip-path="url(#id_0)" d="M333.0 209.0L325.0 209.0L325.0 143.0C325.0 141.89543 325.89542 141.0 327.0 141.0L331.0 141.0C332.10458 141.0 333.0 141.89543 333.0 143.0Z" fill-rule="nonzero"/><path fill="#ea4335" clip-path="url(#id_0)" d="M333.0 209.0L325.0 209.0L325.0 143.0C325.0 141.89543 325.89542 141.0 327.0 141.0L331.0 141.0C332.10458 141.0 333.0 141.89543 333.0 143.0Z" fill-rule="nonzero"/><path stroke="#000000" stroke-width="0.0" stroke-linecap="butt" stroke-opacity="0.0" clip-path="url(#id_0)" d="M362.0 209.0L354.0 209.0L354.0 110.0C354.0 108.89543 354.89542 108.0 356.0 108.0L360.0 108.0C361.10458 108.0 362.0 108.89543 362.0 110.0Z" fill-rule="nonzero"/><path fill="#ea4335" clip-path="url(#id_0)" d="M362.0 209.0L354.0 209.0L354.0 110.0C354.0 108.89543 354.89542 108.0 356.0 108.0L360.0 108.0C361.10458 108.0 362.0 108.89543 362.0 110.0Z" fill-rule="nonzero"/><path stroke="#000000" stroke-width="0.0" stroke-linecap="butt" stroke-opacity="0.0" clip-path="url(#id_0)" d="M391.0 209.0L383.0 209.0L383.0 124.0C383.0 122.89543 383.89542 122.0 385.0 122.0L389.0 122.0C390.10458 122.0 391.0 122.89543 391.0 124.0Z" fill-rule="nonzero"/><path fill="#ea4335" clip-path="url(#id_0)" d="M391.0 209.0L383.0 209.0L383.0 124.0C383.0 122.89543 383.89542 122.0 385.0 122.0L389.0 122.0C390.10458 122.0 391.0 122.89543 391.0 124.0Z" fill-rule="nonzero"/><path stroke="#000000" stroke-width="0.0" stroke-linecap="butt" stroke-opacity="0.0" clip-path="url(#id_0)" d="M421.0 209.0L413.0 209.0L413.0 123.0C413.0 121.89543 413.89542 121.0 415.0 121.0L419.0 121.0C420.10458 121.0 421.0 121.89543 421.0 123.0Z" fill-rule="nonzero"/><path fill="#ea4335" clip-path="url(#id_0)" d="M421.0 209.0L413.0 209.0L413.0 123.0C413.0 121.89543 413.89542 121.0 415.0 121.0L419.0 121.0C420.10458 121.0 421.0 121.89543 421.0 123.0Z" fill-rule="nonzero"/><path fill="#000000" d="M236.29688 258.25L236.29688 252.03125L237.23438 252.03125L237.23438 252.90625Q237.53125 252.4375 238.01562 252.17188Q238.5 251.89062 239.125 251.89062Q239.8125 251.89062 240.25 252.17188Q240.70312 252.45312 240.875 252.96875Q241.625 251.89062 242.79688 251.89062Q243.73438 251.89062 244.21875 252.40625Q244.71875 252.90625 244.71875 253.98438L244.71875 258.25L243.67188 258.25L243.67188 254.32812Q243.67188 253.70312 243.5625 253.42188Q243.46875 253.14062 243.20312 252.96875Q242.9375 252.79688 242.5625 252.79688Q241.90625 252.79688 241.46875 253.23438Q241.04688 253.67188 241.04688 254.64062L241.04688 258.25L239.98438 258.25L239.98438 254.20312Q239.98438 253.5 239.71875 253.15625Q239.46875 252.79688 238.89062 252.79688Q238.4375 252.79688 238.0625 253.03125Q237.6875 253.26562 237.51562 253.71875Q237.34375 254.17188 237.34375 255.01562L237.34375 258.25L236.29688 258.25ZM245.90625 255.14062Q245.90625 253.40625 246.85938 252.57812Q247.65625 251.89062 248.8125 251.89062Q250.09375 251.89062 250.90625 252.73438Q251.73438 253.5625 251.73438 255.04688Q251.73438 256.25 251.375 256.9375Q251.01562 257.625 250.3125 258.01562Q249.625 258.39062 248.8125 258.39062Q247.51562 258.39062 246.70312 257.5625Q245.90625 256.71875 245.90625 255.14062ZM246.98438 255.14062Q246.98438 256.32812 247.5 256.92188Q248.03125 257.51562 248.8125 257.51562Q249.60938 257.51562 250.125 256.92188Q250.64062 256.32812 250.64062 255.10938Q250.64062 253.95312 250.10938 253.35938Q249.59375 252.76562 248.8125 252.76562Q248.03125 252.76562 247.5 253.35938Q246.98438 253.9375 246.98438 255.14062ZM253.29688 258.25L253.29688 252.03125L254.23438 252.03125L254.23438 252.90625Q254.92188 251.89062 256.21875 251.89062Q256.78125 251.89062 257.25 252.09375Q257.73438 252.29688 257.96875 252.625Q258.20312 252.95312 258.29688 253.39062Q258.34375 253.6875 258.34375 254.42188L258.34375 258.25L257.29688 258.25L257.29688 254.46875Q257.29688 253.8125 257.17188 253.5Q257.04688 253.1875 256.73438 253.0Q256.42188 252.79688 256.0 252.79688Q255.32812 252.79688 254.82812 253.23438Q254.34375 253.65625 254.34375 254.84375L254.34375 258.25L253.29688 258.25ZM262.59375 257.3125L262.75 258.23438Q262.29688 258.32812 261.95312 258.32812Q261.375 258.32812 261.0625 258.15625Q260.75 257.96875 260.60938 257.67188Q260.48438 257.375 260.48438 256.42188L260.48438 252.84375L259.71875 252.84375L259.71875 252.03125L260.48438 252.03125L260.48438 250.48438L261.53125 249.85938L261.53125 252.03125L262.59375 252.03125L262.59375 252.84375L261.53125 252.84375L261.53125 256.48438Q261.53125 256.9375 261.57812 257.0625Q261.64062 257.1875 261.76562 257.26562Q261.89062 257.34375 262.125 257.34375Q262.3125 257.34375 262.59375 257.3125ZM263.29688 258.25L263.29688 249.65625L264.34375 249.65625L264.34375 252.73438Q265.07812 251.89062 266.20312 251.89062Q266.90625 251.89062 267.40625 252.17188Q267.92188 252.4375 268.14062 252.92188Q268.35938 253.39062 268.35938 254.3125L268.35938 258.25L267.3125 258.25L267.3125 254.3125Q267.3125 253.51562 266.96875 253.15625Q266.625 252.79688 266.0 252.79688Q265.53125 252.79688 265.10938 253.04688Q264.70312 253.28125 264.51562 253.70312Q264.34375 254.10938 264.34375 254.84375L264.34375 258.25L263.29688 258.25Z" fill-rule="nonzero"/><path fill="#000000" d="M24.75 175.2552L23.96875 175.2552Q24.890625 175.84895 24.890625 176.98958Q24.890625 177.73958 24.484375 178.36458Q24.0625 178.98958 23.328125 179.33333Q22.59375 179.67708 21.640625 179.67708Q20.71875 179.67708 19.953125 179.36458Q19.1875 179.05208 18.796875 178.42708Q18.390625 177.80208 18.390625 177.03645Q18.390625 176.47395 18.625 176.03645Q18.859375 175.59895 19.234375 175.3177L16.15625 175.3177L16.15625 174.27083L24.75 174.27083L24.75 175.2552ZM21.640625 178.58333Q22.84375 178.58333 23.4375 178.08333Q24.015625 177.58333 24.015625 176.89583Q24.015625 176.20833 23.453125 175.72395Q22.890625 175.23958 21.734375 175.23958Q20.453125 175.23958 19.859375 175.73958Q19.265625 176.22395 19.265625 176.9427Q19.265625 177.64583 19.84375 178.11458Q20.40625 178.58333 21.640625 178.58333ZM22.75 168.03645L22.875 166.9427Q23.828125 167.1927 24.359375 167.89583Q24.890625 168.59895 24.890625 169.67708Q24.890625 171.03645 24.046875 171.84895Q23.203125 172.64583 21.6875 172.64583Q20.125 172.64583 19.265625 171.83333Q18.390625 171.02083 18.390625 169.73958Q18.390625 168.48958 19.234375 167.70833Q20.078125 166.91145 21.625 166.91145Q21.71875 166.91145 21.90625 166.91145L21.90625 171.55208Q22.9375 171.48958 23.484375 170.97395Q24.015625 170.45833 24.015625 169.67708Q24.015625 169.09895 23.71875 168.6927Q23.40625 168.27083 22.75 168.03645ZM21.046875 171.48958L21.046875 168.02083Q20.25 168.08333 19.859375 168.41145Q19.25 168.92708 19.25 169.72395Q19.25 170.45833 19.734375 170.95833Q20.21875 171.4427 21.046875 171.48958ZM27.140625 165.28645L18.53125 165.28645L18.53125 164.33333L19.328125 164.33333Q18.859375 163.98958 18.625 163.5677Q18.390625 163.1302 18.390625 162.52083Q18.390625 161.72395 18.796875 161.11458Q19.203125 160.5052 19.953125 160.20833Q20.703125 159.89583 21.59375 159.89583Q22.546875 159.89583 23.3125 160.23958Q24.078125 160.5677 24.484375 161.22395Q24.890625 161.8802 24.890625 162.59895Q24.890625 163.1302 24.671875 163.55208Q24.4375 163.97395 24.109375 164.23958L27.140625 164.23958L27.140625 165.28645ZM21.671875 164.33333Q22.875 164.33333 23.453125 163.84895Q24.015625 163.36458 24.015625 162.67708Q24.015625 161.97395 23.421875 161.47395Q22.828125 160.97395 21.578125 160.97395Q20.390625 160.97395 19.8125 161.45833Q19.21875 161.9427 19.21875 162.6302Q19.21875 163.30208 19.84375 163.8177Q20.46875 164.33333 21.671875 164.33333ZM24.75 158.3177L16.15625 158.3177L16.15625 157.2552L24.75 157.2552L24.75 158.3177ZM21.640625 155.67708Q19.90625 155.67708 19.078125 154.72395Q18.390625 153.92708 18.390625 152.77083Q18.390625 151.48958 19.234375 150.67708Q20.0625 149.84895 21.546875 149.84895Q22.75 149.84895 23.4375 150.20833Q24.125 150.5677 24.515625 151.27083Q24.890625 151.95833 24.890625 152.77083Q24.890625 154.0677 24.0625 154.8802Q23.21875 155.67708 21.640625 155.67708ZM21.640625 154.59895Q22.828125 154.59895 23.421875 154.08333Q24.015625 153.55208 24.015625 152.77083Q24.015625 151.97395 23.421875 151.45833Q22.828125 150.9427 21.609375 150.9427Q20.453125 150.9427 19.859375 151.47395Q19.265625 151.98958 19.265625 152.77083Q19.265625 153.55208 19.859375 154.08333Q20.4375 154.59895 21.640625 154.59895ZM27.140625 148.33333L26.15625 148.45833Q26.25 148.11458 26.25 147.84895Q26.25 147.5052 26.125 147.30208Q26.015625 147.08333 25.8125 146.9427Q25.640625 146.84895 25.015625 146.61458Q24.9375 146.59895 24.765625 146.52083L18.53125 148.89583L18.53125 147.7552L22.125 146.45833Q22.8125 146.20833 23.578125 146.0052Q22.84375 145.8177 22.15625 145.5677L18.53125 144.23958L18.53125 143.1927L24.859375 145.55208Q25.875 145.9427 26.265625 146.14583Q26.796875 146.42708 27.03125 146.80208Q27.28125 147.16145 27.28125 147.66145Q27.28125 147.95833 27.140625 148.33333ZM24.75 139.3177L16.15625 139.3177L16.15625 138.2552L24.75 138.2552L24.75 139.3177ZM23.984375 132.22395Q24.484375 132.8177 24.6875 133.36458Q24.890625 133.89583 24.890625 134.52083Q24.890625 135.55208 24.390625 136.09895Q23.890625 136.64583 23.109375 136.64583Q22.65625 136.64583 22.28125 136.4427Q21.890625 136.23958 21.671875 135.89583Q21.4375 135.55208 21.328125 135.1302Q21.234375 134.83333 21.15625 134.1927Q21.015625 132.92708 20.796875 132.3177Q20.578125 132.3177 20.53125 132.3177Q19.875 132.3177 19.609375 132.61458Q19.265625 133.02083 19.265625 133.8177Q19.265625 134.55208 19.53125 134.91145Q19.78125 135.27083 20.4375 135.4427L20.296875 136.47395Q19.640625 136.33333 19.234375 136.0052Q18.828125 135.67708 18.609375 135.0677Q18.390625 134.45833 18.390625 133.66145Q18.390625 132.86458 18.578125 132.36458Q18.765625 131.86458 19.046875 131.6302Q19.328125 131.39583 19.765625 131.30208Q20.03125 131.2552 20.734375 131.2552L22.140625 131.2552Q23.609375 131.2552 24.0 131.1927Q24.390625 131.11458 24.75 130.91145L24.75 132.02083Q24.421875 132.17708 23.984375 132.22395ZM21.625 132.3177Q21.859375 132.89583 22.03125 134.03645Q22.125 134.6927 22.25 134.95833Q22.359375 135.22395 22.578125 135.3802Q22.796875 135.52083 23.078125 135.52083Q23.5 135.52083 23.78125 135.20833Q24.0625 134.8802 24.0625 134.27083Q24.0625 133.66145 23.796875 133.1927Q23.53125 132.70833 23.0625 132.48958Q22.703125 132.3177 22.015625 132.3177L21.625 132.3177ZM25.265625 129.48958L25.421875 128.45833Q25.890625 128.39583 26.109375 128.09895Q26.40625 127.70833 26.40625 127.03645Q26.40625 126.30208 26.109375 125.91145Q25.8125 125.5052 25.296875 125.36458Q24.96875 125.27083 23.9375 125.28645Q24.75 125.97395 24.75 127.0052Q24.75 128.28645 23.828125 128.98958Q22.890625 129.6927 21.609375 129.6927Q20.71875 129.6927 19.96875 129.3802Q19.203125 129.05208 18.796875 128.4427Q18.390625 127.83333 18.390625 127.0052Q18.390625 125.89583 19.28125 125.17708L18.53125 125.17708L18.53125 124.20833L23.90625 124.20833Q25.359375 124.20833 25.96875 124.5052Q26.578125 124.80208 26.921875 125.4427Q27.28125 126.08333 27.28125 127.02083Q27.28125 128.1302 26.78125 128.8177Q26.28125 129.5052 25.265625 129.48958ZM21.53125 128.61458Q22.75 128.61458 23.3125 128.1302Q23.875 127.64583 23.875 126.91145Q23.875 126.17708 23.3125 125.6927Q22.75 125.1927 21.5625 125.1927Q20.421875 125.1927 19.84375 125.70833Q19.265625 126.20833 19.265625 126.92708Q19.265625 127.6302 19.84375 128.1302Q20.40625 128.61458 21.53125 128.61458ZM27.28125 117.27083Q26.171875 118.14583 24.703125 118.7552Q23.21875 119.34895 21.640625 119.34895Q20.25 119.34895 18.96875 118.91145Q17.484375 118.3802 16.015625 117.27083L16.015625 116.52083Q17.234375 117.22395 17.75 117.45833Q18.5625 117.8177 19.4375 118.02083Q20.53125 118.27083 21.640625 118.27083Q24.46875 118.27083 27.28125 116.52083L27.28125 117.27083ZM24.75 111.2552L23.96875 111.2552Q24.890625 111.84895 24.890625 112.98958Q24.890625 113.73958 24.484375 114.36458Q24.0625 114.98958 23.328125 115.33333Q22.59375 115.67708 21.640625 115.67708Q20.71875 115.67708 19.953125 115.36458Q19.1875 115.05208 18.796875 114.42708Q18.390625 113.80208 18.390625 113.03645Q18.390625 112.47395 18.625 112.03645Q18.859375 111.59895 19.234375 111.3177L16.15625 111.3177L16.15625 110.27083L24.75 110.27083L24.75 111.2552ZM21.640625 114.58333Q22.84375 114.58333 23.4375 114.08333Q24.015625 113.58333 24.015625 112.89583Q24.015625 112.20833 23.453125 111.72395Q22.890625 111.23958 21.734375 111.23958Q20.453125 111.23958 19.859375 111.73958Q19.265625 112.22395 19.265625 112.9427Q19.265625 113.64583 19.84375 114.11458Q20.40625 114.58333 21.640625 114.58333ZM23.984375 104.22395Q24.484375 104.8177 24.6875 105.36458Q24.890625 105.89583 24.890625 106.52083Q24.890625 107.55208 24.390625 108.09895Q23.890625 108.64583 23.109375 108.64583Q22.65625 108.64583 22.28125 108.4427Q21.890625 108.23958 21.671875 107.89583Q21.4375 107.55208 21.328125 107.1302Q21.234375 106.83333 21.15625 106.1927Q21.015625 104.92708 20.796875 104.3177Q20.578125 104.3177 20.53125 104.3177Q19.875 104.3177 19.609375 104.61458Q19.265625 105.02083 19.265625 105.8177Q19.265625 106.55208 19.53125 106.91145Q19.78125 107.27083 20.4375 107.4427L20.296875 108.47395Q19.640625 108.33333 19.234375 108.0052Q18.828125 107.67708 18.609375 107.0677Q18.390625 106.45833 18.390625 105.66145Q18.390625 104.86458 18.578125 104.36458Q18.765625 103.86458 19.046875 103.6302Q19.328125 103.39583 19.765625 103.30208Q20.03125 103.2552 20.734375 103.2552L22.140625 103.2552Q23.609375 103.2552 24.0 103.1927Q24.390625 103.11458 24.75 102.91145L24.75 104.02083Q24.421875 104.17708 23.984375 104.22395ZM21.625 104.3177Q21.859375 104.89583 22.03125 106.03645Q22.125 106.6927 22.25 106.95833Q22.359375 107.22395 22.578125 107.3802Q22.796875 107.52083 23.078125 107.52083Q23.5 107.52083 23.78125 107.20833Q24.0625 106.8802 24.0625 106.27083Q24.0625 105.66145 23.796875 105.1927Q23.53125 104.70833 23.0625 104.48958Q22.703125 104.3177 22.015625 104.3177L21.625 104.3177ZM27.140625 101.33333L26.15625 101.45833Q26.25 101.11458 26.25 100.84895Q26.25 100.5052 26.125 100.30208Q26.015625 100.08333 25.8125 99.9427Q25.640625 99.84895 25.015625 99.61458Q24.9375 99.59895 24.765625 99.52083L18.53125 101.89583L18.53125 100.7552L22.125 99.45833Q22.8125 99.20833 23.578125 99.0052Q22.84375 98.8177 22.15625 98.5677L18.53125 97.23958L18.53125 96.1927L24.859375 98.55208Q25.875 98.9427 26.265625 99.14583Q26.796875 99.42708 27.03125 99.80208Q27.28125 100.16145 27.28125 100.66145Q27.28125 100.95833 27.140625 101.33333ZM22.890625 95.70833L22.734375 94.67708Q23.359375 94.58333 23.6875 94.1927Q24.015625 93.78645 24.015625 93.05208Q24.015625 92.33333 23.734375 91.98958Q23.4375 91.6302 23.03125 91.6302Q22.671875 91.6302 22.46875 91.9427Q22.328125 92.16145 22.109375 93.02083Q21.8125 94.17708 21.609375 94.6302Q21.390625 95.0677 21.015625 95.30208Q20.640625 95.53645 20.171875 95.53645Q19.765625 95.53645 19.40625 95.34895Q19.046875 95.16145 18.8125 94.83333Q18.640625 94.58333 18.515625 94.16145Q18.390625 93.73958 18.390625 93.23958Q18.390625 92.52083 18.609375 91.97395Q18.8125 91.41145 19.171875 91.14583Q19.53125 90.8802 20.125 90.78645L20.265625 91.8177Q19.796875 91.8802 19.53125 92.22395Q19.25 92.55208 19.25 93.17708Q19.25 93.89583 19.5 94.20833Q19.734375 94.52083 20.0625 94.52083Q20.265625 94.52083 20.421875 94.39583Q20.59375 94.2552 20.703125 93.98958Q20.765625 93.83333 20.96875 93.05208Q21.28125 91.92708 21.46875 91.48958Q21.65625 91.05208 22.015625 90.80208Q22.375 90.55208 22.921875 90.55208Q23.453125 90.55208 23.921875 90.86458Q24.375 91.16145 24.640625 91.73958Q24.890625 92.3177 24.890625 93.05208Q24.890625 94.27083 24.390625 94.91145Q23.875 95.53645 22.890625 95.70833ZM27.28125 88.59895L27.28125 89.34895Q24.46875 87.59895 21.640625 87.59895Q20.546875 87.59895 19.453125 87.84895Q18.578125 88.05208 17.765625 88.41145Q17.25 88.64583 16.015625 89.34895L16.015625 88.59895Q17.484375 87.5052 18.96875 86.97395Q20.25 86.52083 21.640625 86.52083Q23.21875 86.52083 24.703125 87.1302Q26.171875 87.73958 27.28125 88.59895Z" fill-rule="nonzero"/><path fill="#000000" d="M60.25 209.01562Q60.25 207.48438 60.5625 206.5625Q60.875 205.625 61.484375 205.125Q62.109375 204.625 63.046875 204.625Q63.734375 204.625 64.25 204.90625Q64.78125 205.1875 65.125 205.71875Q65.46875 206.23438 65.65625 206.98438Q65.84375 207.73438 65.84375 209.01562Q65.84375 210.53125 65.53125 211.45312Q65.234375 212.375 64.609375 212.89062Q64.0 213.39062 63.046875 213.39062Q61.8125 213.39062 61.09375 212.5Q60.25 211.4375 60.25 209.01562ZM61.328125 209.01562Q61.328125 211.125 61.828125 211.82812Q62.328125 212.53125 63.046875 212.53125Q63.78125 212.53125 64.265625 211.82812Q64.765625 211.125 64.765625 209.01562Q64.765625 206.89062 64.265625 206.20312Q63.78125 205.5 63.03125 205.5Q62.3125 205.5 61.875 206.10938Q61.328125 206.89062 61.328125 209.01562Z" fill-rule="nonzero"/><path fill="#000000" d="M60.25 155.88889L61.359375 155.79514Q61.484375 156.60764 61.921875 157.01389Q62.375 157.42014 63.015625 157.42014Q63.765625 157.42014 64.296875 156.84201Q64.828125 156.26389 64.828125 155.32639Q64.828125 154.42014 64.3125 153.90451Q63.8125 153.37326 62.984375 153.37326Q62.484375 153.37326 62.0625 153.60764Q61.65625 153.84201 61.421875 154.20139L60.4375 154.07639L61.265625 149.67014L65.546875 149.67014L65.546875 150.67014L62.109375 150.67014L61.65625 152.98264Q62.421875 152.43576 63.265625 152.43576Q64.390625 152.43576 65.15625 153.21701Q65.9375 153.99826 65.9375 155.23264Q65.9375 156.38889 65.265625 157.24826Q64.4375 158.27951 63.015625 158.27951Q61.84375 158.27951 61.09375 157.62326Q60.359375 156.96701 60.25 155.88889Z" fill-rule="nonzero"/><path fill="#000000" d="M57.21875 103.02778L56.171875 103.02778L56.171875 96.30903Q55.78125 96.6684 55.15625 97.0434Q54.546875 97.40278 54.0625 97.57465L54.0625 96.55903Q54.9375 96.13715 55.59375 95.55903Q56.265625 94.96528 56.546875 94.40278L57.21875 94.40278L57.21875 103.02778ZM60.25 98.7934Q60.25 97.26215 60.5625 96.34028Q60.875 95.40278 61.484375 94.90278Q62.109375 94.40278 63.046875 94.40278Q63.734375 94.40278 64.25 94.68403Q64.78125 94.96528 65.125 95.49653Q65.46875 96.01215 65.65625 96.76215Q65.84375 97.51215 65.84375 98.7934Q65.84375 100.30903 65.53125 101.2309Q65.234375 102.15278 64.609375 102.6684Q64.0 103.1684 63.046875 103.1684Q61.8125 103.1684 61.09375 102.27778Q60.25 101.21528 60.25 98.7934ZM61.328125 98.7934Q61.328125 100.90278 61.828125 101.6059Q62.328125 102.30903 63.046875 102.30903Q63.78125 102.30903 64.265625 101.6059Q64.765625 100.90278 64.765625 98.7934Q64.765625 96.6684 64.265625 95.9809Q63.78125 95.27778 63.03125 95.27778Q62.3125 95.27778 61.875 95.88715Q61.328125 96.6684 61.328125 98.7934Z" fill-rule="nonzero"/><path fill="#000000" d="M57.21875 47.916668L56.171875 47.916668L56.171875 41.197918Q55.78125 41.557293 55.15625 41.932293Q54.546875 42.291668 54.0625 42.463543L54.0625 41.447918Q54.9375 41.026043 55.59375 40.447918Q56.265625 39.854168 56.546875 39.291668L57.21875 39.291668L57.21875 47.916668ZM60.25 45.666668L61.359375 45.572918Q61.484375 46.385418 61.921875 46.791668Q62.375 47.197918 63.015625 47.197918Q63.765625 47.197918 64.296875 46.619793Q64.828125 46.041668 64.828125 45.104168Q64.828125 44.197918 64.3125 43.682293Q63.8125 43.151043 62.984375 43.151043Q62.484375 43.151043 62.0625 43.385418Q61.65625 43.619793 61.421875 43.979168L60.4375 43.854168L61.265625 39.447918L65.546875 39.447918L65.546875 40.447918L62.109375 40.447918L61.65625 42.760418Q62.421875 42.213543 63.265625 42.213543Q64.390625 42.213543 65.15625 42.994793Q65.9375 43.776043 65.9375 45.010418Q65.9375 46.166668 65.265625 47.026043Q64.4375 48.057293 63.015625 48.057293Q61.84375 48.057293 61.09375 47.401043Q60.359375 46.744793 60.25 45.666668Z" fill-rule="nonzero"/><path fill="#000000" d="M93.36754 226.25L92.32066 226.25L92.32066 219.53125Q91.93004 219.89062 91.30504 220.26562Q90.69566 220.625 90.21129 220.79688L90.21129 219.78125Q91.08629 219.35938 91.74254 218.78125Q92.41441 218.1875 92.69566 217.625L93.36754 217.625L93.36754 226.25Z" fill-rule="nonzero"/><path fill="#000000" d="M124.05497 225.23438L124.05497 226.25L118.36747 226.25Q118.36747 225.875 118.49247 225.51562Q118.71122 224.9375 119.17997 224.375Q119.664345 223.8125 120.570595 223.07812Q121.976845 221.92188 122.46122 221.25Q122.96122 220.57812 122.96122 219.98438Q122.96122 219.35938 122.508095 218.9375Q122.05497 218.5 121.33622 218.5Q120.570595 218.5 120.11747 218.95312Q119.664345 219.40625 119.64872 220.21875L118.570595 220.10938Q118.67997 218.89062 119.39872 218.26562Q120.133095 217.625 121.36747 217.625Q122.601845 217.625 123.320595 218.3125Q124.039345 219.0 124.039345 220.01562Q124.039345 220.53125 123.820595 221.03125Q123.61747 221.51562 123.11747 222.07812Q122.633095 222.625 121.508095 223.57812Q120.55497 224.375 120.27372 224.67188Q120.008095 224.95312 119.83622 225.23438L124.05497 225.23438Z" fill-rule="nonzero"/><path fill="#000000" d="M147.61742 223.98438L148.67992 223.84375Q148.85179 224.73438 149.28929 225.14062Q149.72679 225.53125 150.35179 225.53125Q151.10179 225.53125 151.61742 225.01562Q152.13304 224.5 152.13304 223.73438Q152.13304 223.01562 151.64867 222.54688Q151.17992 222.0625 150.44554 222.0625Q150.14867 222.0625 149.69554 222.1875L149.82054 221.25Q149.92992 221.26562 149.99242 221.26562Q150.66429 221.26562 151.19554 220.92188Q151.74242 220.5625 151.74242 219.82812Q151.74242 219.25 151.35179 218.875Q150.96117 218.48438 150.33617 218.48438Q149.72679 218.48438 149.30492 218.875Q148.89867 219.26562 148.78929 220.03125L147.72679 219.84375Q147.91429 218.79688 148.60179 218.21875Q149.28929 217.625 150.30492 217.625Q151.00804 217.625 151.60179 217.9375Q152.19554 218.23438 152.50804 218.75Q152.82054 219.26562 152.82054 219.85938Q152.82054 220.40625 152.52367 220.875Q152.22679 221.32812 151.64867 221.59375Q152.39867 221.76562 152.82054 222.32812Q153.24242 222.875 153.24242 223.71875Q153.24242 224.84375 152.41429 225.625Q151.60179 226.40625 150.35179 226.40625Q149.22679 226.40625 148.47679 225.73438Q147.72679 225.04688 147.61742 223.98438Z" fill-rule="nonzero"/><path fill="#000000" d="M180.10172 226.25L180.10172 224.1875L176.38297 224.1875L176.38297 223.21875L180.30484 217.65625L181.16422 217.65625L181.16422 223.21875L182.32047 223.21875L182.32047 224.1875L181.16422 224.1875L181.16422 226.25L180.10172 226.25ZM180.10172 223.21875L180.10172 219.35938L177.41422 223.21875L180.10172 223.21875Z" fill-rule="nonzero"/><path fill="#000000" d="M205.83603 224.0L206.9454 223.90625Q207.0704 224.71875 207.5079 225.125Q207.96103 225.53125 208.60165 225.53125Q209.35165 225.53125 209.8829 224.95312Q210.41415 224.375 210.41415 223.4375Q210.41415 222.53125 209.89853 222.01562Q209.39853 221.48438 208.5704 221.48438Q208.0704 221.48438 207.64853 221.71875Q207.24228 221.95312 207.0079 222.3125L206.02353 222.1875L206.85165 217.78125L211.1329 217.78125L211.1329 218.78125L207.6954 218.78125L207.24228 221.09375Q208.0079 220.54688 208.85165 220.54688Q209.97665 220.54688 210.74228 221.32812Q211.52353 222.10938 211.52353 223.34375Q211.52353 224.5 210.85165 225.35938Q210.02353 226.39062 208.60165 226.39062Q207.42978 226.39062 206.67978 225.73438Q205.9454 225.07812 205.83603 224.0Z" fill-rule="nonzero"/><path fill="#000000" d="M240.4141 219.76562L239.36722 219.84375Q239.2266 219.21875 238.9766 218.9375Q238.5391 218.48438 237.9141 218.48438Q237.4141 218.48438 237.02347 218.76562Q236.5391 219.14062 236.24222 219.84375Q235.96097 220.53125 235.94534 221.8125Q236.32034 221.23438 236.86722 220.95312Q237.42972 220.67188 238.0391 220.67188Q239.08597 220.67188 239.82034 221.45312Q240.57034 222.23438 240.57034 223.45312Q240.57034 224.26562 240.21097 224.96875Q239.86722 225.65625 239.25784 226.03125Q238.64847 226.39062 237.88284 226.39062Q236.55472 226.39062 235.7266 225.42188Q234.89847 224.45312 234.89847 222.23438Q234.89847 219.73438 235.82034 218.60938Q236.61722 217.625 237.9766 217.625Q238.99222 217.625 239.63284 218.20312Q240.2891 218.76562 240.4141 219.76562ZM236.11722 223.46875Q236.11722 224.01562 236.33597 224.51562Q236.57034 225.0 236.9766 225.26562Q237.39847 225.53125 237.86722 225.53125Q238.52347 225.53125 239.00784 225.0Q239.49222 224.45312 239.49222 223.53125Q239.49222 222.64062 239.00784 222.125Q238.5391 221.60938 237.82034 221.60938Q237.1016 221.60938 236.6016 222.125Q236.11722 222.64062 236.11722 223.46875Z" fill-rule="nonzero"/><path fill="#000000" d="M264.11716 218.78125L264.11716 217.76562L269.67966 217.76562L269.67966 218.59375Q268.86716 219.46875 268.05466 220.92188Q267.25778 222.35938 266.82028 223.89062Q266.49216 224.96875 266.41403 226.25L265.32028 226.25Q265.3359 225.23438 265.7109 223.79688Q266.10153 222.35938 266.80466 221.03125Q267.5234 219.70312 268.3359 218.78125L264.11716 218.78125Z" fill-rule="nonzero"/><path fill="#000000" d="M294.78897 221.59375Q294.13272 221.34375 293.8046 220.90625Q293.4921 220.45312 293.4921 219.84375Q293.4921 218.90625 294.16397 218.26562Q294.85147 217.625 295.96085 217.625Q297.08585 217.625 297.77335 218.28125Q298.46085 218.9375 298.46085 219.875Q298.46085 220.46875 298.14835 220.90625Q297.83585 221.34375 297.19522 221.59375Q297.9921 221.84375 298.39835 222.42188Q298.8046 223.0 298.8046 223.79688Q298.8046 224.89062 298.02335 225.64062Q297.25772 226.39062 295.97647 226.39062Q294.71085 226.39062 293.9296 225.64062Q293.14835 224.89062 293.14835 223.76562Q293.14835 222.92188 293.57022 222.35938Q294.00772 221.79688 294.78897 221.59375ZM294.57022 219.79688Q294.57022 220.40625 294.96085 220.79688Q295.3671 221.1875 295.9921 221.1875Q296.60147 221.1875 296.9921 220.8125Q297.38272 220.42188 297.38272 219.85938Q297.38272 219.28125 296.97647 218.89062Q296.57022 218.48438 295.97647 218.48438Q295.3671 218.48438 294.96085 218.875Q294.57022 219.26562 294.57022 219.79688ZM294.2421 223.76562Q294.2421 224.21875 294.44522 224.64062Q294.66397 225.0625 295.08585 225.29688Q295.50772 225.53125 295.9921 225.53125Q296.7421 225.53125 297.22647 225.04688Q297.72647 224.5625 297.72647 223.8125Q297.72647 223.04688 297.22647 222.54688Q296.72647 222.04688 295.96085 222.04688Q295.21085 222.04688 294.72647 222.54688Q294.2421 223.03125 294.2421 223.76562Z" fill-rule="nonzero"/><path fill="#000000" d="M322.42953 224.26562L323.44516 224.17188Q323.57016 224.89062 323.92953 225.21875Q324.30453 225.53125 324.86703 225.53125Q325.3514 225.53125 325.7108 225.3125Q326.0858 225.07812 326.32016 224.71875Q326.55453 224.34375 326.7108 223.71875Q326.86703 223.07812 326.86703 222.42188Q326.86703 222.34375 326.86703 222.20312Q326.55453 222.70312 326.00766 223.03125Q325.4608 223.34375 324.82016 223.34375Q323.74203 223.34375 323.00766 222.57812Q322.2733 221.79688 322.2733 220.53125Q322.2733 219.21875 323.0389 218.42188Q323.82016 217.625 324.9764 217.625Q325.80453 217.625 326.49203 218.07812Q327.19516 218.53125 327.55453 219.375Q327.9139 220.20312 327.9139 221.78125Q327.9139 223.42188 327.55453 224.40625Q327.2108 225.375 326.49203 225.89062Q325.7889 226.39062 324.8514 226.39062Q323.8358 226.39062 323.19516 225.84375Q322.55453 225.28125 322.42953 224.26562ZM326.74203 220.46875Q326.74203 219.5625 326.25766 219.03125Q325.7889 218.5 325.1014 218.5Q324.3983 218.5 323.86703 219.07812Q323.3514 219.64062 323.3514 220.5625Q323.3514 221.375 323.8514 221.89062Q324.3514 222.40625 325.07016 222.40625Q325.80453 222.40625 326.2733 221.89062Q326.74203 221.375 326.74203 220.46875Z" fill-rule="nonzero"/><path fill="#000000" d="M351.85135 226.25L350.80447 226.25L350.80447 219.53125Q350.41385 219.89062 349.78885 220.26562Q349.17947 220.625 348.6951 220.79688L348.6951 219.78125Q349.5701 219.35938 350.22635 218.78125Q350.89822 218.1875 351.17947 217.625L351.85135 217.625L351.85135 226.25ZM354.8826 222.01562Q354.8826 220.48438 355.1951 219.5625Q355.5076 218.625 356.11697 218.125Q356.74197 217.625 357.67947 217.625Q358.36697 217.625 358.8826 217.90625Q359.41385 218.1875 359.7576 218.71875Q360.10135 219.23438 360.28885 219.98438Q360.47635 220.73438 360.47635 222.01562Q360.47635 223.53125 360.16385 224.45312Q359.86697 225.375 359.24197 225.89062Q358.6326 226.39062 357.67947 226.39062Q356.4451 226.39062 355.72635 225.5Q354.8826 224.4375 354.8826 222.01562ZM355.96072 222.01562Q355.96072 224.125 356.46072 224.82812Q356.96072 225.53125 357.67947 225.53125Q358.41385 225.53125 358.89822 224.82812Q359.39822 224.125 359.39822 222.01562Q359.39822 219.89062 358.89822 219.20312Q358.41385 218.5 357.66385 218.5Q356.9451 218.5 356.5076 219.10938Q355.96072 219.89062 355.96072 222.01562Z" fill-rule="nonzero"/><path fill="#000000" d="M380.96066 226.25L379.9138 226.25L379.9138 219.53125Q379.52316 219.89062 378.89816 220.26562Q378.2888 220.625 377.8044 220.79688L377.8044 219.78125Q378.6794 219.35938 379.33566 218.78125Q380.00754 218.1875 380.2888 217.625L380.96066 217.625L380.96066 226.25ZM387.96066 226.25L386.9138 226.25L386.9138 219.53125Q386.52316 219.89062 385.89816 220.26562Q385.2888 220.625 384.8044 220.79688L384.8044 219.78125Q385.6794 219.35938 386.33566 218.78125Q387.00754 218.1875 387.2888 217.625L387.96066 217.625L387.96066 226.25Z" fill-rule="nonzero"/><path fill="#000000" d="M410.06998 226.25L409.0231 226.25L409.0231 219.53125Q408.63248 219.89062 408.00748 220.26562Q407.3981 220.625 406.91373 220.79688L406.91373 219.78125Q407.78873 219.35938 408.44498 218.78125Q409.11685 218.1875 409.3981 217.625L410.06998 217.625L410.06998 226.25ZM418.6481 225.23438L418.6481 226.25L412.9606 226.25Q412.9606 225.875 413.0856 225.51562Q413.30435 224.9375 413.7731 224.375Q414.25748 223.8125 415.16373 223.07812Q416.56998 221.92188 417.05435 221.25Q417.55435 220.57812 417.55435 219.98438Q417.55435 219.35938 417.10123 218.9375Q416.6481 218.5 415.92935 218.5Q415.16373 218.5 414.7106 218.95312Q414.25748 219.40625 414.24185 220.21875L413.16373 220.10938Q413.2731 218.89062 413.99185 218.26562Q414.72623 217.625 415.9606 217.625Q417.19498 217.625 417.91373 218.3125Q418.63248 219.0 418.63248 220.01562Q418.63248 220.53125 418.41373 221.03125Q418.2106 221.51562 417.7106 222.07812Q417.22623 222.625 416.10123 223.57812Q415.1481 224.375 414.86685 224.67188Q414.60123 224.95312 414.42935 225.23438L418.6481 225.23438Z" fill-rule="nonzero"/><path fill="#4285f4" d="M143.0 15.75C143.0 15.197715 143.44771 14.75 144.0 14.75L154.0 14.75C154.55229 14.75 155.0 15.197715 155.0 15.75L155.0 25.75C155.0 26.302284 154.55229 26.75 154.0 26.75L144.0 26.75C143.44771 26.75 143.0 26.302284 143.0 25.75Z" fill-rule="nonzero"/><path fill="#1a1a1a" d="M167.85938 23.984375Q167.26562 24.484375 166.71875 24.6875Q166.1875 24.890625 165.5625 24.890625Q164.53125 24.890625 163.98438 24.390625Q163.4375 23.890625 163.4375 23.109375Q163.4375 22.65625 163.64062 22.28125Q163.84375 21.890625 164.1875 21.671875Q164.53125 21.4375 164.95312 21.328125Q165.25 21.234375 165.89062 21.15625Q167.15625 21.015625 167.76562 20.796875Q167.76562 20.578125 167.76562 20.53125Q167.76562 19.875 167.46875 19.609375Q167.0625 19.265625 166.26562 19.265625Q165.53125 19.265625 165.17188 19.53125Q164.8125 19.78125 164.64062 20.4375L163.60938 20.296875Q163.75 19.640625 164.07812 19.234375Q164.40625 18.828125 165.01562 18.609375Q165.625 18.390625 166.42188 18.390625Q167.21875 18.390625 167.71875 18.578125Q168.21875 18.765625 168.45312 19.046875Q168.6875 19.328125 168.78125 19.765625Q168.82812 20.03125 168.82812 20.734375L168.82812 22.140625Q168.82812 23.609375 168.89062 24.0Q168.96875 24.390625 169.17188 24.75L168.0625 24.75Q167.90625 24.421875 167.85938 23.984375ZM167.76562 21.625Q167.1875 21.859375 166.04688 22.03125Q165.39062 22.125 165.125 22.25Q164.85938 22.359375 164.70312 22.578125Q164.5625 22.796875 164.5625 23.078125Q164.5625 23.5 164.875 23.78125Q165.20312 24.0625 165.8125 24.0625Q166.42188 24.0625 166.89062 23.796875Q167.375 23.53125 167.59375 23.0625Q167.76562 22.703125 167.76562 22.015625L167.76562 21.625ZM172.51562 24.75L170.15625 18.53125L171.26562 18.53125L172.60938 22.25Q172.8125 22.859375 173.0 23.5Q173.14062 23.015625 173.39062 22.328125L174.78125 18.53125L175.85938 18.53125L173.5 24.75L172.51562 24.75ZM176.59375 25.265625L177.625 25.421875Q177.6875 25.890625 177.98438 26.109375Q178.375 26.40625 179.04688 26.40625Q179.78125 26.40625 180.17188 26.109375Q180.57812 25.8125 180.71875 25.296875Q180.8125 24.96875 180.79688 23.9375Q180.10938 24.75 179.07812 24.75Q177.79688 24.75 177.09375 23.828125Q176.39062 22.890625 176.39062 21.609375Q176.39062 20.71875 176.70312 19.96875Q177.03125 19.203125 177.64062 18.796875Q178.25 18.390625 179.07812 18.390625Q180.1875 18.390625 180.90625 19.28125L180.90625 18.53125L181.875 18.53125L181.875 23.90625Q181.875 25.359375 181.57812 25.96875Q181.28125 26.578125 180.64062 26.921875Q180.0 27.28125 179.0625 27.28125Q177.95312 27.28125 177.26562 26.78125Q176.57812 26.28125 176.59375 25.265625ZM177.46875 21.53125Q177.46875 22.75 177.95312 23.3125Q178.4375 23.875 179.17188 23.875Q179.90625 23.875 180.39062 23.3125Q180.89062 22.75 180.89062 21.5625Q180.89062 20.421875 180.375 19.84375Q179.875 19.265625 179.15625 19.265625Q178.45312 19.265625 177.95312 19.84375Q177.46875 20.40625 177.46875 21.53125Z" fill-rule="nonzero"/><path fill="#ea4335" d="M202.0 15.75C202.0 15.197715 202.44771 14.75 203.0 14.75L213.0 14.75C213.55229 14.75 214.0 15.197715 214.0 15.75L214.0 25.75C214.0 26.302284 213.55229 26.75 213.0 26.75L203.0 26.75C202.44771 26.75 202.0 26.302284 202.0 25.75Z" fill-rule="nonzero"/><path fill="#1a1a1a" d="M222.65625 22.765625L223.67188 22.671875Q223.79688 23.390625 224.15625 23.71875Q224.53125 24.03125 225.09375 24.03125Q225.57812 24.03125 225.9375 23.8125Q226.3125 23.578125 226.54688 23.21875Q226.78125 22.84375 226.9375 22.21875Q227.09375 21.578125 227.09375 20.921875Q227.09375 20.84375 227.09375 20.703125Q226.78125 21.203125 226.23438 21.53125Q225.6875 21.84375 225.04688 21.84375Q223.96875 21.84375 223.23438 21.078125Q222.5 20.296875 222.5 19.03125Q222.5 17.71875 223.26562 16.921875Q224.04688 16.125 225.20312 16.125Q226.03125 16.125 226.71875 16.578125Q227.42188 17.03125 227.78125 17.875Q228.14062 18.703125 228.14062 20.28125Q228.14062 21.921875 227.78125 22.90625Q227.4375 23.875 226.71875 24.390625Q226.01562 24.890625 225.07812 24.890625Q224.0625 24.890625 223.42188 24.34375Q222.78125 23.78125 222.65625 22.765625ZM226.96875 18.96875Q226.96875 18.0625 226.48438 17.53125Q226.01562 17.0 225.32812 17.0Q224.625 17.0 224.09375 17.578125Q223.57812 18.140625 223.57812 19.0625Q223.57812 19.875 224.07812 20.390625Q224.57812 20.90625 225.29688 20.90625Q226.03125 20.90625 226.5 20.390625Q226.96875 19.875 226.96875 18.96875ZM229.5 20.515625Q229.5 18.984375 229.8125 18.0625Q230.125 17.125 230.73438 16.625Q231.35938 16.125 232.29688 16.125Q232.98438 16.125 233.5 16.40625Q234.03125 16.6875 234.375 17.21875Q234.71875 17.734375 234.90625 18.484375Q235.09375 19.234375 235.09375 20.515625Q235.09375 22.03125 234.78125 22.953125Q234.48438 23.875 233.85938 24.390625Q233.25 24.890625 232.29688 24.890625Q231.0625 24.890625 230.34375 24.0Q229.5 22.9375 229.5 20.515625ZM230.57812 20.515625Q230.57812 22.625 231.07812 23.328125Q231.57812 24.03125 232.29688 24.03125Q233.03125 24.03125 233.51562 23.328125Q234.01562 22.625 234.01562 20.515625Q234.01562 18.390625 233.51562 17.703125Q233.03125 17.0 232.28125 17.0Q231.5625 17.0 231.125 17.609375Q230.57812 18.390625 230.57812 20.515625ZM239.09375 23.8125L239.25 24.734375Q238.79688 24.828125 238.45312 24.828125Q237.875 24.828125 237.5625 24.65625Q237.25 24.46875 237.10938 24.171875Q236.98438 23.875 236.98438 22.921875L236.98438 19.34375L236.21875 19.34375L236.21875 18.53125L236.98438 18.53125L236.98438 16.984375L238.03125 16.359375L238.03125 18.53125L239.09375 18.53125L239.09375 19.34375L238.03125 19.34375L238.03125 22.984375Q238.03125 23.4375 238.07812 23.5625Q238.14062 23.6875 238.26562 23.765625Q238.39062 23.84375 238.625 23.84375Q238.8125 23.84375 239.09375 23.8125ZM239.79688 24.75L239.79688 16.15625L240.84375 16.15625L240.84375 19.234375Q241.57812 18.390625 242.70312 18.390625Q243.40625 18.390625 243.90625 18.671875Q244.42188 18.9375 244.64062 19.421875Q244.85938 19.890625 244.85938 20.8125L244.85938 24.75L243.8125 24.75L243.8125 20.8125Q243.8125 20.015625 243.46875 19.65625Q243.125 19.296875 242.5 19.296875Q242.03125 19.296875 241.60938 19.546875Q241.20312 19.78125 241.01562 20.203125Q240.84375 20.609375 240.84375 21.34375L240.84375 24.75L239.79688 24.75ZM249.79688 27.140625L249.79688 18.53125L250.75 18.53125L250.75 19.328125Q251.09375 18.859375 251.51562 18.625Q251.95312 18.390625 252.5625 18.390625Q253.35938 18.390625 253.96875 18.796875Q254.57812 19.203125 254.875 19.953125Q255.1875 20.703125 255.1875 21.59375Q255.1875 22.546875 254.84375 23.3125Q254.51562 24.078125 253.85938 24.484375Q253.20312 24.890625 252.48438 24.890625Q251.95312 24.890625 251.53125 24.671875Q251.10938 24.4375 250.84375 24.109375L250.84375 27.140625L249.79688 27.140625ZM250.75 21.671875Q250.75 22.875 251.23438 23.453125Q251.71875 24.015625 252.40625 24.015625Q253.10938 24.015625 253.60938 23.421875Q254.10938 22.828125 254.10938 21.578125Q254.10938 20.390625 253.625 19.8125Q253.14062 19.21875 252.45312 19.21875Q251.78125 19.21875 251.26562 19.84375Q250.75 20.46875 250.75 21.671875ZM261.04688 22.75L262.14062 22.875Q261.89062 23.828125 261.1875 24.359375Q260.48438 24.890625 259.40625 24.890625Q258.04688 24.890625 257.23438 24.046875Q256.4375 23.203125 256.4375 21.6875Q256.4375 20.125 257.25 19.265625Q258.0625 18.390625 259.34375 18.390625Q260.59375 18.390625 261.375 19.234375Q262.17188 20.078125 262.17188 21.625Q262.17188 21.71875 262.17188 21.90625L257.53125 21.90625Q257.59375 22.9375 258.10938 23.484375Q258.625 24.015625 259.40625 24.015625Q259.98438 24.015625 260.39062 23.71875Q260.8125 23.40625 261.04688 22.75ZM257.59375 21.046875L261.0625 21.046875Q261.0 20.25 260.67188 19.859375Q260.15625 19.25 259.35938 19.25Q258.625 19.25 258.125 19.734375Q257.64062 20.21875 257.59375 21.046875ZM263.78125 24.75L263.78125 18.53125L264.73438 18.53125L264.73438 19.46875Q265.09375 18.8125 265.39062 18.609375Q265.70312 18.390625 266.07812 18.390625Q266.60938 18.390625 267.15625 18.71875L266.79688 19.703125Q266.40625 19.46875 266.03125 19.46875Q265.67188 19.46875 265.39062 19.6875Q265.125 19.890625 265.01562 20.265625Q264.82812 20.828125 264.82812 21.484375L264.82812 24.75L263.78125 24.75ZM271.85938 22.46875L272.89062 22.609375Q272.71875 23.671875 272.01562 24.28125Q271.3125 24.890625 270.29688 24.890625Q269.01562 24.890625 268.23438 24.0625Q267.46875 23.21875 267.46875 21.65625Q267.46875 20.65625 267.79688 19.90625Q268.14062 19.140625 268.8125 18.765625Q269.5 18.390625 270.3125 18.390625Q271.3125 18.390625 271.95312 18.90625Q272.60938 19.40625 272.79688 20.359375L271.76562 20.515625Q271.625 19.890625 271.25 19.578125Q270.875 19.25 270.34375 19.25Q269.54688 19.25 269.04688 19.828125Q268.54688 20.390625 268.54688 21.625Q268.54688 22.890625 269.03125 23.453125Q269.51562 24.015625 270.28125 24.015625Q270.90625 24.015625 271.3125 23.640625Q271.73438 23.265625 271.85938 22.46875ZM278.04688 22.75L279.14062 22.875Q278.89062 23.828125 278.1875 24.359375Q277.48438 24.890625 276.40625 24.890625Q275.04688 24.890625 274.23438 24.046875Q273.4375 23.203125 273.4375 21.6875Q273.4375 20.125 274.25 19.265625Q275.0625 18.390625 276.34375 18.390625Q277.59375 18.390625 278.375 19.234375Q279.17188 20.078125 279.17188 21.625Q279.17188 21.71875 279.17188 21.90625L274.53125 21.90625Q274.59375 22.9375 275.10938 23.484375Q275.625 24.015625 276.40625 24.015625Q276.98438 24.015625 277.39062 23.71875Q277.8125 23.40625 278.04688 22.75ZM274.59375 21.046875L278.0625 21.046875Q278.0 20.25 277.67188 19.859375Q277.15625 19.25 276.35938 19.25Q275.625 19.25 275.125 19.734375Q274.64062 20.21875 274.59375 21.046875ZM280.79688 24.75L280.79688 18.53125L281.73438 18.53125L281.73438 19.40625Q282.42188 18.390625 283.71875 18.390625Q284.28125 18.390625 284.75 18.59375Q285.23438 18.796875 285.46875 19.125Q285.70312 19.453125 285.79688 19.890625Q285.84375 20.1875 285.84375 20.921875L285.84375 24.75L284.79688 24.75L284.79688 20.96875Q284.79688 20.3125 284.67188 20.0Q284.54688 19.6875 284.23438 19.5Q283.92188 19.296875 283.5 19.296875Q282.82812 19.296875 282.32812 19.734375Q281.84375 20.15625 281.84375 21.34375L281.84375 24.75L280.79688 24.75ZM290.09375 23.8125L290.25 24.734375Q289.79688 24.828125 289.45312 24.828125Q288.875 24.828125 288.5625 24.65625Q288.25 24.46875 288.10938 24.171875Q287.98438 23.875 287.98438 22.921875L287.98438 19.34375L287.21875 19.34375L287.21875 18.53125L287.98438 18.53125L287.98438 16.984375L289.03125 16.359375L289.03125 18.53125L290.09375 18.53125L290.09375 19.34375L289.03125 19.34375L289.03125 22.984375Q289.03125 23.4375 289.07812 23.5625Q289.14062 23.6875 289.26562 23.765625Q289.39062 23.84375 289.625 23.84375Q289.8125 23.84375 290.09375 23.8125ZM290.79688 17.375L290.79688 16.15625L291.85938 16.15625L291.85938 17.375L290.79688 17.375ZM290.79688 24.75L290.79688 18.53125L291.85938 18.53125L291.85938 24.75L290.79688 24.75ZM293.76562 24.75L293.76562 16.15625L294.82812 16.15625L294.82812 24.75L293.76562 24.75ZM301.04688 22.75L302.14062 22.875Q301.89062 23.828125 301.1875 24.359375Q300.48438 24.890625 299.40625 24.890625Q298.04688 24.890625 297.23438 24.046875Q296.4375 23.203125 296.4375 21.6875Q296.4375 20.125 297.25 19.265625Q298.0625 18.390625 299.34375 18.390625Q300.59375 18.390625 301.375 19.234375Q302.17188 20.078125 302.17188 21.625Q302.17188 21.71875 302.17188 21.90625L297.53125 21.90625Q297.59375 22.9375 298.10938 23.484375Q298.625 24.015625 299.40625 24.015625Q299.98438 24.015625 300.39062 23.71875Q300.8125 23.40625 301.04688 22.75ZM297.59375 21.046875L301.0625 21.046875Q301.0 20.25 300.67188 19.859375Q300.15625 19.25 299.35938 19.25Q298.625 19.25 298.125 19.734375Q297.64062 20.21875 297.59375 21.046875Z" fill-rule="nonzero"/></svg>