<svg fill="none" stroke-linecap="square" stroke-miterlimit="10" width="1360" height="700" xmlns="http://www.w3.org/2000/svg">
  <path fill="none" d="M0 0h1360v700H0V0Z"/>
  <path stroke="#ccc" stroke-linecap="butt" d="M177.5 654.5h1148M177.5 532.5h1148M177.5 410.5h1148M177.5 289.5h1148M177.5 167.5h1148"/>
  <path stroke="#333" stroke-linecap="butt" d="M177.5 45.5h1148"/>
  <clipPath id="a">
    <path d="M177 45.5h1148v609H177v-609Z"/>
  </clipPath>
  <path clip-path="url(#a)" d="M189 46h-7v590a2 2 0 0 0 2 2h3a2 2 0 0 0 2-2Z"/>
  <path fill="#12436d" clip-path="url(#a)" d="M189 46h-7v590a2 2 0 0 0 2 2h3a2 2 0 0 0 2-2Z"/>
  <path clip-path="url(#a)" d="M200 46h-7v551a2 2 0 0 0 2 2h3a2 2 0 0 0 2-2Z"/>
  <path fill="#12436d" clip-path="url(#a)" d="M200 46h-7v551a2 2 0 0 0 2 2h3a2 2 0 0 0 2-2Z"/>
  <path clip-path="url(#a)" d="M212 46h-7v551a2 2 0 0 0 2 2h3a2 2 0 0 0 2-2Z"/>
  <path fill="#12436d" clip-path="url(#a)" d="M212 46h-7v551a2 2 0 0 0 2 2h3a2 2 0 0 0 2-2Z"/>
  <path clip-path="url(#a)" d="M223 46h-7v551a2 2 0 0 0 2 2h3a2 2 0 0 0 2-2Z"/>
  <path fill="#12436d" clip-path="url(#a)" d="M223 46h-7v551a2 2 0 0 0 2 2h3a2 2 0 0 0 2-2Z"/>
  <path clip-path="url(#a)" d="M234 46h-7v551a2 2 0 0 0 2 2h3a2 2 0 0 0 2-2Z"/>
  <path fill="#12436d" clip-path="url(#a)" d="M234 46h-7v551a2 2 0 0 0 2 2h3a2 2 0 0 0 2-2Z"/>
  <path clip-path="url(#a)" d="M246 46h-7v551a2 2 0 0 0 2 2h3a2 2 0 0 0 2-2Z"/>
  <path fill="#12436d" clip-path="url(#a)" d="M246 46h-7v551a2 2 0 0 0 2 2h3a2 2 0 0 0 2-2Z"/>
  <path clip-path="url(#a)" d="M257 46h-7v540a2 2 0 0 0 2 2h3a2 2 0 0 0 2-2Z"/>
  <path fill="#12436d" clip-path="url(#a)" d="M257 46h-7v540a2 2 0 0 0 2 2h3a2 2 0 0 0 2-2Z"/>
  <path clip-path="url(#a)" d="M269 46h-7v521a2 2 0 0 0 2 2h3a2 2 0 0 0 2-2Z"/>
  <path fill="#12436d" clip-path="url(#a)" d="M269 46h-7v521a2 2 0 0 0 2 2h3a2 2 0 0 0 2-2Z"/>
  <path clip-path="url(#a)" d="M280 46h-7v441a2 2 0 0 0 2 2h3a2 2 0 0 0 2-2Z"/>
  <path fill="#12436d" clip-path="url(#a)" d="M280 46h-7v441a2 2 0 0 0 2 2h3a2 2 0 0 0 2-2Z"/>
  <path clip-path="url(#a)" d="M292 46h-7v418a2 2 0 0 0 2 2h3a2 2 0 0 0 2-2Z"/>
  <path fill="#12436d" clip-path="url(#a)" d="M292 46h-7v418a2 2 0 0 0 2 2h3a2 2 0 0 0 2-2Z"/>
  <path clip-path="url(#a)" d="M303 46h-7v390a2 2 0 0 0 2 2h3a2 2 0 0 0 2-2Z"/>
  <path fill="#12436d" clip-path="url(#a)" d="M303 46h-7v390a2 2 0 0 0 2 2h3a2 2 0 0 0 2-2Z"/>
  <path clip-path="url(#a)" d="M315 46h-7v362a2 2 0 0 0 2 2h3a2 2 0 0 0 2-2Z"/>
  <path fill="#12436d" clip-path="url(#a)" d="M315 46h-7v362a2 2 0 0 0 2 2h3a2 2 0 0 0 2-2Z"/>
  <path clip-path="url(#a)" d="M326 46h-7v362a2 2 0 0 0 2 2h3a2 2 0 0 0 2-2Z"/>
  <path fill="#12436d" clip-path="url(#a)" d="M326 46h-7v362a2 2 0 0 0 2 2h3a2 2 0 0 0 2-2Z"/>
  <path clip-path="url(#a)" d="M337 46h-7v322a2 2 0 0 0 2 2h3a2 2 0 0 0 2-2Z"/>
  <path fill="#12436d" clip-path="url(#a)" d="M337 46h-7v322a2 2 0 0 0 2 2h3a2 2 0 0 0 2-2Z"/>
  <path clip-path="url(#a)" d="M349 46h-7v322a2 2 0 0 0 2 2h3a2 2 0 0 0 2-2Z"/>
  <path fill="#12436d" clip-path="url(#a)" d="M349 46h-7v322a2 2 0 0 0 2 2h3a2 2 0 0 0 2-2Z"/>
  <path clip-path="url(#a)" d="M360 46h-7v322a2 2 0 0 0 2 2h3a2 2 0 0 0 2-2Z"/>
  <path fill="#12436d" clip-path="url(#a)" d="M360 46h-7v322a2 2 0 0 0 2 2h3a2 2 0 0 0 2-2Z"/>
  <path clip-path="url(#a)" d="M372 46h-7v322a2 2 0 0 0 2 2h3a2 2 0 0 0 2-2Z"/>
  <path fill="#12436d" clip-path="url(#a)" d="M372 46h-7v322a2 2 0 0 0 2 2h3a2 2 0 0 0 2-2Z"/>
  <path clip-path="url(#a)" d="M383 46h-7v322a2 2 0 0 0 2 2h3a2 2 0 0 0 2-2Z"/>
  <path fill="#12436d" clip-path="url(#a)" d="M383 46h-7v322a2 2 0 0 0 2 2h3a2 2 0 0 0 2-2Z"/>
  <path clip-path="url(#a)" d="M395 46h-7v322a2 2 0 0 0 2 2h3a2 2 0 0 0 2-2Z"/>
  <path fill="#12436d" clip-path="url(#a)" d="M395 46h-7v322a2 2 0 0 0 2 2h3a2 2 0 0 0 2-2Z"/>
  <path clip-path="url(#a)" d="M406 46h-7v322a2 2 0 0 0 2 2h3a2 2 0 0 0 2-2Z"/>
  <path fill="#12436d" clip-path="url(#a)" d="M406 46h-7v322a2 2 0 0 0 2 2h3a2 2 0 0 0 2-2Z"/>
  <path clip-path="url(#a)" d="M418 46h-7v322a2 2 0 0 0 2 2h3a2 2 0 0 0 2-2Z"/>
  <path fill="#12436d" clip-path="url(#a)" d="M418 46h-7v322a2 2 0 0 0 2 2h3a2 2 0 0 0 2-2Z"/>
  <path clip-path="url(#a)" d="M429 46h-7v322a2 2 0 0 0 2 2h3a2 2 0 0 0 2-2Z"/>
  <path fill="#12436d" clip-path="url(#a)" d="M429 46h-7v322a2 2 0 0 0 2 2h3a2 2 0 0 0 2-2Z"/>
  <path clip-path="url(#a)" d="M440 46h-7v321a2 2 0 0 0 2 2h3a2 2 0 0 0 2-2Z"/>
  <path fill="#12436d" clip-path="url(#a)" d="M440 46h-7v321a2 2 0 0 0 2 2h3a2 2 0 0 0 2-2Z"/>
  <path clip-path="url(#a)" d="M452 46h-7v321a2 2 0 0 0 2 2h3a2 2 0 0 0 2-2Z"/>
  <path fill="#12436d" clip-path="url(#a)" d="M452 46h-7v321a2 2 0 0 0 2 2h3a2 2 0 0 0 2-2Z"/>
  <path clip-path="url(#a)" d="M463 46h-7v321a2 2 0 0 0 2 2h3a2 2 0 0 0 2-2Z"/>
  <path fill="#12436d" clip-path="url(#a)" d="M463 46h-7v321a2 2 0 0 0 2 2h3a2 2 0 0 0 2-2Z"/>
  <path clip-path="url(#a)" d="M475 46h-7v321a2 2 0 0 0 2 2h3a2 2 0 0 0 2-2Z"/>
  <path fill="#12436d" clip-path="url(#a)" d="M475 46h-7v321a2 2 0 0 0 2 2h3a2 2 0 0 0 2-2Z"/>
  <path clip-path="url(#a)" d="M486 46h-7v321a2 2 0 0 0 2 2h3a2 2 0 0 0 2-2Z"/>
  <path fill="#12436d" clip-path="url(#a)" d="M486 46h-7v321a2 2 0 0 0 2 2h3a2 2 0 0 0 2-2Z"/>
  <path clip-path="url(#a)" d="M498 46h-7v321a2 2 0 0 0 2 2h3a2 2 0 0 0 2-2Z"/>
  <path fill="#12436d" clip-path="url(#a)" d="M498 46h-7v321a2 2 0 0 0 2 2h3a2 2 0 0 0 2-2Z"/>
  <path clip-path="url(#a)" d="M509 46h-7v321a2 2 0 0 0 2 2h3a2 2 0 0 0 2-2Z"/>
  <path fill="#12436d" clip-path="url(#a)" d="M509 46h-7v321a2 2 0 0 0 2 2h3a2 2 0 0 0 2-2Z"/>
  <path clip-path="url(#a)" d="M520 46h-7v295a2 2 0 0 0 2 2h3a2 2 0 0 0 2-2Z"/>
  <path fill="#12436d" clip-path="url(#a)" d="M520 46h-7v295a2 2 0 0 0 2 2h3a2 2 0 0 0 2-2Z"/>
  <path clip-path="url(#a)" d="M532 46h-7v295a2 2 0 0 0 2 2h3a2 2 0 0 0 2-2Z"/>
  <path fill="#12436d" clip-path="url(#a)" d="M532 46h-7v295a2 2 0 0 0 2 2h3a2 2 0 0 0 2-2Z"/>
  <path clip-path="url(#a)" d="M543 46h-7v295a2 2 0 0 0 2 2h3a2 2 0 0 0 2-2Z"/>
  <path fill="#12436d" clip-path="url(#a)" d="M543 46h-7v295a2 2 0 0 0 2 2h3a2 2 0 0 0 2-2Z"/>
  <path clip-path="url(#a)" d="M555 46h-7v295a2 2 0 0 0 2 2h3a2 2 0 0 0 2-2Z"/>
  <path fill="#12436d" clip-path="url(#a)" d="M555 46h-7v295a2 2 0 0 0 2 2h3a2 2 0 0 0 2-2Z"/>
  <path clip-path="url(#a)" d="M566 46h-7v295a2 2 0 0 0 2 2h3a2 2 0 0 0 2-2Z"/>
  <path fill="#12436d" clip-path="url(#a)" d="M566 46h-7v295a2 2 0 0 0 2 2h3a2 2 0 0 0 2-2Z"/>
  <path clip-path="url(#a)" d="M578 46h-7v295a2 2 0 0 0 2 2h3a2 2 0 0 0 2-2Z"/>
  <path fill="#12436d" clip-path="url(#a)" d="M578 46h-7v295a2 2 0 0 0 2 2h3a2 2 0 0 0 2-2Z"/>
  <path clip-path="url(#a)" d="M589 46h-7v295a2 2 0 0 0 2 2h3a2 2 0 0 0 2-2Z"/>
  <path fill="#12436d" clip-path="url(#a)" d="M589 46h-7v295a2 2 0 0 0 2 2h3a2 2 0 0 0 2-2Z"/>
  <path clip-path="url(#a)" d="M601 46h-7v295a2 2 0 0 0 2 2h3a2 2 0 0 0 2-2Z"/>
  <path fill="#12436d" clip-path="url(#a)" d="M601 46h-7v295a2 2 0 0 0 2 2h3a2 2 0 0 0 2-2Z"/>
  <path clip-path="url(#a)" d="M612 46h-7v295a2 2 0 0 0 2 2h3a2 2 0 0 0 2-2Z"/>
  <path fill="#12436d" clip-path="url(#a)" d="M612 46h-7v295a2 2 0 0 0 2 2h3a2 2 0 0 0 2-2Z"/>
  <path clip-path="url(#a)" d="M623 46h-7v295a2 2 0 0 0 2 2h3a2 2 0 0 0 2-2Z"/>
  <path fill="#12436d" clip-path="url(#a)" d="M623 46h-7v295a2 2 0 0 0 2 2h3a2 2 0 0 0 2-2Z"/>
  <path clip-path="url(#a)" d="M635 46h-7v295a2 2 0 0 0 2 2h3a2 2 0 0 0 2-2Z"/>
  <path fill="#12436d" clip-path="url(#a)" d="M635 46h-7v295a2 2 0 0 0 2 2h3a2 2 0 0 0 2-2Z"/>
  <path clip-path="url(#a)" d="M646 46h-7v289a2 2 0 0 0 2 2h3a2 2 0 0 0 2-2Z"/>
  <path fill="#12436d" clip-path="url(#a)" d="M646 46h-7v289a2 2 0 0 0 2 2h3a2 2 0 0 0 2-2Z"/>
  <path clip-path="url(#a)" d="M658 46h-7v268a2 2 0 0 0 2 2h3a2 2 0 0 0 2-2Z"/>
  <path fill="#12436d" clip-path="url(#a)" d="M658 46h-7v268a2 2 0 0 0 2 2h3a2 2 0 0 0 2-2Z"/>
  <path clip-path="url(#a)" d="M669 46h-7v268a2 2 0 0 0 2 2h3a2 2 0 0 0 2-2Z"/>
  <path fill="#12436d" clip-path="url(#a)" d="M669 46h-7v268a2 2 0 0 0 2 2h3a2 2 0 0 0 2-2Z"/>
  <path clip-path="url(#a)" d="M681 46h-7v268a2 2 0 0 0 2 2h3a2 2 0 0 0 2-2Z"/>
  <path fill="#12436d" clip-path="url(#a)" d="M681 46h-7v268a2 2 0 0 0 2 2h3a2 2 0 0 0 2-2Z"/>
  <path clip-path="url(#a)" d="M692 46h-7v268a2 2 0 0 0 2 2h3a2 2 0 0 0 2-2Z"/>
  <path fill="#12436d" clip-path="url(#a)" d="M692 46h-7v268a2 2 0 0 0 2 2h3a2 2 0 0 0 2-2Z"/>
  <path clip-path="url(#a)" d="M704 46h-7v268a2 2 0 0 0 2 2h3a2 2 0 0 0 2-2Z"/>
  <path fill="#12436d" clip-path="url(#a)" d="M704 46h-7v268a2 2 0 0 0 2 2h3a2 2 0 0 0 2-2Z"/>
  <path clip-path="url(#a)" d="M715 46h-7v268a2 2 0 0 0 2 2h3a2 2 0 0 0 2-2Z"/>
  <path fill="#12436d" clip-path="url(#a)" d="M715 46h-7v268a2 2 0 0 0 2 2h3a2 2 0 0 0 2-2Z"/>
  <path clip-path="url(#a)" d="M726 46h-7v268a2 2 0 0 0 2 2h3a2 2 0 0 0 2-2Z"/>
  <path fill="#12436d" clip-path="url(#a)" d="M726 46h-7v268a2 2 0 0 0 2 2h3a2 2 0 0 0 2-2Z"/>
  <path clip-path="url(#a)" d="M738 46h-7v268a2 2 0 0 0 2 2h3a2 2 0 0 0 2-2Z"/>
  <path fill="#12436d" clip-path="url(#a)" d="M738 46h-7v268a2 2 0 0 0 2 2h3a2 2 0 0 0 2-2Z"/>
  <path clip-path="url(#a)" d="M749 46h-7v261a2 2 0 0 0 2 2h3a2 2 0 0 0 2-2Z"/>
  <path fill="#12436d" clip-path="url(#a)" d="M749 46h-7v261a2 2 0 0 0 2 2h3a2 2 0 0 0 2-2Z"/>
  <path clip-path="url(#a)" d="M761 46h-7v260a2 2 0 0 0 2 2h3a2 2 0 0 0 2-2Z"/>
  <path fill="#12436d" clip-path="url(#a)" d="M761 46h-7v260a2 2 0 0 0 2 2h3a2 2 0 0 0 2-2Z"/>
  <path clip-path="url(#a)" d="M772 46h-7v260a2 2 0 0 0 2 2h3a2 2 0 0 0 2-2Z"/>
  <path fill="#12436d" clip-path="url(#a)" d="M772 46h-7v260a2 2 0 0 0 2 2h3a2 2 0 0 0 2-2Z"/>
  <path clip-path="url(#a)" d="M784 46h-7v260a2 2 0 0 0 2 2h3a2 2 0 0 0 2-2Z"/>
  <path fill="#12436d" clip-path="url(#a)" d="M784 46h-7v260a2 2 0 0 0 2 2h3a2 2 0 0 0 2-2Z"/>
  <path clip-path="url(#a)" d="M795 46h-7v260a2 2 0 0 0 2 2h3a2 2 0 0 0 2-2Z"/>
  <path fill="#12436d" clip-path="url(#a)" d="M795 46h-7v260a2 2 0 0 0 2 2h3a2 2 0 0 0 2-2Z"/>
  <path clip-path="url(#a)" d="M806 46h-7v260a2 2 0 0 0 2 2h3a2 2 0 0 0 2-2Z"/>
  <path fill="#12436d" clip-path="url(#a)" d="M806 46h-7v260a2 2 0 0 0 2 2h3a2 2 0 0 0 2-2Z"/>
  <path clip-path="url(#a)" d="M818 46h-7v260a2 2 0 0 0 2 2h3a2 2 0 0 0 2-2Z"/>
  <path fill="#12436d" clip-path="url(#a)" d="M818 46h-7v260a2 2 0 0 0 2 2h3a2 2 0 0 0 2-2Z"/>
  <path clip-path="url(#a)" d="M829 46h-7v254a2 2 0 0 0 2 2h3a2 2 0 0 0 2-2Z"/>
  <path fill="#12436d" clip-path="url(#a)" d="M829 46h-7v254a2 2 0 0 0 2 2h3a2 2 0 0 0 2-2Z"/>
  <path clip-path="url(#a)" d="M841 46h-7v254a2 2 0 0 0 2 2h3a2 2 0 0 0 2-2Z"/>
  <path fill="#12436d" clip-path="url(#a)" d="M841 46h-7v254a2 2 0 0 0 2 2h3a2 2 0 0 0 2-2Z"/>
  <path clip-path="url(#a)" d="M852 46h-7v254a2 2 0 0 0 2 2h3a2 2 0 0 0 2-2Z"/>
  <path fill="#12436d" clip-path="url(#a)" d="M852 46h-7v254a2 2 0 0 0 2 2h3a2 2 0 0 0 2-2Z"/>
  <path clip-path="url(#a)" d="M864 46h-7v254a2 2 0 0 0 2 2h3a2 2 0 0 0 2-2Z"/>
  <path fill="#12436d" clip-path="url(#a)" d="M864 46h-7v254a2 2 0 0 0 2 2h3a2 2 0 0 0 2-2Z"/>
  <path clip-path="url(#a)" d="M875 46h-7v254a2 2 0 0 0 2 2h3a2 2 0 0 0 2-2Z"/>
  <path fill="#12436d" clip-path="url(#a)" d="M875 46h-7v254a2 2 0 0 0 2 2h3a2 2 0 0 0 2-2Z"/>
  <path clip-path="url(#a)" d="M887 46h-7v254a2 2 0 0 0 2 2h3a2 2 0 0 0 2-2Z"/>
  <path fill="#12436d" clip-path="url(#a)" d="M887 46h-7v254a2 2 0 0 0 2 2h3a2 2 0 0 0 2-2Z"/>
  <path clip-path="url(#a)" d="M898 46h-7v254a2 2 0 0 0 2 2h3a2 2 0 0 0 2-2Z"/>
  <path fill="#12436d" clip-path="url(#a)" d="M898 46h-7v254a2 2 0 0 0 2 2h3a2 2 0 0 0 2-2Z"/>
  <path clip-path="url(#a)" d="M909 46h-7v254a2 2 0 0 0 2 2h3a2 2 0 0 0 2-2Z"/>
  <path fill="#12436d" clip-path="url(#a)" d="M909 46h-7v254a2 2 0 0 0 2 2h3a2 2 0 0 0 2-2Z"/>
  <path clip-path="url(#a)" d="M921 46h-7v254a2 2 0 0 0 2 2h3a2 2 0 0 0 2-2Z"/>
  <path fill="#12436d" clip-path="url(#a)" d="M921 46h-7v254a2 2 0 0 0 2 2h3a2 2 0 0 0 2-2Z"/>
  <path clip-path="url(#a)" d="M932 46h-7v254a2 2 0 0 0 2 2h3a2 2 0 0 0 2-2Z"/>
  <path fill="#12436d" clip-path="url(#a)" d="M932 46h-7v254a2 2 0 0 0 2 2h3a2 2 0 0 0 2-2Z"/>
  <path clip-path="url(#a)" d="M944 46h-7v254a2 2 0 0 0 2 2h3a2 2 0 0 0 2-2Z"/>
  <path fill="#12436d" clip-path="url(#a)" d="M944 46h-7v254a2 2 0 0 0 2 2h3a2 2 0 0 0 2-2Z"/>
  <path clip-path="url(#a)" d="M955 46h-7v254a2 2 0 0 0 2 2h3a2 2 0 0 0 2-2Z"/>
  <path fill="#12436d" clip-path="url(#a)" d="M955 46h-7v254a2 2 0 0 0 2 2h3a2 2 0 0 0 2-2Z"/>
  <path clip-path="url(#a)" d="M967 46h-7v254a2 2 0 0 0 2 2h3a2 2 0 0 0 2-2Z"/>
  <path fill="#12436d" clip-path="url(#a)" d="M967 46h-7v254a2 2 0 0 0 2 2h3a2 2 0 0 0 2-2Z"/>
  <path clip-path="url(#a)" d="M978 46h-7v245a2 2 0 0 0 2 2h3a2 2 0 0 0 2-2Z"/>
  <path fill="#12436d" clip-path="url(#a)" d="M978 46h-7v245a2 2 0 0 0 2 2h3a2 2 0 0 0 2-2Z"/>
  <path clip-path="url(#a)" d="M990 46h-7v233a2 2 0 0 0 2 2h3a2 2 0 0 0 2-2Z"/>
  <path fill="#12436d" clip-path="url(#a)" d="M990 46h-7v233a2 2 0 0 0 2 2h3a2 2 0 0 0 2-2Z"/>
  <path clip-path="url(#a)" d="M1001 46h-7v233a2 2 0 0 0 2 2h3a2 2 0 0 0 2-2Z"/>
  <path fill="#12436d" clip-path="url(#a)" d="M1001 46h-7v233a2 2 0 0 0 2 2h3a2 2 0 0 0 2-2Z"/>
  <path clip-path="url(#a)" d="M1012 46h-7v231a2 2 0 0 0 2 2h3a2 2 0 0 0 2-2Z"/>
  <path fill="#12436d" clip-path="url(#a)" d="M1012 46h-7v231a2 2 0 0 0 2 2h3a2 2 0 0 0 2-2Z"/>
  <path clip-path="url(#a)" d="M1024 46h-7v231a2 2 0 0 0 2 2h3a2 2 0 0 0 2-2Z"/>
  <path fill="#12436d" clip-path="url(#a)" d="M1024 46h-7v231a2 2 0 0 0 2 2h3a2 2 0 0 0 2-2Z"/>
  <path clip-path="url(#a)" d="M1035 46h-7v231a2 2 0 0 0 2 2h3a2 2 0 0 0 2-2Z"/>
  <path fill="#12436d" clip-path="url(#a)" d="M1035 46h-7v231a2 2 0 0 0 2 2h3a2 2 0 0 0 2-2Z"/>
  <path clip-path="url(#a)" d="M1047 46h-7v224a2 2 0 0 0 2 2h3a2 2 0 0 0 2-2Z"/>
  <path fill="#12436d" clip-path="url(#a)" d="M1047 46h-7v224a2 2 0 0 0 2 2h3a2 2 0 0 0 2-2Z"/>
  <path clip-path="url(#a)" d="M1058 46h-7v224a2 2 0 0 0 2 2h3a2 2 0 0 0 2-2Z"/>
  <path fill="#12436d" clip-path="url(#a)" d="M1058 46h-7v224a2 2 0 0 0 2 2h3a2 2 0 0 0 2-2Z"/>
  <path clip-path="url(#a)" d="M1070 46h-7v224a2 2 0 0 0 2 2h3a2 2 0 0 0 2-2Z"/>
  <path fill="#12436d" clip-path="url(#a)" d="M1070 46h-7v224a2 2 0 0 0 2 2h3a2 2 0 0 0 2-2Z"/>
  <path clip-path="url(#a)" d="M1081 46h-7v224a2 2 0 0 0 2 2h3a2 2 0 0 0 2-2Z"/>
  <path fill="#12436d" clip-path="url(#a)" d="M1081 46h-7v224a2 2 0 0 0 2 2h3a2 2 0 0 0 2-2Z"/>
  <path clip-path="url(#a)" d="M1092 46h-7v224a2 2 0 0 0 2 2h3a2 2 0 0 0 2-2Z"/>
  <path fill="#12436d" clip-path="url(#a)" d="M1092 46h-7v224a2 2 0 0 0 2 2h3a2 2 0 0 0 2-2Z"/>
  <path clip-path="url(#a)" d="M1104 46h-7v224a2 2 0 0 0 2 2h3a2 2 0 0 0 2-2Z"/>
  <path fill="#12436d" clip-path="url(#a)" d="M1104 46h-7v224a2 2 0 0 0 2 2h3a2 2 0 0 0 2-2Z"/>
  <path clip-path="url(#a)" d="M1115 46h-7v224a2 2 0 0 0 2 2h3a2 2 0 0 0 2-2Z"/>
  <path fill="#12436d" clip-path="url(#a)" d="M1115 46h-7v224a2 2 0 0 0 2 2h3a2 2 0 0 0 2-2Z"/>
  <path clip-path="url(#a)" d="M1127 46h-7v224a2 2 0 0 0 2 2h3a2 2 0 0 0 2-2Z"/>
  <path fill="#12436d" clip-path="url(#a)" d="M1127 46h-7v224a2 2 0 0 0 2 2h3a2 2 0 0 0 2-2Z"/>
  <path clip-path="url(#a)" d="M1138 46h-7v224a2 2 0 0 0 2 2h3a2 2 0 0 0 2-2Z"/>
  <path fill="#12436d" clip-path="url(#a)" d="M1138 46h-7v224a2 2 0 0 0 2 2h3a2 2 0 0 0 2-2Z"/>
  <path clip-path="url(#a)" d="M1150 46h-7v198a2 2 0 0 0 2 2h3a2 2 0 0 0 2-2Z"/>
  <path fill="#12436d" clip-path="url(#a)" d="M1150 46h-7v198a2 2 0 0 0 2 2h3a2 2 0 0 0 2-2Z"/>
  <path clip-path="url(#a)" d="M1161 46h-7v195a2 2 0 0 0 2 2h3a2 2 0 0 0 2-2Z"/>
  <path fill="#12436d" clip-path="url(#a)" d="M1161 46h-7v195a2 2 0 0 0 2 2h3a2 2 0 0 0 2-2Z"/>
  <path clip-path="url(#a)" d="M1173 46h-7v195a2 2 0 0 0 2 2h3a2 2 0 0 0 2-2Z"/>
  <path fill="#12436d" clip-path="url(#a)" d="M1173 46h-7v195a2 2 0 0 0 2 2h3a2 2 0 0 0 2-2Z"/>
  <path clip-path="url(#a)" d="M1184 46h-7v176a2 2 0 0 0 2 2h3a2 2 0 0 0 2-2Z"/>
  <path fill="#12436d" clip-path="url(#a)" d="M1184 46h-7v176a2 2 0 0 0 2 2h3a2 2 0 0 0 2-2Z"/>
  <path clip-path="url(#a)" d="M1195 46h-7v176a2 2 0 0 0 2 2h3a2 2 0 0 0 2-2Z"/>
  <path fill="#12436d" clip-path="url(#a)" d="M1195 46h-7v176a2 2 0 0 0 2 2h3a2 2 0 0 0 2-2Z"/>
  <path clip-path="url(#a)" d="M1207 46h-7v165a2 2 0 0 0 2 2h3a2 2 0 0 0 2-2Z"/>
  <path fill="#12436d" clip-path="url(#a)" d="M1207 46h-7v165a2 2 0 0 0 2 2h3a2 2 0 0 0 2-2Z"/>
  <path clip-path="url(#a)" d="M1218 46h-7v141a2 2 0 0 0 2 2h3a2 2 0 0 0 2-2Z"/>
  <path fill="#12436d" clip-path="url(#a)" d="M1218 46h-7v141a2 2 0 0 0 2 2h3a2 2 0 0 0 2-2Z"/>
  <path clip-path="url(#a)" d="M1230 46h-7v122a2 2 0 0 0 2 2h3a2 2 0 0 0 2-2Z"/>
  <path fill="#12436d" clip-path="url(#a)" d="M1230 46h-7v122a2 2 0 0 0 2 2h3a2 2 0 0 0 2-2Z"/>
  <path clip-path="url(#a)" d="M1241 46h-7v122a2 2 0 0 0 2 2h3a2 2 0 0 0 2-2Z"/>
  <path fill="#12436d" clip-path="url(#a)" d="M1241 46h-7v122a2 2 0 0 0 2 2h3a2 2 0 0 0 2-2Z"/>
  <path clip-path="url(#a)" d="M1253 46h-7v122a2 2 0 0 0 2 2h3a2 2 0 0 0 2-2Z"/>
  <path fill="#12436d" clip-path="url(#a)" d="M1253 46h-7v122a2 2 0 0 0 2 2h3a2 2 0 0 0 2-2Z"/>
  <path clip-path="url(#a)" d="M1264 46h-7v108a2 2 0 0 0 2 2h3a2 2 0 0 0 2-2Z"/>
  <path fill="#12436d" clip-path="url(#a)" d="M1264 46h-7v108a2 2 0 0 0 2 2h3a2 2 0 0 0 2-2Z"/>
  <path clip-path="url(#a)" d="M1276 46h-7v108a2 2 0 0 0 2 2h3a2 2 0 0 0 2-2Z"/>
  <path fill="#12436d" clip-path="url(#a)" d="M1276 46h-7v108a2 2 0 0 0 2 2h3a2 2 0 0 0 2-2Z"/>
  <path clip-path="url(#a)" d="M1287 46h-7v108a2 2 0 0 0 2 2h3a2 2 0 0 0 2-2Z"/>
  <path fill="#12436d" clip-path="url(#a)" d="M1287 46h-7v108a2 2 0 0 0 2 2h3a2 2 0 0 0 2-2Z"/>
  <path clip-path="url(#a)" d="M1298 46h-7v62a2 2 0 0 0 2 2h3a2 2 0 0 0 2-2Z"/>
  <path fill="#12436d" clip-path="url(#a)" d="M1298 46h-7v62a2 2 0 0 0 2 2h3a2 2 0 0 0 2-2Z"/>
  <path clip-path="url(#a)" d="M1310 46h-7v42a2 2 0 0 0 2 2h3a2 2 0 0 0 2-2Z"/>
  <path fill="#12436d" clip-path="url(#a)" d="M1310 46h-7v42a2 2 0 0 0 2 2h3a2 2 0 0 0 2-2Z"/>
  <path clip-path="url(#a)" d="M1321 46h-7v42a2 2 0 0 0 2 2h3a2 2 0 0 0 2-2Z"/>
  <path fill="#12436d" clip-path="url(#a)" d="M1321 46h-7v42a2 2 0 0 0 2 2h3a2 2 0 0 0 2-2Z"/>
  <path fill="#000" d="M52 452.11H39.11v-4.438q0-1.5.187-2.297.25-1.11.922-1.89.86-1.016 2.203-1.516 1.344-.516 3.062-.516 1.47 0 2.61.344 1.125.344 1.875.89.734.532 1.172 1.172.422.625.64 1.532.219.906.219 2.078v4.64Zm-1.516-1.704v-2.75q0-1.281-.234-2-.25-.719-.672-1.156-.61-.61-1.625-.938-1.031-.343-2.5-.343-2.016 0-3.094.672-1.093.656-1.453 1.609-.265.672-.265 2.203v2.703h9.843Zm-9.547-11.11H39.11v-1.577h1.828v1.578Zm11.063 0h-9.328v-1.577H52v1.578Zm0-4.358h-8.11v1.39h-1.218v-1.39h-1q-.938 0-1.39-.172-.626-.22-1-.797-.391-.578-.391-1.625 0-.656.156-1.469l1.39.234q-.093.5-.093.938 0 .719.312 1.015.297.297 1.14.297h.876v-1.812h1.219v1.812H52v1.579Zm0-5h-8.11v1.39h-1.218v-1.39h-1q-.938 0-1.39-.172-.626-.22-1-.797-.391-.578-.391-1.625 0-.656.156-1.469l1.39.234q-.093.5-.093.938 0 .719.312 1.015.297.297 1.14.297h.876v-1.812h1.219v1.812H52v1.579Zm-3-11.016.203-1.64q1.422.39 2.219 1.437.797 1.047.797 2.672 0 2.046-1.266 3.25-1.266 1.203-3.547 1.203-2.343 0-3.64-1.203-1.313-1.22-1.313-3.157 0-1.875 1.281-3.062 1.266-1.188 3.578-1.188.141 0 .422.016v6.953q1.547-.078 2.36-.86.812-.796.812-1.952 0-.875-.453-1.485-.453-.625-1.453-.984Zm-2.563 5.203v-5.219q-1.171.11-1.765.594-.922.766-.922 1.969 0 1.078.734 1.828.735.734 1.953.828ZM52 415.328h-9.328v-1.422h1.406q-.984-.547-1.297-1-.328-.469-.328-1.015 0-.813.516-1.625l1.468.53q-.343.595-.343 1.173 0 .515.312.937.313.406.86.578.843.266 1.843.266H52v1.578Zm-3-12.406.203-1.64q1.422.39 2.219 1.437.797 1.047.797 2.672 0 2.046-1.266 3.25-1.266 1.203-3.547 1.203-2.343 0-3.64-1.203-1.313-1.22-1.313-3.157 0-1.875 1.281-3.062 1.266-1.188 3.578-1.188.141 0 .422.016v6.953q1.547-.078 2.36-.86.812-.796.812-1.952 0-.875-.453-1.485-.453-.625-1.453-.984Zm-2.563 5.203v-5.219q-1.171.11-1.765.594-.922.766-.922 1.969 0 1.078.734 1.828.735.734 1.953.828ZM52 399.312h-9.328v-1.421H44q-1.547-1.032-1.547-2.97 0-.843.313-1.546.297-.719.797-1.063.484-.359 1.156-.5.437-.078 1.547-.078H52v1.579h-5.672q-.969 0-1.453.187-.484.172-.766.656-.28.469-.28 1.094 0 1.016.64 1.75t2.437.734H52v1.579Zm-3.422-16.093.203-1.547q1.61.25 2.532 1.297.906 1.047.906 2.578 0 1.922-1.25 3.094-1.266 1.156-3.594 1.156-1.516 0-2.64-.5-1.141-.5-1.704-1.516-.578-1.031-.578-2.234 0-1.531.781-2.485.766-.968 2.172-1.25l.235 1.547q-.938.22-1.407.782-.484.546-.484 1.343 0 1.188.86 1.938.859.75 2.718.75 1.875 0 2.734-.719.844-.719.844-1.89 0-.922-.562-1.547-.578-.625-1.766-.797Zm.422-9.297.203-1.64q1.422.39 2.219 1.437.797 1.047.797 2.672 0 2.046-1.266 3.25-1.266 1.203-3.547 1.203-2.343 0-3.64-1.203-1.313-1.22-1.313-3.157 0-1.875 1.281-3.062 1.266-1.188 3.578-1.188.141 0 .422.016v6.953q1.547-.078 2.36-.86.812-.796.812-1.952 0-.875-.453-1.485-.453-.625-1.453-.984Zm-2.563 5.203v-5.219q-1.171.11-1.765.594-.922.766-.922 1.969 0 1.078.734 1.828.735.734 1.953.828Zm-5.5-13.828H39.11v-1.578h1.828v1.578Zm11.063 0h-9.328v-1.578H52v1.578Zm0-3.985h-9.328v-1.421H44q-1.547-1.032-1.547-2.97 0-.843.313-1.546.297-.719.797-1.063.484-.359 1.156-.5.437-.078 1.547-.078H52v1.579h-5.672q-.969 0-1.453.187-.484.172-.766.656-.28.469-.28 1.094 0 1.016.64 1.75t2.437.734H52v1.579Zm-4.516-24.39.422-1.703q2.11.531 3.219 1.922 1.094 1.39 1.094 3.406 0 2.078-.844 3.39-.86 1.297-2.453 1.985-1.61.687-3.469.687-2 0-3.5-.765-1.5-.781-2.281-2.203-.781-1.422-.781-3.125 0-1.922.984-3.235.984-1.328 2.766-1.844l.406 1.672q-1.406.454-2.047 1.313-.64.844-.64 2.14 0 1.485.718 2.485.703.984 1.906 1.39 1.188.407 2.47.407 1.64 0 2.874-.469 1.219-.484 1.828-1.5.61-1.016.61-2.188 0-1.437-.828-2.421-.829-1-2.454-1.344Zm.375-3.235-.14-1.609q.968-.11 1.593-.515.61-.422 1-1.297.376-.891.376-1.985 0-.984-.282-1.719-.297-.75-.797-1.109-.515-.375-1.109-.375-.61 0-1.063.36-.453.343-.75 1.156-.203.515-.624 2.297-.438 1.765-.813 2.484-.484.922-1.203 1.375-.719.453-1.594.453-.984 0-1.828-.547-.844-.562-1.281-1.625-.453-1.062-.453-2.375 0-1.422.468-2.515.453-1.094 1.36-1.688.89-.594 2.031-.625l.125 1.625q-1.234.14-1.86.906-.624.75-.624 2.235 0 1.547.578 2.265.562.704 1.36.704.702 0 1.14-.516.453-.485.922-2.563.468-2.078.828-2.859.515-1.125 1.312-1.656.797-.531 1.828-.531 1.032 0 1.938.593.906.578 1.422 1.688.5 1.094.5 2.484 0 1.75-.5 2.938-.516 1.171-1.532 1.843-1.03.672-2.328.704Zm0-12-.14-1.609q.968-.11 1.593-.515.61-.422 1-1.297.376-.891.376-1.985 0-.984-.282-1.719-.297-.75-.797-1.109-.515-.375-1.109-.375-.61 0-1.063.36-.453.343-.75 1.156-.203.515-.624 2.297-.438 1.765-.813 2.484-.484.922-1.203 1.375-.719.453-1.594.453-.984 0-1.828-.547-.844-.562-1.281-1.625-.453-1.062-.453-2.375 0-1.422.468-2.515.453-1.094 1.36-1.688.89-.594 2.031-.625l.125 1.625q-1.234.14-1.86.906-.624.75-.624 2.235 0 1.547.578 2.265.562.704 1.36.704.702 0 1.14-.516.453-.485.922-2.563.468-2.078.828-2.859.515-1.125 1.312-1.656.797-.531 1.828-.531 1.032 0 1.938.593.906.578 1.422 1.688.5 1.094.5 2.484 0 1.75-.5 2.938-.516 1.171-1.532 1.843-1.03.672-2.328.704ZM52 303.938h-8.11v1.391h-1.218v-1.39h-1q-.938 0-1.39-.172-.626-.22-1-.797-.391-.578-.391-1.625 0-.656.156-1.469l1.39.234q-.093.5-.093.938 0 .719.312 1.015.297.297 1.14.297h.876v-1.812h1.219v1.812H52v1.579Zm-11.063-4.64H39.11v-1.578h1.828v1.578Zm11.063 0h-9.328v-1.578H52v1.578Zm0-3.953H39.11v-1.578H52v1.578Zm-3-10.422.203-1.64q1.422.39 2.219 1.437.797 1.047.797 2.672 0 2.046-1.266 3.25-1.266 1.203-3.547 1.203-2.343 0-3.64-1.203-1.313-1.22-1.313-3.157 0-1.875 1.281-3.062 1.266-1.188 3.578-1.188.141 0 .422.016v6.953q1.547-.078 2.36-.86.812-.796.812-1.952 0-.875-.453-1.485-.453-.625-1.453-.984Zm-2.563 5.203v-5.219q-1.171.11-1.765.594-.922.766-.922 1.969 0 1.078.734 1.828.735.734 1.953.828Zm2.782-13.172-.25-1.578q.937-.125 1.437-.719.5-.61.5-1.687 0-1.094-.437-1.625-.453-.531-1.047-.531-.531 0-.844.468-.203.328-.531 1.625-.438 1.735-.75 2.406-.328.672-.89 1.032-.579.344-1.266.344-.625 0-1.157-.282-.53-.297-.875-.781-.28-.375-.468-1.016-.188-.64-.188-1.359 0-1.11.328-1.938.313-.828.86-1.218.53-.406 1.437-.547l.203 1.547q-.718.11-1.125.61-.406.5-.406 1.421 0 1.094.36 1.563.359.468.843.468.313 0 .563-.203.25-.187.422-.594.078-.25.406-1.406.437-1.672.734-2.328.281-.672.828-1.047.547-.39 1.344-.39t1.5.468q.703.453 1.094 1.328.375.875.375 1.97 0 1.827-.75 2.78-.766.954-2.25 1.22Zm-8.282-9.656H39.11v-1.578h1.828v1.578Zm11.063 0h-9.328v-1.578H52v1.578Zm0-3.156h-1.281l-6.828-5.938q.062 1.016.062 1.781v3.813h-1.281v-7.625h1.047l5.922 5.047 1.078.984q-.078-1.062-.078-2v-4.312H52v8.25Zm-3-15.22.203-1.64q1.422.39 2.219 1.438.797 1.047.797 2.672 0 2.047-1.266 3.25-1.266 1.203-3.547 1.203-2.343 0-3.64-1.203-1.313-1.22-1.313-3.157 0-1.875 1.281-3.062 1.266-1.188 3.578-1.188.141 0 .422.016v6.953q1.547-.078 2.36-.86.812-.796.812-1.952 0-.875-.453-1.485-.453-.625-1.453-.984Zm-2.563 5.204v-5.219q-1.171.11-1.765.594-.922.766-.922 1.969 0 1.078.734 1.828.735.734 1.953.828ZM83.578 657.125v-1.578h4.86v1.578h-4.86ZM100.703 661h-1.578v-10.078q-.578.547-1.5 1.094-.922.53-1.672.812v-1.531q1.328-.625 2.328-1.516 1-.89 1.406-1.718h1.016V661Zm12.36-1.516V661h-8.516q-.016-.578.187-1.094.329-.875 1.032-1.718.718-.844 2.078-1.954 2.094-1.718 2.828-2.718.75-1.016.75-1.907 0-.953-.672-1.593-.672-.641-1.75-.641-1.156 0-1.844.688-.672.687-.687 1.89l-1.625-.172q.172-1.812 1.25-2.765 1.094-.953 2.937-.953 1.844 0 2.922 1.03 1.094 1.032 1.094 2.548 0 .765-.328 1.515-.313.75-1.047 1.578-.734.828-2.438 2.266-1.421 1.203-1.828 1.625-.406.422-.656.86h6.313ZM115.64 661v-1.797h1.796V661h-1.796Zm4.109-3.375 1.656-.14q.188 1.218.86 1.827.671.61 1.625.61 1.14 0 1.921-.86.797-.859.797-2.296 0-1.344-.765-2.125-.75-.782-1.985-.782-.765 0-1.39.344-.61.344-.953.906l-1.485-.203 1.25-6.61h6.406v1.5h-5.14l-.703 3.47q1.172-.813 2.437-.813 1.688 0 2.844 1.172 1.172 1.172 1.172 3 0 1.75-1.031 3.031-1.235 1.563-3.375 1.563-1.766 0-2.875-.985-1.11-.984-1.266-2.609Zm10-2.984q0-2.282.469-3.672.469-1.39 1.39-2.14.938-.766 2.344-.766 1.031 0 1.813.421.78.407 1.28 1.203.517.782.813 1.922.297 1.125.297 3.032 0 2.265-.469 3.672-.468 1.39-1.406 2.156-.922.75-2.328.75-1.875 0-2.937-1.328-1.266-1.61-1.266-5.25Zm1.625 0q0 3.172.734 4.234.75 1.047 1.844 1.047 1.078 0 1.828-1.047.75-1.063.75-4.234 0-3.172-.75-4.22-.75-1.046-1.844-1.046-1.093 0-1.75.922-.812 1.172-.812 4.344ZM145.313 661v-12.89h1.718v6.39l6.39-6.39h2.313l-5.406 5.218 5.64 7.672h-2.25l-4.577-6.516-2.11 2.047V661h-1.719Zm12 0v-12.89h4.843q1.469 0 2.36.39.89.39 1.39 1.203.516.813.516 1.703 0 .828-.453 1.563-.438.734-1.344 1.172 1.172.343 1.797 1.172.625.828.625 1.953 0 .906-.39 1.687-.376.766-.938 1.188-.563.422-1.406.64-.844.219-2.079.219h-4.922Zm1.718-7.469h2.781q1.125 0 1.625-.156.657-.188.985-.625.328-.453.328-1.14 0-.641-.313-1.126-.312-.484-.89-.656-.563-.187-1.953-.187h-2.563v3.89Zm0 5.953h3.203q.828 0 1.157-.062.593-.11.984-.36.39-.25.64-.718.266-.469.266-1.078 0-.72-.375-1.25-.36-.532-1.015-.75-.657-.22-1.891-.22h-2.969v4.438ZM83.578 535.325v-1.578h4.86v1.578h-4.86Zm17.125 3.875h-1.578v-10.078q-.578.547-1.5 1.094-.922.53-1.672.812v-1.531q1.328-.625 2.328-1.516 1-.89 1.406-1.718h1.016V539.2Zm4.047-6.36q0-2.28.469-3.671.469-1.39 1.39-2.14.938-.766 2.344-.766 1.031 0 1.813.421.78.407 1.28 1.204.516.78.813 1.921.297 1.125.297 3.032 0 2.265-.469 3.672-.468 1.39-1.406 2.156-.922.75-2.328.75-1.875 0-2.937-1.328-1.266-1.61-1.266-5.25Zm1.625 0q0 3.173.734 4.235.75 1.047 1.844 1.047 1.078 0 1.828-1.047.75-1.063.75-4.234 0-3.172-.75-4.22-.75-1.046-1.844-1.046-1.093 0-1.75.922-.812 1.172-.812 4.344Zm9.266 6.36v-1.797h1.796v1.797h-1.796Zm4.109-6.36q0-2.28.469-3.671.469-1.39 1.39-2.14.938-.766 2.344-.766 1.031 0 1.813.421.78.407 1.28 1.204.516.78.813 1.921.297 1.125.297 3.032 0 2.265-.469 3.672-.468 1.39-1.406 2.156-.922.75-2.328.75-1.875 0-2.937-1.328-1.266-1.61-1.266-5.25Zm1.625 0q0 3.173.734 4.235.75 1.047 1.844 1.047 1.078 0 1.828-1.047.75-1.063.75-4.234 0-3.172-.75-4.22-.75-1.046-1.844-1.046-1.093 0-1.75.922-.812 1.172-.812 4.344Zm8.375 0q0-2.28.469-3.671.469-1.39 1.39-2.14.938-.766 2.344-.766 1.031 0 1.813.421.78.407 1.28 1.204.517.78.813 1.921.297 1.125.297 3.032 0 2.265-.469 3.672-.468 1.39-1.406 2.156-.922.75-2.328.75-1.875 0-2.937-1.328-1.266-1.61-1.266-5.25Zm1.625 0q0 3.173.734 4.235.75 1.047 1.844 1.047 1.078 0 1.828-1.047.75-1.063.75-4.234 0-3.172-.75-4.22-.75-1.046-1.844-1.046-1.093 0-1.75.922-.812 1.172-.812 4.344Zm13.938 6.36v-12.89h1.718v6.39l6.39-6.39h2.313l-5.406 5.218 5.64 7.672h-2.25l-4.577-6.516-2.11 2.047v4.469h-1.719Zm12 0v-12.89h4.843q1.469 0 2.36.39.89.39 1.39 1.203.516.813.516 1.703 0 .828-.453 1.563-.438.734-1.344 1.172 1.172.343 1.797 1.172.625.828.625 1.953 0 .906-.39 1.687-.376.766-.938 1.188-.563.422-1.406.64-.844.219-2.079.219h-4.922Zm1.718-7.469h2.781q1.125 0 1.625-.156.657-.188.985-.625.328-.453.328-1.14 0-.641-.313-1.126-.312-.484-.89-.656-.563-.187-1.953-.187h-2.563v3.89Zm0 5.953h3.203q.828 0 1.157-.062.593-.11.984-.36.39-.25.64-.718.266-.469.266-1.078 0-.72-.375-1.25-.36-.532-1.015-.75-.657-.22-1.891-.22h-2.969v4.438ZM93.578 413.525v-1.578h4.86v1.578h-4.86Zm11.281-7.328v-1.516h8.329v1.235q-1.22 1.312-2.438 3.484-1.203 2.156-1.86 4.453-.484 1.625-.609 3.547h-1.625q.031-1.516.594-3.672.578-2.156 1.64-4.156 1.063-2 2.266-3.375h-6.297Zm10.782 11.203v-1.797h1.796v1.797h-1.796Zm4.109-3.375 1.656-.14q.188 1.218.86 1.827.671.61 1.625.61 1.14 0 1.921-.86.797-.859.797-2.296 0-1.344-.765-2.125-.75-.782-1.985-.782-.765 0-1.39.344-.61.344-.953.906l-1.485-.203 1.25-6.61h6.406v1.5h-5.14l-.703 3.47q1.172-.813 2.437-.813 1.688 0 2.844 1.172 1.172 1.172 1.172 3 0 1.75-1.031 3.031-1.235 1.563-3.375 1.563-1.766 0-2.875-.985-1.11-.984-1.266-2.609Zm10-2.984q0-2.282.469-3.672.469-1.39 1.39-2.14.938-.767 2.344-.767 1.031 0 1.813.422.78.407 1.28 1.203.517.782.813 1.922.297 1.125.297 3.032 0 2.265-.469 3.671-.468 1.391-1.406 2.157-.922.75-2.328.75-1.875 0-2.937-1.328-1.266-1.61-1.266-5.25Zm1.625 0q0 3.171.734 4.234.75 1.047 1.844 1.047 1.078 0 1.828-1.047.75-1.063.75-4.234 0-3.172-.75-4.22-.75-1.046-1.844-1.046-1.093 0-1.75.922-.812 1.172-.812 4.344Zm13.938 6.359v-12.89h1.718v6.39l6.39-6.39h2.313l-5.406 5.218 5.64 7.672h-2.25l-4.577-6.516-2.11 2.047v4.469h-1.719Zm12 0v-12.89h4.843q1.469 0 2.36.39.89.39 1.39 1.203.516.813.516 1.703 0 .828-.453 1.563-.438.734-1.344 1.172 1.172.343 1.797 1.171.625.829.625 1.954 0 .906-.39 1.687-.376.766-.938 1.188-.563.421-1.406.64-.844.219-2.079.219h-4.922Zm1.718-7.469h2.781q1.125 0 1.625-.156.657-.188.985-.625.328-.453.328-1.14 0-.641-.313-1.126-.312-.484-.89-.656-.563-.187-1.953-.187h-2.563v3.89Zm0 5.953h3.203q.828 0 1.157-.062.593-.11.984-.36.39-.25.64-.718.266-.469.266-1.078 0-.72-.375-1.25-.36-.532-1.015-.75-.657-.22-1.891-.22h-2.969v4.438ZM93.578 291.725v-1.578h4.86v1.578h-4.86Zm11.172.5 1.656-.14q.188 1.218.86 1.828.671.609 1.625.609 1.14 0 1.921-.86.797-.859.797-2.296 0-1.344-.765-2.125-.75-.782-1.985-.782-.765 0-1.39.344-.61.344-.953.906l-1.485-.203 1.25-6.61h6.406v1.5h-5.14l-.703 3.47q1.172-.813 2.437-.813 1.688 0 2.844 1.172 1.172 1.172 1.172 3 0 1.75-1.031 3.031-1.235 1.563-3.375 1.563-1.766 0-2.875-.985-1.11-.984-1.266-2.609Zm10.89 3.375v-1.797h1.797v1.797h-1.796Zm4.11-6.36q0-2.28.469-3.671.469-1.39 1.39-2.14.938-.766 2.344-.766 1.031 0 1.813.421.78.407 1.28 1.204.516.78.813 1.921.297 1.125.297 3.032 0 2.265-.469 3.672-.468 1.39-1.406 2.156-.922.75-2.328.75-1.875 0-2.937-1.328-1.266-1.61-1.266-5.25Zm1.625 0q0 3.173.734 4.235.75 1.047 1.844 1.047 1.078 0 1.828-1.047.75-1.063.75-4.234 0-3.172-.75-4.22-.75-1.046-1.844-1.046-1.093 0-1.75.922-.812 1.172-.812 4.344Zm8.375 0q0-2.28.469-3.671.469-1.39 1.39-2.14.938-.766 2.344-.766 1.031 0 1.813.421.78.407 1.28 1.204.517.78.813 1.921.297 1.125.297 3.032 0 2.265-.469 3.672-.468 1.39-1.406 2.156-.922.75-2.328.75-1.875 0-2.937-1.328-1.266-1.61-1.266-5.25Zm1.625 0q0 3.173.734 4.235.75 1.047 1.844 1.047 1.078 0 1.828-1.047.75-1.063.75-4.234 0-3.172-.75-4.22-.75-1.046-1.844-1.046-1.093 0-1.75.922-.812 1.172-.812 4.344Zm13.938 6.36v-12.89h1.718v6.39l6.39-6.39h2.313l-5.406 5.218 5.64 7.672h-2.25l-4.577-6.516-2.11 2.047v4.469h-1.719Zm12 0v-12.89h4.843q1.469 0 2.36.39.89.39 1.39 1.203.516.813.516 1.703 0 .828-.453 1.563-.438.734-1.344 1.172 1.172.343 1.797 1.172.625.828.625 1.953 0 .906-.39 1.687-.376.766-.938 1.188-.563.422-1.406.64-.844.219-2.079.219h-4.922Zm1.718-7.469h2.781q1.125 0 1.625-.156.657-.188.985-.625.328-.453.328-1.14 0-.641-.313-1.126-.312-.484-.89-.656-.563-.187-1.953-.187h-2.563v3.89Zm0 5.953h3.203q.828 0 1.157-.062.593-.11.984-.36.39-.25.64-.718.266-.469.266-1.078 0-.72-.375-1.25-.36-.532-1.015-.75-.657-.22-1.891-.22h-2.969v4.438ZM93.578 169.925v-1.578h4.86v1.578h-4.86Zm19.484 2.36v1.515h-8.515q-.016-.578.187-1.094.329-.875 1.032-1.718.718-.844 2.078-1.954 2.094-1.718 2.828-2.718.75-1.016.75-1.907 0-.953-.672-1.593-.672-.641-1.75-.641-1.156 0-1.844.688-.672.687-.687 1.89l-1.625-.172q.172-1.812 1.25-2.765 1.094-.953 2.937-.953 1.844 0 2.922 1.03 1.094 1.032 1.094 2.548 0 .765-.328 1.515-.313.75-1.047 1.578-.734.829-2.438 2.266-1.421 1.203-1.828 1.625-.406.422-.656.86h6.313Zm2.579 1.515v-1.797h1.796v1.797h-1.796Zm4.109-3.375 1.656-.14q.188 1.218.86 1.828.671.609 1.625.609 1.14 0 1.921-.86.797-.859.797-2.296 0-1.344-.765-2.125-.75-.782-1.985-.782-.765 0-1.39.344-.61.344-.953.906l-1.485-.203 1.25-6.61h6.406v1.5h-5.14l-.703 3.47q1.172-.813 2.437-.813 1.688 0 2.844 1.172 1.172 1.172 1.172 3 0 1.75-1.031 3.031-1.235 1.563-3.375 1.563-1.766 0-2.875-.985-1.11-.984-1.266-2.609Zm10-2.984q0-2.282.469-3.672.469-1.39 1.39-2.14.938-.766 2.344-.766 1.031 0 1.813.421.78.407 1.28 1.204.517.78.813 1.921.297 1.125.297 3.032 0 2.265-.469 3.672-.468 1.39-1.406 2.156-.922.75-2.328.75-1.875 0-2.937-1.328-1.266-1.61-1.266-5.25Zm1.625 0q0 3.172.734 4.234.75 1.047 1.844 1.047 1.078 0 1.828-1.047.75-1.063.75-4.234 0-3.172-.75-4.22-.75-1.046-1.844-1.046-1.093 0-1.75.922-.812 1.172-.812 4.344Zm13.938 6.359v-12.89h1.718v6.39l6.39-6.39h2.313l-5.406 5.218 5.64 7.672h-2.25l-4.577-6.516-2.11 2.047v4.469h-1.719Zm12 0v-12.89h4.843q1.469 0 2.36.39.89.39 1.39 1.203.516.813.516 1.703 0 .828-.453 1.563-.438.734-1.344 1.172 1.172.343 1.797 1.172.625.828.625 1.953 0 .906-.39 1.687-.376.766-.938 1.188-.563.422-1.406.64-.844.219-2.079.219h-4.922Zm1.718-7.469h2.781q1.125 0 1.625-.156.657-.188.985-.625.328-.453.328-1.14 0-.641-.313-1.126-.312-.484-.89-.656-.563-.187-1.953-.187h-2.563v3.89Zm0 5.953h3.203q.828 0 1.157-.062.593-.11.984-.36.39-.25.64-.718.266-.469.266-1.078 0-.72-.375-1.25-.36-.532-1.015-.75-.657-.22-1.891-.22h-2.969v4.438ZM104.75 45.64q0-2.28.469-3.671.469-1.39 1.39-2.14.938-.767 2.344-.767 1.031 0 1.813.422.78.407 1.28 1.203.516.782.813 1.922.297 1.125.297 3.032 0 2.265-.469 3.672-.468 1.39-1.406 2.156-.922.75-2.328.75-1.875 0-2.937-1.328-1.266-1.61-1.266-5.25Zm1.625 0q0 3.172.734 4.235.75 1.047 1.844 1.047 1.078 0 1.828-1.047.75-1.063.75-4.234 0-3.172-.75-4.22-.75-1.046-1.844-1.046-1.093 0-1.75.922-.812 1.172-.812 4.344Zm9.266 6.36v-1.797h1.796V52h-1.796Zm4.109-6.36q0-2.28.469-3.671.469-1.39 1.39-2.14.938-.767 2.344-.767 1.031 0 1.813.422.78.407 1.28 1.203.516.782.813 1.922.297 1.125.297 3.032 0 2.265-.469 3.672-.468 1.39-1.406 2.156-.922.75-2.328.75-1.875 0-2.937-1.328-1.266-1.61-1.266-5.25Zm1.625 0q0 3.172.734 4.235.75 1.047 1.844 1.047 1.078 0 1.828-1.047.75-1.063.75-4.234 0-3.172-.75-4.22-.75-1.046-1.844-1.046-1.093 0-1.75.922-.812 1.172-.812 4.344Zm8.375 0q0-2.28.469-3.671.469-1.39 1.39-2.14.938-.767 2.344-.767 1.031 0 1.813.422.78.407 1.28 1.203.517.782.813 1.922.297 1.125.297 3.032 0 2.265-.469 3.672-.468 1.39-1.406 2.156-.922.75-2.328.75-1.875 0-2.937-1.328-1.266-1.61-1.266-5.25Zm1.625 0q0 3.172.734 4.235.75 1.047 1.844 1.047 1.078 0 1.828-1.047.75-1.063.75-4.234 0-3.172-.75-4.22-.75-1.046-1.844-1.046-1.093 0-1.75.922-.812 1.172-.812 4.344ZM145.313 52V39.11h1.718v6.39l6.39-6.39h2.313l-5.406 5.218 5.64 7.672h-2.25l-4.577-6.516-2.11 2.047V52h-1.719Zm12 0V39.11h4.843q1.469 0 2.36.39.89.39 1.39 1.203.516.813.516 1.703 0 .828-.453 1.563-.438.734-1.344 1.172 1.172.343 1.797 1.172.625.828.625 1.953 0 .906-.39 1.687-.376.766-.938 1.188-.563.422-1.406.64-.844.219-2.079.219h-4.922Zm1.718-7.469h2.781q1.125 0 1.625-.156.657-.188.985-.625.328-.453.328-1.14 0-.641-.313-1.126-.312-.484-.89-.656-.563-.187-1.953-.187h-2.563v3.89Zm0 5.953h3.203q.828 0 1.157-.062.593-.11.984-.36.39-.25.64-.718.266-.469.266-1.078 0-.72-.375-1.25-.36-.532-1.015-.75-.657-.22-1.891-.22h-2.969v4.438Z"/>
</svg>
