<svg fill="none" stroke-linecap="square" stroke-miterlimit="10" width="1224" height="777" xmlns="http://www.w3.org/2000/svg">
  <path fill="none" d="M0 0h1224v777H0V0Z"/>
  <path stroke="#333" stroke-linecap="butt" d="M113.5 599.5h896"/>
  <path stroke="#666" stroke-linecap="butt" d="M113.5 489.5h896M113.5 378.5h896M113.5 268.5h896M113.5 157.5h896M113.5 47.5h896"/>
  <path stroke="#ccc" stroke-linecap="butt" d="M113.5 581.5h896M113.5 562.5h896M113.5 544.5h896M113.5 526.5h896M113.5 507.5h896M113.5 470.5h896M113.5 452.5h896M113.5 433.5h896M113.5 415.5h896M113.5 397.5h896M113.5 360.5h896M113.5 341.5h896M113.5 323.5h896M113.5 304.5h896M113.5 286.5h896M113.5 249.5h896M113.5 231.5h896M113.5 212.5h896M113.5 194.5h896M113.5 175.5h896M113.5 139.5h896M113.5 120.5h896M113.5 102.5h896M113.5 83.5h896M113.5 65.5h896"/>
  <path stroke="#000" stroke-linecap="butt" d="M113.5 599.5v-552"/>
  <clipPath id="a">
    <path d="M113.53 47.015h895.509v552.751h-895.51V47.015Z"/>
  </clipPath>
  <path clip-path="url(#a)" d="M193 600h-51V432h51Z"/>
  <path fill="#12436d" clip-path="url(#a)" d="M193 600h-51V432h51Z"/>
  <path clip-path="url(#a)" d="M272 600h-51V432h51Z"/>
  <path fill="#12436d" clip-path="url(#a)" d="M272 600h-51V432h51Z"/>
  <path clip-path="url(#a)" d="M351 600h-51V432h51Z"/>
  <path fill="#12436d" clip-path="url(#a)" d="M351 600h-51V432h51Z"/>
  <path clip-path="url(#a)" d="M429 600h-51V432h51Z"/>
  <path fill="#12436d" clip-path="url(#a)" d="M429 600h-51V432h51Z"/>
  <path clip-path="url(#a)" d="M508 600h-51V432h51Z"/>
  <path fill="#12436d" clip-path="url(#a)" d="M508 600h-51V432h51Z"/>
  <path clip-path="url(#a)" d="M587 600h-51V432h51Z"/>
  <path fill="#12436d" clip-path="url(#a)" d="M587 600h-51V432h51Z"/>
  <path clip-path="url(#a)" d="M666 600h-51V432h51Z"/>
  <path fill="#12436d" clip-path="url(#a)" d="M666 600h-51V432h51Z"/>
  <path clip-path="url(#a)" d="M745 600h-51V432h51Z"/>
  <path fill="#12436d" clip-path="url(#a)" d="M745 600h-51V432h51Z"/>
  <path clip-path="url(#a)" d="M824 600h-51V432h51Z"/>
  <path fill="#12436d" clip-path="url(#a)" d="M824 600h-51V432h51Z"/>
  <path clip-path="url(#a)" d="M903 600h-51V432h51Z"/>
  <path fill="#12436d" clip-path="url(#a)" d="M903 600h-51V432h51Z"/>
  <path clip-path="url(#a)" d="M982 600h-51V432h51Z"/>
  <path fill="#12436d" clip-path="url(#a)" d="M982 600h-51V432h51Z"/>
  <path clip-path="url(#a)" d="M193 432h-51v-64h51Z"/>
  <path fill="#28a197" clip-path="url(#a)" d="M193 432h-51v-64h51Z"/>
  <path clip-path="url(#a)" d="M272 432h-51v-17h51Z"/>
  <path fill="#28a197" clip-path="url(#a)" d="M272 432h-51v-17h51Z"/>
  <path clip-path="url(#a)" d="M351 432h-51v-5h51Z"/>
  <path fill="#28a197" clip-path="url(#a)" d="M351 432h-51v-5h51Z"/>
  <path clip-path="url(#a)" d="M429 432h-51v-34h51Z"/>
  <path fill="#28a197" clip-path="url(#a)" d="M429 432h-51v-34h51Z"/>
  <path clip-path="url(#a)" d="M508 432h-51v-38h51Z"/>
  <path fill="#28a197" clip-path="url(#a)" d="M508 432h-51v-38h51Z"/>
  <path clip-path="url(#a)" d="M587 432h-51v-54h51Z"/>
  <path fill="#28a197" clip-path="url(#a)" d="M587 432h-51v-54h51Z"/>
  <path clip-path="url(#a)" d="M666 432h-51v-46h51Z"/>
  <path fill="#28a197" clip-path="url(#a)" d="M666 432h-51v-46h51Z"/>
  <path clip-path="url(#a)" d="M745 432h-51v-95h51Z"/>
  <path fill="#28a197" clip-path="url(#a)" d="M745 432h-51v-95h51Z"/>
  <path clip-path="url(#a)" d="M824 432h-51v-14h51Z"/>
  <path fill="#28a197" clip-path="url(#a)" d="M824 432h-51v-14h51Z"/>
  <path clip-path="url(#a)" d="M903 432h-51v-56h51Z"/>
  <path fill="#28a197" clip-path="url(#a)" d="M903 432h-51v-56h51Z"/>
  <path clip-path="url(#a)" d="M982 432h-51V268h51Z"/>
  <path fill="#28a197" clip-path="url(#a)" d="M982 432h-51V268h51Z"/>
  <path clip-path="url(#a)" d="M193 368h-51V223a2 2 0 0 1 2-2h47a2 2 0 0 1 2 2Z"/>
  <path fill="#801650" clip-path="url(#a)" d="M193 368h-51V223a2 2 0 0 1 2-2h47a2 2 0 0 1 2 2Z"/>
  <path clip-path="url(#a)" d="M272 415h-51v-26a2 2 0 0 1 2-2h47a2 2 0 0 1 2 2Z"/>
  <path fill="#801650" clip-path="url(#a)" d="M272 415h-51v-26a2 2 0 0 1 2-2h47a2 2 0 0 1 2 2Z"/>
  <path clip-path="url(#a)" d="M351 427h-51v-39a2 2 0 0 1 2-2h47a2 2 0 0 1 2 2Z"/>
  <path fill="#801650" clip-path="url(#a)" d="M351 427h-51v-39a2 2 0 0 1 2-2h47a2 2 0 0 1 2 2Z"/>
  <path clip-path="url(#a)" d="M429 398h-51V291a2 2 0 0 1 2-2h47a2 2 0 0 1 2 2Z"/>
  <path fill="#801650" clip-path="url(#a)" d="M429 398h-51V291a2 2 0 0 1 2-2h47a2 2 0 0 1 2 2Z"/>
  <path clip-path="url(#a)" d="M508 394h-51V236a2 2 0 0 1 2-2h47a2 2 0 0 1 2 2Z"/>
  <path fill="#801650" clip-path="url(#a)" d="M508 394h-51V236a2 2 0 0 1 2-2h47a2 2 0 0 1 2 2Z"/>
  <path clip-path="url(#a)" d="M587 378h-51V208a2 2 0 0 1 2-2h47a2 2 0 0 1 2 2Z"/>
  <path fill="#801650" clip-path="url(#a)" d="M587 378h-51V208a2 2 0 0 1 2-2h47a2 2 0 0 1 2 2Z"/>
  <path clip-path="url(#a)" d="M666 386h-51v-4a2 2 0 0 1 2-2h47a2 2 0 0 1 2 2Z"/>
  <path fill="#801650" clip-path="url(#a)" d="M666 386h-51v-4a2 2 0 0 1 2-2h47a2 2 0 0 1 2 2Z"/>
  <path clip-path="url(#a)" d="M745 337h-51v-7a2 2 0 0 1 2-2h47a2 2 0 0 1 2 2Z"/>
  <path fill="#801650" clip-path="url(#a)" d="M745 337h-51v-7a2 2 0 0 1 2-2h47a2 2 0 0 1 2 2Z"/>
  <path clip-path="url(#a)" d="M824 418h-51v-78a2 2 0 0 1 2-2h47a2 2 0 0 1 2 2Z"/>
  <path fill="#801650" clip-path="url(#a)" d="M824 418h-51v-78a2 2 0 0 1 2-2h47a2 2 0 0 1 2 2Z"/>
  <path clip-path="url(#a)" d="M903 376h-51V250a2 2 0 0 1 2-2h47a2 2 0 0 1 2 2Z"/>
  <path fill="#801650" clip-path="url(#a)" d="M903 376h-51V250a2 2 0 0 1 2-2h47a2 2 0 0 1 2 2Z"/>
  <path clip-path="url(#a)" d="M982 268h-51V122a2 2 0 0 1 2-2h47a2 2 0 0 1 2 2Z"/>
  <path fill="#801650" clip-path="url(#a)" d="M982 268h-51V122a2 2 0 0 1 2-2h47a2 2 0 0 1 2 2Z"/>
  <path stroke="#000" stroke-linecap="butt" d="M107.5 599.5h12M107.5 489.5h12M107.5 378.5h12M107.5 268.5h12M107.5 157.5h12M107.5 47.5h12"/>
  <path fill="#000" d="M35.28 599.907q0-2.281.468-3.672.47-1.39 1.39-2.14.938-.766 2.345-.766 1.03 0 1.812.422.781.406 1.281 1.203.516.781.813 1.922.297 1.125.297 3.03 0 2.267-.469 3.673-.469 1.39-1.406 2.156-.922.75-2.328.75-1.875 0-2.938-1.328-1.265-1.61-1.265-5.25Zm1.625 0q0 3.172.734 4.234.75 1.047 1.844 1.047 1.078 0 1.828-1.047.75-1.062.75-4.234 0-3.172-.75-4.219-.75-1.047-1.844-1.047t-1.75.922q-.812 1.172-.812 4.344Zm9.265 6.36v-1.798h1.797v1.797H46.17Zm4.11-6.36q0-2.281.468-3.672.47-1.39 1.39-2.14.938-.766 2.345-.766 1.03 0 1.812.422.781.406 1.281 1.203.516.781.813 1.922.297 1.125.297 3.03 0 2.267-.469 3.673-.469 1.39-1.406 2.156-.922.75-2.328.75-1.875 0-2.938-1.328-1.265-1.61-1.265-5.25Zm1.625 0q0 3.172.734 4.234.75 1.047 1.844 1.047 1.078 0 1.828-1.047.75-1.062.75-4.234 0-3.172-.75-4.219-.75-1.047-1.844-1.047t-1.75.922q-.812 1.172-.812 4.344Zm8.375 0q0-2.281.468-3.672.47-1.39 1.39-2.14.938-.766 2.345-.766 1.03 0 1.812.422.781.406 1.281 1.203.516.781.813 1.922.297 1.125.297 3.03 0 2.267-.469 3.673-.469 1.39-1.406 2.156-.922.75-2.328.75-1.875 0-2.938-1.328-1.265-1.61-1.265-5.25Zm1.625 0q0 3.172.734 4.234.75 1.047 1.844 1.047 1.078 0 1.828-1.047.75-1.062.75-4.234 0-3.172-.75-4.219-.75-1.047-1.844-1.047t-1.75.922q-.812 1.172-.812 4.344Zm13.937 6.36v-12.891h1.719v6.39l6.39-6.39h2.313l-5.406 5.218 5.64 7.672h-2.25l-4.578-6.515-2.11 2.047v4.468h-1.718Zm12 0v-12.891h4.844q1.469 0 2.36.39.89.39 1.39 1.203.515.813.515 1.704 0 .828-.453 1.562-.437.734-1.343 1.172 1.171.344 1.796 1.172t.625 1.953q0 .906-.39 1.687-.375.766-.938 1.188-.562.422-1.406.64-.844.22-2.078.22h-4.922Zm1.719-7.47h2.781q1.125 0 1.625-.156.656-.187.984-.625.329-.453.329-1.14 0-.64-.313-1.125-.312-.485-.89-.657-.563-.187-1.954-.187h-2.562v3.89Zm0 5.954h3.203q.828 0 1.156-.063.594-.11.985-.36.39-.25.64-.718.266-.469.266-1.078 0-.719-.375-1.25-.36-.531-1.016-.75-.656-.219-1.89-.219h-2.97v4.438ZM31.233 495.716h-1.578v-10.078q-.579.547-1.5 1.094-.922.53-1.672.812v-1.531q1.328-.625 2.328-1.516 1-.89 1.406-1.719h1.016v12.938Zm4.047-6.36q0-2.28.468-3.671.47-1.39 1.39-2.14.938-.767 2.345-.767 1.03 0 1.812.422.781.407 1.281 1.203.516.782.813 1.922.297 1.125.297 3.032 0 2.265-.469 3.671-.469 1.391-1.406 2.157-.922.75-2.328.75-1.875 0-2.938-1.328-1.265-1.61-1.265-5.25Zm1.625 0q0 3.172.734 4.235.75 1.047 1.844 1.047 1.078 0 1.828-1.047.75-1.063.75-4.234 0-3.172-.75-4.22-.75-1.046-1.844-1.046t-1.75.922q-.812 1.172-.812 4.344Zm9.265 6.36v-1.797h1.797v1.797H46.17Zm4.11-6.36q0-2.28.468-3.671.47-1.39 1.39-2.14.938-.767 2.345-.767 1.03 0 1.812.422.781.407 1.281 1.203.516.782.813 1.922.297 1.125.297 3.032 0 2.265-.469 3.671-.469 1.391-1.406 2.157-.922.75-2.328.75-1.875 0-2.938-1.328-1.265-1.61-1.265-5.25Zm1.625 0q0 3.172.734 4.235.75 1.047 1.844 1.047 1.078 0 1.828-1.047.75-1.063.75-4.234 0-3.172-.75-4.22-.75-1.046-1.844-1.046t-1.75.922q-.812 1.172-.812 4.344Zm8.375 0q0-2.28.468-3.671.47-1.39 1.39-2.14.938-.767 2.345-.767 1.03 0 1.812.422.781.407 1.281 1.203.516.782.813 1.922.297 1.125.297 3.032 0 2.265-.469 3.671-.469 1.391-1.406 2.157-.922.75-2.328.75-1.875 0-2.938-1.328-1.265-1.61-1.265-5.25Zm1.625 0q0 3.172.734 4.235.75 1.047 1.844 1.047 1.078 0 1.828-1.047.75-1.063.75-4.234 0-3.172-.75-4.22-.75-1.046-1.844-1.046t-1.75.922q-.812 1.172-.812 4.344Zm13.937 6.36v-12.89h1.719v6.39l6.39-6.39h2.313l-5.406 5.218 5.64 7.672h-2.25L79.67 489.2l-2.11 2.047v4.469h-1.718Zm12 0v-12.89h4.844q1.469 0 2.36.39.89.39 1.39 1.203.515.813.515 1.703 0 .828-.453 1.563-.437.734-1.343 1.172 1.171.343 1.796 1.171.625.829.625 1.954 0 .906-.39 1.687-.375.766-.938 1.188-.562.421-1.406.64-.844.219-2.078.219h-4.922Zm1.719-7.469h2.781q1.125 0 1.625-.156.656-.188.984-.625.329-.453.329-1.14 0-.641-.313-1.126-.312-.484-.89-.656-.563-.187-1.954-.187h-2.562v3.89Zm0 5.953h3.203q.828 0 1.156-.062.594-.11.985-.36.39-.25.64-.718.266-.47.266-1.078 0-.72-.375-1.25-.36-.532-1.016-.75-.656-.22-1.89-.22h-2.97v4.438ZM33.592 383.65v1.516h-8.516q-.015-.579.188-1.094.328-.875 1.031-1.719.719-.844 2.078-1.953 2.094-1.719 2.828-2.719.75-1.015.75-1.906 0-.953-.671-1.594-.672-.64-1.75-.64-1.157 0-1.844.687-.672.688-.688 1.89l-1.625-.171q.172-1.813 1.25-2.766 1.094-.953 2.938-.953t2.922 1.031q1.093 1.032 1.093 2.547 0 .766-.328 1.516-.312.75-1.047 1.578-.734.828-2.437 2.266-1.422 1.203-1.828 1.625-.406.421-.656.859h6.312Zm1.688-4.844q0-2.281.468-3.672.47-1.39 1.39-2.14.938-.766 2.345-.766 1.03 0 1.812.422.781.406 1.281 1.203.516.781.813 1.922.297 1.125.297 3.031 0 2.266-.469 3.672-.469 1.39-1.406 2.156-.922.75-2.328.75-1.875 0-2.938-1.328-1.265-1.61-1.265-5.25Zm1.625 0q0 3.172.734 4.235.75 1.046 1.844 1.046 1.078 0 1.828-1.046.75-1.063.75-4.235 0-3.172-.75-4.219-.75-1.046-1.844-1.046t-1.75.921q-.812 1.172-.812 4.344Zm9.265 6.36v-1.797h1.797v1.797H46.17Zm4.11-6.36q0-2.281.468-3.672.47-1.39 1.39-2.14.938-.766 2.345-.766 1.03 0 1.812.422.781.406 1.281 1.203.516.781.813 1.922.297 1.125.297 3.031 0 2.266-.469 3.672-.469 1.39-1.406 2.156-.922.75-2.328.75-1.875 0-2.938-1.328-1.265-1.61-1.265-5.25Zm1.625 0q0 3.172.734 4.235.75 1.046 1.844 1.046 1.078 0 1.828-1.046.75-1.063.75-4.235 0-3.172-.75-4.219-.75-1.046-1.844-1.046t-1.75.921q-.812 1.172-.812 4.344Zm8.375 0q0-2.281.468-3.672.47-1.39 1.39-2.14.938-.766 2.345-.766 1.03 0 1.812.422.781.406 1.281 1.203.516.781.813 1.922.297 1.125.297 3.031 0 2.266-.469 3.672-.469 1.39-1.406 2.156-.922.75-2.328.75-1.875 0-2.938-1.328-1.265-1.61-1.265-5.25Zm1.625 0q0 3.172.734 4.235.75 1.046 1.844 1.046 1.078 0 1.828-1.046.75-1.063.75-4.235 0-3.172-.75-4.219-.75-1.046-1.844-1.046t-1.75.921q-.812 1.172-.812 4.344Zm13.937 6.36v-12.891h1.719v6.39l6.39-6.39h2.313l-5.406 5.219 5.64 7.672h-2.25l-4.578-6.516-2.11 2.047v4.469h-1.718Zm12 0v-12.891h4.844q1.469 0 2.36.39.89.391 1.39 1.204.515.812.515 1.703 0 .828-.453 1.562-.437.735-1.343 1.172 1.171.344 1.796 1.172t.625 1.953q0 .906-.39 1.688-.375.765-.938 1.187-.562.422-1.406.64-.844.22-2.078.22h-4.922Zm1.719-7.47h2.781q1.125 0 1.625-.155.656-.188.984-.625.329-.454.329-1.141 0-.64-.313-1.125-.312-.484-.89-.656-.563-.188-1.954-.188h-2.562v3.89Zm0 5.954h3.203q.828 0 1.156-.063.594-.109.985-.359.39-.25.64-.719.266-.468.266-1.078 0-.719-.375-1.25-.36-.531-1.016-.75-.656-.219-1.89-.219h-2.97v4.438ZM25.28 271.21l1.593-.204q.266 1.344.922 1.937.656.594 1.594.594 1.125 0 1.89-.765.766-.782.766-1.922 0-1.094-.719-1.797-.703-.719-1.796-.719-.454 0-1.125.188l.171-1.391q.157.016.266.016 1 0 1.813-.532.812-.531.812-1.625 0-.875-.594-1.437-.593-.578-1.515-.578-.922 0-1.547.578-.61.578-.781 1.75l-1.579-.281q.282-1.594 1.313-2.47 1.031-.874 2.562-.874 1.047 0 1.938.453.89.453 1.36 1.234.468.782.468 1.657 0 .843-.453 1.53-.438.673-1.328 1.079 1.14.266 1.765 1.11.641.827.641 2.062 0 1.687-1.234 2.875-1.22 1.172-3.094 1.172-1.703 0-2.828-1.016-1.11-1.016-1.281-2.625Zm10-2.954q0-2.281.468-3.672.47-1.39 1.39-2.14.938-.766 2.345-.766 1.03 0 1.812.422.781.406 1.281 1.203.516.781.813 1.922.297 1.125.297 3.03 0 2.267-.469 3.673-.469 1.39-1.406 2.156-.922.75-2.328.75-1.875 0-2.938-1.328-1.265-1.61-1.265-5.25Zm1.625 0q0 3.172.734 4.234.75 1.047 1.844 1.047 1.078 0 1.828-1.047.75-1.062.75-4.234 0-3.172-.75-4.219-.75-1.047-1.844-1.047t-1.75.922q-.812 1.172-.812 4.344Zm9.265 6.36v-1.798h1.797v1.797H46.17Zm4.11-6.36q0-2.281.468-3.672.47-1.39 1.39-2.14.938-.766 2.345-.766 1.03 0 1.812.422.781.406 1.281 1.203.516.781.813 1.922.297 1.125.297 3.03 0 2.267-.469 3.673-.469 1.39-1.406 2.156-.922.75-2.328.75-1.875 0-2.938-1.328-1.265-1.61-1.265-5.25Zm1.625 0q0 3.172.734 4.234.75 1.047 1.844 1.047 1.078 0 1.828-1.047.75-1.062.75-4.234 0-3.172-.75-4.219-.75-1.047-1.844-1.047t-1.75.922q-.812 1.172-.812 4.344Zm8.375 0q0-2.281.468-3.672.47-1.39 1.39-2.14.938-.766 2.345-.766 1.03 0 1.812.422.781.406 1.281 1.203.516.781.813 1.922.297 1.125.297 3.03 0 2.267-.469 3.673-.469 1.39-1.406 2.156-.922.75-2.328.75-1.875 0-2.938-1.328-1.265-1.61-1.265-5.25Zm1.625 0q0 3.172.734 4.234.75 1.047 1.844 1.047 1.078 0 1.828-1.047.75-1.062.75-4.234 0-3.172-.75-4.219-.75-1.047-1.844-1.047t-1.75.922q-.812 1.172-.812 4.344Zm13.937 6.36v-12.891h1.719v6.39l6.39-6.39h2.313l-5.406 5.218 5.64 7.672h-2.25L79.67 268.1l-2.11 2.047v4.468h-1.718Zm12 0v-12.891h4.844q1.469 0 2.36.39.89.39 1.39 1.203.515.813.515 1.704 0 .828-.453 1.562-.437.734-1.343 1.172 1.171.344 1.796 1.172t.625 1.953q0 .906-.39 1.687-.375.766-.938 1.188-.562.422-1.406.64-.844.22-2.078.22h-4.922Zm1.719-7.47h2.781q1.125 0 1.625-.156.656-.187.984-.625.329-.453.329-1.14 0-.641-.313-1.125-.312-.485-.89-.657-.563-.187-1.954-.187h-2.562v3.89Zm0 5.954h3.203q.828 0 1.156-.063.594-.11.985-.36.39-.25.64-.718.266-.469.266-1.078 0-.719-.375-1.25-.36-.531-1.016-.75-.656-.219-1.89-.219h-2.97v4.438ZM30.342 164.065v-3.078h-5.578v-1.453l5.875-8.36h1.297v8.36h1.734v1.453h-1.734v3.078h-1.594Zm0-4.531v-5.813l-4.031 5.813h4.031Zm4.938-1.828q0-2.282.468-3.672.47-1.39 1.39-2.14.938-.767 2.345-.767 1.03 0 1.812.422.781.407 1.281 1.203.516.782.813 1.922.297 1.125.297 3.032 0 2.265-.469 3.671-.469 1.391-1.406 2.157-.922.75-2.328.75-1.875 0-2.938-1.328-1.265-1.61-1.265-5.25Zm1.625 0q0 3.171.734 4.234.75 1.047 1.844 1.047 1.078 0 1.828-1.047.75-1.063.75-4.234 0-3.172-.75-4.22-.75-1.046-1.844-1.046t-1.75.922q-.812 1.172-.812 4.344Zm9.265 6.359v-1.797h1.797v1.797H46.17Zm4.11-6.36q0-2.28.468-3.671.47-1.39 1.39-2.14.938-.767 2.345-.767 1.03 0 1.812.422.781.407 1.281 1.203.516.782.813 1.922.297 1.125.297 3.032 0 2.265-.469 3.671-.469 1.391-1.406 2.157-.922.75-2.328.75-1.875 0-2.938-1.328-1.265-1.61-1.265-5.25Zm1.625 0q0 3.172.734 4.235.75 1.047 1.844 1.047 1.078 0 1.828-1.047.75-1.063.75-4.234 0-3.172-.75-4.22-.75-1.046-1.844-1.046t-1.75.922q-.812 1.172-.812 4.344Zm8.375 0q0-2.28.468-3.671.47-1.39 1.39-2.14.938-.767 2.345-.767 1.03 0 1.812.422.781.407 1.281 1.203.516.782.813 1.922.297 1.125.297 3.032 0 2.265-.469 3.671-.469 1.391-1.406 2.157-.922.75-2.328.75-1.875 0-2.938-1.328-1.265-1.61-1.265-5.25Zm1.625 0q0 3.172.734 4.235.75 1.047 1.844 1.047 1.078 0 1.828-1.047.75-1.063.75-4.234 0-3.172-.75-4.22-.75-1.046-1.844-1.046t-1.75.922q-.812 1.172-.812 4.344Zm13.937 6.36v-12.89h1.719v6.39l6.39-6.39h2.313l-5.406 5.218 5.64 7.672h-2.25l-4.578-6.516-2.11 2.047v4.469h-1.718Zm12 0v-12.89h4.844q1.469 0 2.36.39.89.39 1.39 1.203.515.813.515 1.703 0 .828-.453 1.563-.437.734-1.343 1.172 1.171.343 1.796 1.171.625.829.625 1.954 0 .906-.39 1.687-.375.766-.938 1.188-.562.421-1.406.64-.844.219-2.078.219h-4.922Zm1.719-7.469h2.781q1.125 0 1.625-.156.656-.188.984-.625.329-.453.329-1.14 0-.641-.313-1.126-.312-.484-.89-.656-.563-.187-1.954-.187h-2.562v3.89Zm0 5.953h3.203q.828 0 1.156-.062.594-.11.985-.36.39-.25.64-.718.266-.469.266-1.078 0-.72-.375-1.25-.36-.532-1.016-.75-.656-.22-1.89-.22h-2.97v4.438ZM25.28 50.14l1.656-.141q.187 1.219.86 1.828.671.61 1.624.61 1.14 0 1.922-.86.797-.86.797-2.297 0-1.344-.766-2.125-.75-.781-1.984-.781-.766 0-1.39.344-.61.343-.954.906l-1.484-.203 1.25-6.61h6.406v1.5h-5.14l-.704 3.47q1.172-.813 2.438-.813 1.687 0 2.844 1.172 1.171 1.171 1.171 3 0 1.75-1.03 3.03-1.235 1.563-3.376 1.563-1.765 0-2.875-.984t-1.265-2.61Zm10-2.985q0-2.281.468-3.672.47-1.39 1.39-2.14.938-.766 2.345-.766 1.03 0 1.812.422.781.406 1.281 1.203.516.781.813 1.922.297 1.125.297 3.031 0 2.266-.469 3.672-.469 1.39-1.406 2.156-.922.75-2.328.75-1.875 0-2.938-1.328-1.265-1.61-1.265-5.25Zm1.625 0q0 3.172.734 4.235.75 1.046 1.844 1.046 1.078 0 1.828-1.046.75-1.063.75-4.235 0-3.172-.75-4.219-.75-1.046-1.844-1.046t-1.75.921q-.812 1.172-.812 4.344Zm9.265 6.36v-1.797h1.797v1.797H46.17Zm4.11-6.36q0-2.281.468-3.672.47-1.39 1.39-2.14.938-.766 2.345-.766 1.03 0 1.812.422.781.406 1.281 1.203.516.781.813 1.922.297 1.125.297 3.031 0 2.266-.469 3.672-.469 1.39-1.406 2.156-.922.75-2.328.75-1.875 0-2.938-1.328-1.265-1.61-1.265-5.25Zm1.625 0q0 3.172.734 4.235.75 1.046 1.844 1.046 1.078 0 1.828-1.046.75-1.063.75-4.235 0-3.172-.75-4.219-.75-1.046-1.844-1.046t-1.75.921q-.812 1.172-.812 4.344Zm8.375 0q0-2.281.468-3.672.47-1.39 1.39-2.14.938-.766 2.345-.766 1.03 0 1.812.422.781.406 1.281 1.203.516.781.813 1.922.297 1.125.297 3.031 0 2.266-.469 3.672-.469 1.39-1.406 2.156-.922.75-2.328.75-1.875 0-2.938-1.328-1.265-1.61-1.265-5.25Zm1.625 0q0 3.172.734 4.235.75 1.046 1.844 1.046 1.078 0 1.828-1.046.75-1.063.75-4.235 0-3.172-.75-4.219-.75-1.046-1.844-1.046t-1.75.921q-.812 1.172-.812 4.344Zm13.937 6.36V40.624h1.719v6.39l6.39-6.39h2.313l-5.406 5.219 5.64 7.672h-2.25l-4.578-6.516-2.11 2.047v4.469h-1.718Zm12 0V40.624h4.844q1.469 0 2.36.39.89.391 1.39 1.204.515.812.515 1.703 0 .828-.453 1.562-.437.735-1.343 1.172 1.171.344 1.796 1.172t.625 1.953q0 .906-.39 1.688-.375.765-.938 1.187-.562.422-1.406.64-.844.22-2.078.22h-4.922Zm1.719-7.47h2.781q1.125 0 1.625-.155.656-.188.984-.625.329-.454.329-1.141 0-.64-.313-1.125-.312-.484-.89-.656-.563-.188-1.954-.188h-2.562v3.89Zm0 5.954h3.203q.828 0 1.156-.063.594-.109.985-.359.39-.25.64-.719.266-.468.266-1.078 0-.719-.375-1.25-.36-.531-1.016-.75-.656-.219-1.89-.219h-2.97V52ZM122.14 672.616l1.237-.95q.961 1.314.873 2.707-.1 1.38-1.182 2.463-1.36 1.36-3.072 1.304-1.712-.077-3.359-1.723-1.071-1.072-1.513-2.221-.453-1.16-.133-2.276.32-1.138 1.171-1.989 1.083-1.083 2.31-1.204 1.226-.144 2.42.652l-.929 1.26q-.818-.51-1.547-.443-.729.044-1.292.608-.84.84-.763 1.978.077 1.138 1.392 2.452 1.326 1.326 2.442 1.426 1.105.088 1.933-.74.652-.653.697-1.492.033-.851-.685-1.812Zm.75-2.52q-1.833-1.833-1.69-3.745.122-1.58 1.337-2.795 1.37-1.37 3.127-1.337 1.757.033 3.326 1.602 1.27 1.27 1.613 2.387.353 1.105.033 2.243-.32 1.137-1.193 2.01-1.381 1.381-3.127 1.36-1.746-.045-3.425-1.724Zm1.15-1.148q1.27 1.27 2.453 1.348 1.182.077 2.022-.763.84-.84.762-2.022-.088-1.193-1.381-2.486-1.227-1.226-2.42-1.292-1.182-.078-2.01.751-.84.84-.763 2.022.077 1.182 1.337 2.442Zm9.623-3.017-9.115-9.115 1.116-1.115 9.115 9.115-1.116 1.115Zm2.829-2.828-9.115-9.115 1.115-1.116 9.115 9.115-1.115 1.116Zm5.248-9.49 1.303-1.017q.73 1.282.553 2.585-.177 1.304-1.326 2.453-1.447 1.447-3.193 1.403-1.746-.044-3.359-1.657-1.657-1.657-1.723-3.425-.067-1.79 1.303-3.16 1.326-1.326 3.072-1.26 1.734.056 3.37 1.69.1.1.287.31l-4.917 4.917q1.15 1.038 2.276 1.06 1.138.012 1.956-.806.619-.619.73-1.37.12-.762-.332-1.724Zm-5.491 1.866 3.69-3.69q-.906-.751-1.669-.828-1.193-.11-2.044.74-.762.762-.773 1.812 0 1.038.796 1.966Zm12.053-9.026 1.238-.95q.961 1.314.873 2.707-.1 1.38-1.182 2.463-1.36 1.36-3.072 1.304-1.712-.077-3.359-1.723-1.071-1.072-1.513-2.221-.453-1.16-.133-2.276.32-1.138 1.171-1.989 1.083-1.083 2.31-1.204 1.226-.144 2.419.652l-.928 1.26q-.818-.51-1.547-.443-.73.044-1.293.608-.84.84-.762 1.978.077 1.138 1.392 2.452 1.326 1.326 2.442 1.426 1.105.088 1.933-.74.652-.652.697-1.492.033-.85-.686-1.812Zm5.911-3.083 1.16.829q-.375.575-.75.95-.608.608-1.139.763-.53.132-.972-.045-.453-.188-1.458-1.193l-3.801-3.8-.829.828-.862-.862.83-.828-1.636-1.636.43-1.778 2.31 2.309 1.127-1.127.862.862-1.127 1.126 3.867 3.867q.475.476.674.564.199.066.408.011.21-.055.465-.31.176-.176.441-.53Zm-5.712-7.922-1.292-1.292 1.116-1.116 1.292 1.293-1.116 1.115Zm7.823 7.823-6.596-6.596 1.116-1.116 6.596 6.596-1.116 1.116Zm-.906-5.701q-1.834-1.834-1.69-3.746.12-1.58 1.336-2.795 1.37-1.37 3.127-1.337 1.757.033 3.326 1.602 1.27 1.27 1.613 2.387.353 1.105.033 2.243-.32 1.138-1.193 2.01-1.382 1.382-3.127 1.36-1.746-.045-3.425-1.724Zm1.149-1.15q1.27 1.271 2.453 1.349 1.182.077 2.021-.763.84-.84.763-2.021-.089-1.194-1.381-2.486-1.227-1.227-2.42-1.293-1.182-.077-2.01.751-.84.84-.763 2.022.077 1.182 1.337 2.442Zm9.645-3.038-6.596-6.596 1.006-1.005.939.94q-.365-1.824 1.005-3.194.597-.596 1.315-.873.718-.298 1.315-.188.596.089 1.17.465.365.254 1.15 1.038l4.055 4.055-1.116 1.116-4.01-4.01q-.686-.686-1.16-.896-.465-.22-1.006-.077-.53.132-.973.574-.718.719-.784 1.69-.066.973 1.204 2.244l3.602 3.602-1.116 1.115Zm4.652-8.584.939-1.293q.751.575 1.524.508.785-.077 1.547-.84.774-.773.84-1.458.055-.696-.365-1.116-.375-.375-.928-.265-.375.089-1.524.774-1.536.917-2.232 1.17-.707.244-1.36.1-.651-.166-1.137-.652-.442-.442-.619-1.016-.166-.586-.066-1.171.066-.464.386-1.05.32-.586.83-1.094.784-.784 1.601-1.138.807-.364 1.47-.254.663.088 1.403.63l-.95 1.237q-.586-.43-1.227-.364-.64.066-1.292.718-.774.773-.851 1.359-.078.585.265.928.22.22.541.254.31.044.718-.122.232-.121 1.282-.707 1.492-.872 2.166-1.127.674-.276 1.325-.154.663.11 1.227.674.563.563.73 1.392.176.817-.167 1.712-.353.884-1.127 1.658-1.292 1.292-2.497 1.436-1.215.132-2.452-.73ZM151.343 722.909l1.303-1.017q.73 1.282.553 2.586-.177 1.303-1.326 2.452-1.447 1.448-3.193 1.404-1.746-.045-3.359-1.658-1.657-1.657-1.723-3.425-.067-1.79 1.303-3.16 1.326-1.325 3.072-1.26 1.734.056 3.37 1.691.1.1.287.31l-4.917 4.916q1.15 1.039 2.276 1.06 1.138.012 1.956-.806.619-.618.73-1.37.12-.762-.332-1.723Zm-5.491 1.867 3.69-3.69q-.906-.751-1.669-.829-1.193-.11-2.044.74-.762.763-.773 1.812 0 1.039.796 1.967Zm10.164-2.298-6.596-6.596 1.006-1.006.917.918q-.166-.785.044-1.591.22-.818.884-1.481.729-.73 1.502-.884.774-.177 1.514.188-.376-1.945.884-3.204.983-.983 2.055-.95 1.072.01 2.199 1.138l4.53 4.53-1.105 1.105-4.155-4.155q-.674-.674-1.082-.862-.41-.187-.873-.077-.464.11-.851.497-.696.696-.696 1.624.011.917 1.028 1.934l3.833 3.834-1.116 1.116-4.286-4.287q-.752-.751-1.392-.84-.652-.1-1.271.52-.475.474-.619 1.126-.154.641.133 1.304.298.652 1.204 1.558l3.425 3.425-1.116 1.116Zm13.391-15.026q-.088 1.149-.453 1.956-.353.795-1.005 1.447-1.094 1.094-2.21 1.149-1.116.033-1.945-.796-.475-.475-.651-1.093-.188-.63-.078-1.227.11-.596.442-1.171.243-.42.829-1.16 1.182-1.514 1.602-2.375-.221-.244-.287-.31-.674-.674-1.282-.64-.807.055-1.646.894-.796.796-.895 1.448-.1.651.43 1.535l-1.248.94q-.552-.862-.652-1.625-.088-.773.32-1.646.42-.884 1.282-1.745.84-.84 1.57-1.172.728-.331 1.28-.265.553.044 1.106.398.342.232 1.094.983l1.491 1.492q1.558 1.558 2.044 1.911.486.332 1.072.497l-1.171 1.171q-.53-.176-1.039-.596Zm-2.596-2.398q-.354.862-1.404 2.243-.585.785-.74 1.204-.165.41-.077.807.077.387.376.685.441.442 1.071.409.641-.044 1.293-.696.652-.652.873-1.426.22-.795-.033-1.513-.21-.564-.95-1.304l-.41-.409Zm-1.636-7.38-1.292-1.293 1.116-1.116 1.292 1.293-1.116 1.116Zm7.823 7.822-6.596-6.596 1.116-1.116 6.596 6.596-1.116 1.116Zm2.795-2.795-9.115-9.115 1.116-1.116 9.115 9.115-1.116 1.116Zm-.32-5.16-1.116-1.116 3.436-3.436 1.116 1.116-3.436 3.436Zm10.905-7.06q-.089 1.15-.453 1.956-.354.795-1.006 1.447-1.094 1.094-2.21 1.15-1.115.032-1.944-.796-.475-.475-.652-1.094-.188-.63-.077-1.226.11-.597.442-1.172.243-.42.828-1.16 1.183-1.513 1.602-2.375-.22-.243-.287-.31-.674-.673-1.282-.64-.806.055-1.646.895-.795.795-.895 1.447-.1.652.431 1.536l-1.248.939q-.553-.862-.652-1.624-.089-.774.32-1.646.42-.884 1.282-1.746.84-.84 1.569-1.171.729-.332 1.281-.265.553.044 1.105.397.343.232 1.094.984l1.492 1.491q1.557 1.558 2.044 1.912.486.331 1.071.497l-1.17 1.17q-.531-.176-1.04-.596Zm-2.597-2.397q-.353.862-1.403 2.243-.586.784-.74 1.204-.166.409-.078.806.078.387.376.685.442.442 1.072.41.64-.045 1.292-.697.652-.652.873-1.425.221-.796-.033-1.514-.21-.563-.95-1.303l-.409-.41Zm6.154.475-9.115-9.115 1.116-1.116 9.115 9.115-1.116 1.116Zm5.248-9.49 1.304-1.017q.73 1.281.552 2.585-.176 1.304-1.325 2.453-1.448 1.447-3.193 1.403-1.746-.044-3.36-1.657-1.656-1.658-1.723-3.425-.066-1.79 1.304-3.16 1.326-1.326 3.072-1.26 1.734.056 3.37 1.69.099.1.287.31l-4.917 4.917q1.149 1.038 2.276 1.06 1.138.011 1.956-.806.618-.619.729-1.37.121-.763-.332-1.724Zm-5.49 1.866 3.69-3.69q-.907-.751-1.669-.828-1.193-.111-2.044.74-.762.762-.773 1.812 0 1.038.795 1.966Zm10.153-2.287-6.596-6.596 1.005-1.005.995.994q-.31-1.083-.21-1.624.1-.563.486-.95.574-.575 1.513-.784l.663 1.414q-.663.177-1.071.585-.365.365-.442.884-.067.508.199 1.017.408.784 1.116 1.491l3.458 3.458-1.116 1.116Zm5.69-7.7 1.16.828q-.376.575-.751.95-.608.608-1.138.763-.53.132-.973-.045-.453-.187-1.458-1.193l-3.8-3.8-.83.828-.861-.862.828-.828-1.635-1.635.431-1.78 2.31 2.31 1.126-1.127.862.862-1.127 1.127 3.867 3.867q.475.475.674.563.199.066.409.011.21-.055.464-.31.177-.176.442-.53Zm-1.072-2.398-1.116-1.116 3.436-3.436 1.116 1.116-3.436 3.436Zm7.679-2.199-5.734-5.734-.984.983-.861-.861.983-.984-.707-.707q-.663-.663-.862-1.105-.287-.596-.144-1.27.133-.685.873-1.426.464-.464 1.15-.928l.817 1.15q-.42.287-.73.596-.508.508-.497.94 0 .42.597 1.016l.619.618 1.281-1.281.862.862-1.281 1.281 5.734 5.734-1.116 1.116Zm3.26-3.259-6.597-6.596 1.006-1.005.994.994q-.31-1.083-.21-1.624.1-.564.486-.95.575-.575 1.514-.785l.663 1.414q-.663.177-1.072.586-.365.365-.442.884-.066.508.199 1.016.409.785 1.116 1.492l3.458 3.458-1.116 1.116Zm.53-7.137q-1.835-1.834-1.69-3.746.12-1.58 1.336-2.795 1.37-1.37 3.127-1.337 1.756.033 3.325 1.602 1.27 1.27 1.613 2.387.354 1.104.034 2.242-.32 1.138-1.194 2.011-1.38 1.381-3.126 1.36-1.746-.045-3.426-1.724Zm1.149-1.15q1.27 1.271 2.452 1.348 1.182.078 2.022-.762.84-.84.763-2.022-.089-1.193-1.382-2.486-1.226-1.226-2.42-1.292-1.181-.078-2.01.75-.84.84-.762 2.023.077 1.182 1.337 2.442Zm9.645-3.038-6.596-6.596 1.005-1.005.94.939q-.365-1.823 1.005-3.193.596-.597 1.315-.873.718-.298 1.314-.188.597.089 1.172.464.364.254 1.149 1.039l4.054 4.055-1.115 1.116-4.011-4.011q-.685-.685-1.16-.895-.464-.22-1.006-.077-.53.132-.972.574-.718.718-.784 1.69-.067.973 1.204 2.243l3.602 3.602-1.116 1.116Zm8.507-10.518 1.16.829q-.375.574-.75.95-.609.607-1.139.762-.53.133-.972-.044-.453-.188-1.459-1.193l-3.8-3.801-.829.829-.862-.862.829-.829-1.635-1.635.43-1.779 2.31 2.31 1.127-1.128.862.862-1.127 1.127 3.867 3.867q.475.475.673.564.2.066.41.01.21-.055.463-.309.177-.176.442-.53Zm4.497-6.729 1.304-1.016q.729 1.282.552 2.585-.177 1.304-1.326 2.453-1.447 1.447-3.193 1.403-1.745-.044-3.358-1.657-1.658-1.657-1.724-3.425-.066-1.79 1.304-3.16 1.326-1.326 3.071-1.26 1.735.056 3.37 1.691.1.1.287.31l-4.916 4.916q1.149 1.038 2.276 1.06 1.138.012 1.955-.806.619-.619.73-1.37.121-.762-.332-1.724Zm-5.491 1.868 3.69-3.69q-.906-.752-1.668-.83-1.193-.11-2.044.741-.763.762-.774 1.812 0 1.039.796 1.967Zm10.165-2.298-6.596-6.596 1.005-1.006.94.94q-.365-1.824 1.005-3.194.596-.596 1.314-.873.718-.298 1.315-.187.597.088 1.171.464.365.254 1.15 1.038l4.054 4.055-1.116 1.116-4.01-4.01q-.685-.686-1.16-.896-.465-.22-1.006-.077-.53.133-.972.575-.718.718-.785 1.69-.066.972 1.205 2.243l3.601 3.602-1.115 1.116Zm11.357-11.358-.828-.829q.353 1.613-.873 2.84-.784.784-1.878 1.016-1.105.22-2.243-.188-1.15-.42-2.166-1.436-.994-.995-1.458-2.121-.475-1.139-.254-2.221.232-1.094 1.05-1.912.596-.596 1.314-.806.718-.21 1.414-.11l-3.27-3.271 1.105-1.105 9.115 9.115-1.028 1.028Zm-6.839.254q1.271 1.27 2.431 1.37 1.16.077 1.89-.652.729-.73.64-1.834-.077-1.116-1.315-2.353-1.347-1.348-2.497-1.459-1.16-.121-1.922.64-.751.752-.652 1.868.11 1.105 1.425 2.42ZM286.093 671.301l-5.735-5.734-.983.983-.862-.862.984-.983-.708-.707q-.662-.663-.861-1.105-.288-.597-.144-1.27.133-.686.873-1.426.464-.464 1.149-.928l.818 1.15q-.42.286-.73.596-.508.508-.497.939 0 .42.597 1.016l.618.62 1.282-1.283.862.862-1.282 1.282 5.734 5.734-1.115 1.116Zm5.667-9.91 1.304-1.017q.73 1.282.553 2.585-.177 1.304-1.326 2.453-1.448 1.447-3.193 1.403-1.746-.044-3.359-1.657-1.657-1.657-1.724-3.425-.066-1.79 1.304-3.16 1.326-1.326 3.072-1.26 1.734.056 3.37 1.691.099.1.287.31l-4.917 4.916q1.15 1.038 2.276 1.06 1.138.012 1.956-.806.618-.619.729-1.37.121-.762-.332-1.724Zm-5.49 1.867 3.69-3.69q-.906-.752-1.669-.83-1.193-.11-2.044.741-.762.762-.773 1.812 0 1.039.795 1.967Zm12.562-8.939 1.303-1.016q.73 1.282.553 2.585-.177 1.304-1.326 2.453-1.447 1.447-3.193 1.403-1.746-.044-3.359-1.657-1.657-1.657-1.723-3.425-.067-1.79 1.303-3.16 1.326-1.326 3.072-1.26 1.734.056 3.37 1.69.099.1.287.31l-4.917 4.917q1.15 1.038 2.276 1.06 1.138.012 1.956-.806.619-.619.729-1.37.122-.762-.331-1.724Zm-5.492 1.868 3.69-3.69q-.905-.752-1.668-.83-1.193-.11-2.044.741-.762.762-.773 1.812 0 1.039.795 1.967Zm14.452-6.585-.829-.829q.354 1.613-.873 2.84-.784.784-1.878 1.016-1.105.221-2.243-.188-1.149-.42-2.165-1.436-.995-.995-1.459-2.121-.475-1.138-.254-2.221.232-1.094 1.05-1.912.597-.596 1.315-.806.718-.21 1.414-.11l-3.27-3.271 1.104-1.105 9.115 9.115-1.027 1.028Zm-6.84.254q1.271 1.27 2.432 1.37 1.16.077 1.889-.652.729-.73.64-1.834-.077-1.116-1.314-2.353-1.348-1.348-2.497-1.459-1.16-.121-1.923.641-.75.751-.651 1.867.11 1.105 1.425 2.42Zm10.652-4.066-1.039 1.038-9.115-9.115 1.127-1.126 3.26 3.259q-.188-1.602.905-2.696.608-.608 1.403-.895.796-.31 1.58-.21.796.089 1.625.52.828.43 1.535 1.137 1.702 1.702 1.79 3.47.1 1.756-1.083 2.939-1.16 1.16-2.817.85l.829.829Zm-3.36-3.337q1.183 1.183 2.034 1.392 1.392.332 2.298-.574.73-.73.63-1.89-.1-1.182-1.36-2.441-1.292-1.293-2.43-1.392-1.127-.11-1.856.618-.73.73-.63 1.912.11 1.171 1.315 2.375Zm12.895-7.833q-.089 1.149-.453 1.955-.354.796-1.006 1.448-1.094 1.094-2.21 1.149-1.115.033-1.944-.796-.475-.475-.652-1.093-.188-.63-.077-1.227.11-.596.442-1.171.243-.42.828-1.16 1.182-1.514 1.602-2.375-.22-.244-.287-.31-.674-.674-1.282-.64-.806.055-1.646.894-.795.796-.895 1.448-.1.652.431 1.535l-1.248.94q-.553-.862-.652-1.625-.089-.773.32-1.646.42-.884 1.282-1.746.84-.84 1.569-1.17.729-.332 1.281-.266.553.044 1.105.398.343.232 1.094.983l1.492 1.492q1.557 1.558 2.044 1.911.486.332 1.071.497l-1.17 1.172q-.531-.177-1.04-.597Zm-2.597-2.398q-.353.862-1.403 2.243-.586.785-.74 1.204-.166.41-.078.807.078.387.376.685.442.442 1.072.409.64-.044 1.292-.696.652-.652.873-1.426.221-.795-.033-1.513-.21-.564-.95-1.304l-.409-.409Zm8.066-6.275 1.237-.95q.961 1.314.873 2.707-.1 1.38-1.182 2.463-1.36 1.36-3.072 1.304-1.712-.077-3.359-1.724-1.071-1.071-1.513-2.22-.453-1.16-.133-2.276.32-1.138 1.171-1.989 1.083-1.083 2.31-1.204 1.226-.144 2.42.652l-.929 1.26q-.818-.51-1.547-.443-.729.044-1.292.608-.84.84-.763 1.977.078 1.139 1.392 2.453 1.326 1.326 2.442 1.426 1.105.088 1.934-.74.651-.653.696-1.492.033-.851-.685-1.812Zm4.485.353-9.115-9.115 1.116-1.116 5.204 5.204-.044-5.325 1.447-1.447-.077 4.96 6.938 1.37-1.38 1.381-5.558-1.182-.033 1.536 2.618 2.618-1.116 1.116ZM333.88 702.414l-5.735-5.734-.983.983-.862-.862.983-.983-.707-.707q-.663-.663-.862-1.105-.287-.597-.143-1.27.132-.686.873-1.426.464-.464 1.149-.928l.817 1.149q-.42.287-.729.597-.508.508-.497.939 0 .42.597 1.016l.618.619 1.282-1.282.862.862-1.282 1.282 5.734 5.734-1.116 1.116Zm-4.542-11.104-1.292-1.293 1.116-1.116 1.292 1.293-1.116 1.116Zm7.823 7.822-6.596-6.596 1.116-1.116 6.596 6.596-1.116 1.116Zm2.817-2.817-6.596-6.596 1.006-1.005.939.939q-.365-1.823 1.005-3.193.597-.597 1.315-.873.718-.298 1.315-.188.596.088 1.17.464.365.254 1.15 1.039l4.055 4.054-1.116 1.116-4.01-4.01q-.686-.685-1.16-.895-.465-.221-1.006-.078-.53.133-.973.575-.718.718-.784 1.69-.066.973 1.204 2.243l3.602 3.602-1.116 1.116Zm11.358-11.358-.829-.829q.354 1.613-.872 2.84-.785.784-1.879 1.016-1.105.221-2.243-.188-1.149-.42-2.165-1.436-.994-.994-1.458-2.121-.476-1.138-.255-2.22.232-1.095 1.05-1.912.597-.597 1.315-.807.718-.21 1.414-.11l-3.27-3.27 1.104-1.106 9.116 9.115-1.028 1.028Zm-6.839.254q1.27 1.27 2.43 1.37 1.16.077 1.89-.652t.64-1.834q-.077-1.116-1.314-2.353-1.348-1.348-2.497-1.458-1.16-.122-1.922.64-.752.752-.652 1.868.11 1.104 1.425 2.42Zm12.02-9.678 1.305-1.017q.729 1.282.552 2.586-.177 1.303-1.326 2.452-1.447 1.448-3.193 1.403-1.746-.044-3.359-1.657-1.657-1.657-1.723-3.425-.067-1.79 1.303-3.16 1.326-1.326 3.072-1.26 1.735.056 3.37 1.691.1.1.287.31l-4.916 4.916q1.149 1.039 2.275 1.06 1.139.012 1.956-.806.619-.618.73-1.37.12-.762-.332-1.723Zm-5.49 1.867 3.69-3.69q-.906-.752-1.668-.829-1.194-.11-2.044.74-.763.763-.774 1.812 0 1.039.796 1.967Zm10.153-2.287-6.596-6.596 1.006-1.006.994.995q-.31-1.083-.21-1.624.1-.564.486-.95.575-.575 1.514-.785l.663 1.414q-.663.177-1.072.586-.364.364-.442.884-.066.508.2 1.016.408.785 1.115 1.492l3.458 3.458-1.116 1.116Zm1.083-6.563-1.116-1.116 3.436-3.436 1.116 1.116-3.436 3.436Zm7.679-2.199-5.734-5.734-.984.983-.861-.861.983-.984-.707-.707q-.663-.663-.862-1.105-.287-.596-.144-1.27.133-.685.873-1.426.464-.464 1.15-.928l.817 1.15q-.42.287-.73.596-.508.508-.497.94 0 .42.597 1.016l.619.618 1.281-1.281.862.862-1.281 1.281 5.734 5.734-1.116 1.116Zm3.26-3.259-6.597-6.596 1.006-1.005.994.994q-.31-1.083-.21-1.624.1-.564.486-.95.575-.575 1.514-.785l.663 1.414q-.663.177-1.072.586-.365.365-.442.884-.066.508.199 1.016.409.785 1.116 1.492l3.458 3.458-1.116 1.116Zm.53-7.137q-1.835-1.834-1.691-3.746.122-1.58 1.337-2.795 1.37-1.37 3.127-1.337 1.756.033 3.325 1.602 1.27 1.27 1.613 2.387.354 1.104.033 2.242-.32 1.138-1.193 2.011-1.38 1.381-3.127 1.36-1.745-.045-3.425-1.724Zm1.148-1.15q1.271 1.271 2.453 1.349 1.182.077 2.022-.763.84-.84.762-2.022-.088-1.193-1.38-2.486-1.227-1.226-2.42-1.292-1.182-.078-2.011.751-.84.84-.762 2.022.077 1.182 1.337 2.442Zm9.646-3.038-6.596-6.596 1.005-1.005.94.939q-.365-1.823 1.005-3.193.596-.597 1.315-.873.718-.298 1.314-.188.597.089 1.172.464.364.254 1.149 1.039l4.054 4.055-1.115 1.116-4.011-4.011q-.685-.685-1.16-.895-.464-.22-1.006-.077-.53.132-.972.574-.718.718-.784 1.69-.067.973 1.204 2.243l3.602 3.602-1.116 1.116Zm8.507-10.518 1.16.829q-.375.574-.75.95-.609.607-1.139.762-.53.133-.972-.044-.453-.188-1.459-1.193l-3.8-3.801-.829.829-.862-.862.829-.829-1.635-1.635.43-1.779 2.31 2.31 1.127-1.128.861.862-1.126 1.127 3.867 3.867q.475.475.673.564.2.066.41.01.21-.055.463-.309.177-.176.442-.53Zm4.497-6.729 1.304-1.016q.729 1.282.552 2.585-.177 1.304-1.326 2.453-1.447 1.447-3.193 1.403-1.745-.044-3.358-1.657-1.658-1.657-1.724-3.425-.066-1.79 1.304-3.16 1.326-1.326 3.071-1.26 1.735.056 3.37 1.691.1.1.287.31l-4.916 4.916q1.149 1.038 2.276 1.06 1.138.012 1.955-.806.619-.619.73-1.37.121-.762-.332-1.724Zm-5.491 1.868 3.69-3.69q-.906-.752-1.668-.83-1.193-.11-2.044.741-.763.762-.774 1.812 0 1.039.796 1.967Zm10.165-2.298-6.596-6.596 1.005-1.006.94.94q-.365-1.824 1.005-3.194.596-.596 1.314-.873.718-.298 1.315-.187.597.088 1.171.464.365.254 1.15 1.038l4.054 4.055-1.116 1.116-4.01-4.01q-.685-.686-1.16-.896-.465-.22-1.006-.077-.53.133-.972.575-.718.718-.785 1.69-.066.972 1.205 2.243l3.601 3.602-1.115 1.116Zm11.357-11.358-.828-.829q.353 1.613-.873 2.84-.784.784-1.878 1.016-1.105.22-2.243-.188-1.15-.42-2.166-1.436-.994-.995-1.458-2.121-.475-1.139-.254-2.221.232-1.094 1.05-1.912.596-.596 1.314-.806.718-.21 1.414-.11l-3.27-3.271 1.105-1.105 9.115 9.115-1.028 1.028Zm-6.839.254q1.271 1.27 2.431 1.37 1.16.077 1.89-.652.729-.73.64-1.834-.077-1.116-1.315-2.353-1.347-1.348-2.497-1.459-1.16-.121-1.922.64-.751.752-.652 1.868.11 1.105 1.425 2.42ZM448.841 666.351l-5.734-5.734-.983.983-.862-.861.983-.984-.707-.707q-.663-.663-.862-1.105-.287-.596-.143-1.27.132-.685.873-1.426.464-.464 1.149-.928l.817 1.15q-.42.287-.729.596-.508.508-.497.94 0 .42.596 1.016l.62.618 1.28-1.281.863.862-1.282 1.281 5.734 5.734-1.116 1.116Zm3.26-3.259-6.596-6.596 1.005-1.005.994.994q-.309-1.083-.21-1.624.1-.564.487-.95.574-.575 1.513-.785l.663 1.414q-.663.177-1.072.586-.364.365-.441.884-.067.508.198 1.016.41.785 1.116 1.492l3.459 3.458-1.116 1.116Zm.53-7.137q-1.834-1.834-1.69-3.746.121-1.58 1.336-2.795 1.37-1.37 3.127-1.337 1.757.033 3.326 1.602 1.27 1.27 1.613 2.387.353 1.104.033 2.242-.32 1.138-1.193 2.011-1.381 1.381-3.127 1.36-1.746-.045-3.425-1.724Zm1.149-1.15q1.27 1.271 2.453 1.349 1.182.077 2.022-.763.84-.84.762-2.022-.088-1.193-1.381-2.486-1.226-1.226-2.42-1.292-1.182-.078-2.01.75-.84.84-.763 2.023.077 1.182 1.337 2.442Zm9.645-3.038-6.596-6.596 1.006-1.005.939.939q-.365-1.823 1.005-3.193.597-.597 1.315-.873.718-.298 1.315-.188.597.089 1.171.464.365.254 1.15 1.039l4.054 4.055-1.116 1.116-4.01-4.011q-.686-.685-1.16-.895-.465-.22-1.006-.077-.53.132-.972.574-.719.718-.785 1.69-.066.973 1.204 2.243l3.602 3.602-1.116 1.116Zm8.508-10.518 1.16.829q-.376.574-.751.95-.608.607-1.138.762-.53.133-.973-.044-.453-.188-1.458-1.193l-3.8-3.801-.83.829-.861-.862.828-.829-1.635-1.635.431-1.779 2.31 2.31 1.126-1.128.862.862-1.127 1.127 3.867 3.867q.475.475.674.564.199.066.409.01.21-.055.464-.309.177-.176.442-.53Zm4.497-6.729 1.303-1.016q.73 1.282.553 2.585-.177 1.304-1.326 2.453-1.448 1.447-3.193 1.403-1.746-.044-3.359-1.657-1.657-1.657-1.724-3.425-.066-1.79 1.304-3.16 1.326-1.326 3.072-1.26 1.734.056 3.37 1.691.099.1.287.31l-4.917 4.916q1.15 1.038 2.276 1.06 1.138.012 1.956-.806.618-.619.729-1.37.121-.762-.332-1.724Zm-5.492 1.868 3.69-3.69q-.905-.752-1.668-.83-1.193-.11-2.044.741-.762.762-.773 1.812 0 1.039.795 1.967Zm10.165-2.298-6.596-6.596 1.005-1.006.94.94q-.365-1.824 1.005-3.194.597-.596 1.315-.873.718-.298 1.315-.187.596.088 1.17.464.365.254 1.15 1.038l4.055 4.055-1.116 1.116-4.01-4.01q-.686-.686-1.161-.896-.464-.22-1.005-.077-.53.133-.973.575-.718.718-.784 1.69-.066.972 1.204 2.243l3.602 3.602-1.116 1.116Zm11.358-11.358-.829-.829q.354 1.613-.873 2.84-.784.784-1.878 1.016-1.105.22-2.243-.188-1.149-.42-2.165-1.436-.995-.995-1.459-2.121-.475-1.139-.254-2.221.232-1.094 1.05-1.912.597-.596 1.315-.806.718-.21 1.414-.11l-3.27-3.271 1.104-1.105 9.115 9.115-1.027 1.028Zm-6.84.254q1.272 1.27 2.432 1.37 1.16.077 1.889-.652.73-.73.64-1.834-.077-1.116-1.314-2.354-1.348-1.347-2.497-1.458-1.16-.121-1.923.64-.75.752-.651 1.868.11 1.105 1.425 2.42ZM457.107 738.09l1.249-.94q.574.442 1.116.365.73-.11 1.447-.829.774-.773.873-1.513.122-.74-.287-1.437-.254-.43-1.348-1.524.121 1.602-.972 2.696-1.36 1.358-3.094 1.126-1.724-.243-3.094-1.613-.95-.95-1.403-2.088-.453-1.138-.232-2.22.21-1.094 1.083-1.967 1.171-1.171 2.873-.972l-.796-.796 1.039-1.038 5.7 5.7q1.547 1.547 1.868 2.509.331.95.01 2-.297 1.049-1.292 2.043-1.182 1.183-2.441 1.381-1.26.2-2.299-.883Zm-3.038-4.895q1.293 1.293 2.409 1.37 1.116.077 1.889-.696.773-.774.707-1.878-.077-1.116-1.348-2.387-1.215-1.215-2.364-1.281-1.15-.089-1.912.673-.74.74-.663 1.879.089 1.127 1.282 2.32Zm6.044-5.823q-1.834-1.834-1.69-3.745.12-1.58 1.336-2.795 1.37-1.37 3.127-1.337 1.757.033 3.325 1.602 1.271 1.27 1.614 2.386.353 1.105.033 2.243-.32 1.138-1.194 2.011-1.38 1.381-3.126 1.359-1.746-.044-3.425-1.724Zm1.149-1.149q1.27 1.27 2.452 1.348 1.183.078 2.022-.762.84-.84.763-2.022-.089-1.193-1.381-2.486-1.227-1.226-2.42-1.293-1.182-.077-2.01.752-.84.84-.763 2.022.077 1.182 1.337 2.441Zm11.48-4.872-9.105-4.088 1.182-1.182 5.359 2.53q.873.409 1.757.917-.376-.685-.84-1.68l-2.563-5.48 1.16-1.16 4.088 9.104-1.039 1.039Zm6.927-11.17 1.303-1.017q.73 1.282.553 2.586-.177 1.303-1.326 2.452-1.447 1.448-3.193 1.404-1.746-.045-3.359-1.658-1.657-1.657-1.723-3.425-.067-1.79 1.303-3.16 1.326-1.325 3.072-1.26 1.734.056 3.37 1.691.099.1.287.31l-4.917 4.916q1.15 1.039 2.276 1.061 1.138.011 1.956-.807.619-.618.73-1.37.12-.762-.332-1.723Zm-5.492 1.867 3.69-3.69q-.905-.751-1.668-.829-1.193-.11-2.044.74-.762.763-.773 1.812 0 1.039.795 1.967Zm10.154-2.287-6.596-6.596 1.005-1.005.995.994q-.31-1.083-.21-1.624.1-.564.486-.95.575-.575 1.514-.785l.663 1.414q-.663.177-1.072.586-.365.365-.442.884-.066.508.199 1.016.409.785 1.116 1.492l3.458 3.458-1.116 1.116Zm4.254-4.254-6.596-6.596 1.005-1.005.94.939q-.365-1.823 1.005-3.193.596-.597 1.314-.873.719-.298 1.315-.188.597.089 1.171.464.365.255 1.15 1.039l4.054 4.055-1.116 1.116-4.01-4.011q-.685-.685-1.16-.895-.464-.22-1.006-.077-.53.132-.972.574-.718.718-.784 1.69-.067.973 1.204 2.244l3.602 3.601-1.116 1.116Zm7.07-7.07-6.595-6.597 1.005-1.005.917.917q-.165-.785.044-1.591.221-.818.884-1.48.73-.73 1.503-.885.773-.176 1.514.188-.376-1.944.884-3.204.983-.983 2.055-.95 1.071.011 2.198 1.138l4.53 4.53-1.105 1.105-4.154-4.154q-.674-.674-1.083-.862-.409-.188-.873-.078t-.85.498q-.696.696-.696 1.624.01.917 1.027 1.933l3.834 3.834-1.116 1.116-4.287-4.287q-.751-.751-1.392-.84-.652-.099-1.27.52-.476.475-.62 1.127-.154.64.133 1.303.299.652 1.205 1.558l3.425 3.425-1.116 1.116Zm12.298-16.54 1.304-1.017q.729 1.282.552 2.585-.177 1.304-1.326 2.453-1.447 1.448-3.193 1.403-1.745-.044-3.359-1.657-1.657-1.657-1.723-3.425-.066-1.79 1.304-3.16 1.325-1.326 3.071-1.26 1.735.056 3.37 1.691.1.1.287.31l-4.916 4.916q1.149 1.039 2.276 1.06 1.138.012 1.955-.806.619-.619.73-1.37.12-.762-.332-1.723Zm-5.491 1.867 3.69-3.69q-.906-.752-1.668-.83-1.194-.11-2.044.741-.763.762-.774 1.812 0 1.039.796 1.967Zm10.164-2.298-6.596-6.596 1.006-1.006.939.94q-.365-1.824 1.005-3.194.597-.596 1.315-.872.718-.299 1.315-.188.597.088 1.171.464.365.254 1.15 1.038l4.054 4.055-1.116 1.116-4.01-4.01q-.686-.686-1.16-.896-.465-.22-1.006-.077-.53.133-.972.575-.719.718-.785 1.69-.066.972 1.204 2.243l3.602 3.602-1.116 1.116Zm8.508-10.519 1.16.83q-.376.574-.751.95-.608.607-1.138.762-.53.132-.973-.045-.453-.187-1.458-1.193l-3.8-3.8-.83.828-.861-.862.828-.828-1.635-1.636.431-1.778 2.31 2.309 1.126-1.127.862.862-1.127 1.127 3.867 3.867q.475.475.674.563.199.066.409.011.21-.055.464-.31.177-.176.442-.53Zm-1.072-2.397-1.116-1.116 3.436-3.436 1.116 1.116-3.436 3.436Zm7.679-2.199-5.734-5.734-.984.983-.861-.861.983-.984-.707-.707q-.663-.663-.862-1.105-.287-.596-.144-1.27.133-.685.873-1.426.464-.464 1.15-.928l.817 1.15q-.42.287-.73.596-.508.508-.497.94 0 .419.597 1.016l.619.618 1.281-1.281.862.862-1.281 1.281 5.734 5.734-1.116 1.116Zm3.26-3.26-6.597-6.595 1.006-1.005.994.994q-.31-1.083-.21-1.624.1-.564.486-.95.575-.575 1.514-.785l.663 1.414q-.663.177-1.072.586-.365.365-.442.884-.066.508.199 1.016.409.785 1.116 1.492l3.458 3.458-1.116 1.116Zm.53-7.136q-1.835-1.834-1.691-3.746.122-1.58 1.337-2.795 1.37-1.37 3.127-1.337 1.756.033 3.325 1.602 1.27 1.27 1.613 2.387.354 1.104.034 2.242-.32 1.138-1.194 2.011-1.38 1.381-3.126 1.36-1.746-.045-3.426-1.724Zm1.149-1.15q1.27 1.271 2.452 1.348 1.183.078 2.022-.762.84-.84.763-2.022-.089-1.193-1.382-2.486-1.226-1.226-2.42-1.292-1.181-.078-2.01.75-.84.84-.762 2.023.077 1.182 1.337 2.442Zm9.645-3.038-6.596-6.596 1.005-1.005.94.939q-.365-1.823 1.005-3.193.596-.597 1.315-.873.718-.298 1.314-.188.597.089 1.172.464.364.254 1.149 1.039l4.054 4.055-1.115 1.116-4.011-4.011q-.685-.685-1.16-.895-.464-.221-1.006-.077-.53.132-.972.574-.718.718-.784 1.69-.067.973 1.204 2.243l3.602 3.602-1.116 1.116Zm8.507-10.518 1.16.829q-.375.574-.75.95-.609.607-1.139.762-.53.133-.972-.044-.453-.188-1.459-1.193l-3.8-3.801-.829.829-.862-.862.829-.829-1.635-1.635.43-1.779 2.31 2.31 1.127-1.128.862.862-1.127 1.127 3.867 3.867q.475.475.673.564.2.066.41.01.21-.055.463-.309.177-.176.442-.53Zm4.497-6.729 1.304-1.016q.729 1.282.552 2.585-.177 1.304-1.326 2.453-1.447 1.447-3.193 1.403-1.745-.044-3.358-1.657-1.658-1.657-1.724-3.425-.066-1.79 1.304-3.16 1.326-1.326 3.071-1.26 1.735.056 3.37 1.69.1.1.287.31l-4.916 4.917q1.149 1.038 2.276 1.06 1.138.012 1.955-.806.619-.619.73-1.37.121-.762-.332-1.724Zm-5.491 1.868 3.69-3.69q-.906-.752-1.668-.83-1.193-.11-2.044.741-.763.762-.774 1.812 0 1.039.796 1.967Zm10.165-2.298-6.596-6.596 1.005-1.006.94.94q-.365-1.824 1.005-3.194.596-.596 1.314-.873.718-.298 1.315-.188.597.089 1.171.465.365.254 1.15 1.038l4.054 4.055-1.116 1.116-4.01-4.01q-.685-.686-1.16-.896-.465-.22-1.006-.077-.53.133-.972.574-.718.719-.785 1.69-.066.973 1.205 2.244l3.601 3.602-1.115 1.115Zm11.357-11.358-.828-.829q.353 1.613-.873 2.84-.784.784-1.878 1.016-1.105.22-2.243-.188-1.15-.42-2.166-1.436-.994-.995-1.458-2.122-.475-1.138-.254-2.22.232-1.094 1.05-1.912.596-.596 1.314-.806.718-.21 1.414-.11l-3.27-3.271 1.105-1.105 9.115 9.115-1.028 1.028Zm-6.839.254q1.271 1.27 2.431 1.37 1.16.077 1.89-.652.729-.73.64-1.834-.077-1.116-1.315-2.354-1.348-1.347-2.497-1.458-1.16-.121-1.922.64-.751.752-.652 1.868.11 1.105 1.425 2.42ZM573.815 683.532l-1.293-1.293 1.116-1.116 1.293 1.293-1.116 1.116Zm7.822 7.822-6.596-6.596 1.116-1.116 6.596 6.596-1.116 1.116Zm2.818-2.817-6.596-6.596 1.005-1.006.94.94q-.365-1.824 1.005-3.194.596-.596 1.315-.872.718-.299 1.314-.188.597.088 1.172.464.364.254 1.149 1.038l4.054 4.055-1.116 1.116-4.01-4.01q-.685-.686-1.16-.895-.464-.221-1.006-.078-.53.133-.972.575-.718.718-.784 1.69-.067.972 1.204 2.243l3.602 3.602-1.116 1.116Zm7.336-7.337-5.734-5.734-.983.984-.862-.862.983-.983-.707-.708q-.663-.663-.862-1.104-.287-.597-.143-1.271.132-.685.872-1.425.464-.464 1.15-.928l.817 1.149q-.42.287-.73.596-.507.509-.496.94 0 .42.596 1.016l.619.619 1.282-1.282.861.862-1.281 1.281 5.734 5.735-1.116 1.115Zm-.453-6.154q-1.834-1.834-1.69-3.745.121-1.58 1.337-2.795 1.37-1.37 3.126-1.337 1.757.033 3.326 1.602 1.27 1.27 1.613 2.386.354 1.105.033 2.243-.32 1.138-1.193 2.011-1.381 1.381-3.127 1.359-1.746-.044-3.425-1.724Zm1.15-1.149q1.27 1.271 2.452 1.348 1.182.078 2.022-.762.84-.84.762-2.022-.088-1.193-1.38-2.486-1.227-1.226-2.42-1.293-1.183-.077-2.011.752-.84.84-.763 2.022.078 1.182 1.337 2.441Zm6.474-5.347-1.116-1.116 3.436-3.436 1.116 1.116-3.436 3.436Zm7.678-2.199-5.734-5.734-.983.983-.862-.861.983-.984-.707-.707q-.663-.663-.862-1.105-.287-.596-.143-1.27.132-.685.873-1.426.464-.464 1.149-.928l.817 1.15q-.42.287-.729.596-.508.508-.497.94 0 .42.596 1.016l.62.618 1.28-1.281.863.862-1.282 1.281 5.734 5.734-1.116 1.116Zm3.26-3.26-6.596-6.595 1.005-1.005.994.994q-.309-1.083-.21-1.624.1-.564.487-.95.574-.575 1.513-.785l.663 1.414q-.663.177-1.072.586-.364.365-.441.884-.067.508.198 1.016.41.785 1.116 1.492l3.458 3.458-1.115 1.116Zm.53-7.136q-1.834-1.834-1.69-3.746.121-1.58 1.336-2.795 1.37-1.37 3.127-1.337 1.757.033 3.326 1.602 1.27 1.27 1.613 2.387.353 1.104.033 2.242-.32 1.138-1.193 2.011-1.381 1.381-3.127 1.36-1.746-.045-3.425-1.724Zm1.149-1.15q1.27 1.271 2.453 1.348 1.182.078 2.022-.762.84-.84.762-2.022-.088-1.193-1.381-2.486-1.226-1.226-2.42-1.292-1.182-.078-2.01.75-.84.84-.763 2.023.077 1.182 1.337 2.442Zm9.645-3.038-6.596-6.596 1.006-1.005.939.939q-.365-1.823 1.005-3.193.597-.597 1.315-.873.718-.298 1.315-.188.597.089 1.171.464.365.254 1.15 1.039l4.054 4.055-1.116 1.116-4.01-4.011q-.686-.685-1.16-.895-.465-.221-1.006-.077-.53.132-.972.574-.719.718-.785 1.69-.066.973 1.204 2.243l3.602 3.602-1.116 1.116Zm8.508-10.518 1.16.829q-.376.574-.751.95-.608.607-1.138.762-.53.133-.973-.044-.453-.188-1.458-1.193l-3.8-3.801-.83.829-.861-.862.828-.829-1.635-1.635.431-1.779 2.31 2.31 1.126-1.128.862.862-1.127 1.127 3.867 3.867q.475.475.674.564.199.066.409.01.21-.055.464-.309.177-.176.442-.53Zm4.497-6.729 1.303-1.016q.73 1.282.553 2.585-.177 1.304-1.326 2.453-1.448 1.447-3.193 1.403-1.746-.044-3.359-1.657-1.657-1.657-1.724-3.425-.066-1.79 1.304-3.16 1.326-1.326 3.072-1.26 1.734.056 3.37 1.69.099.1.287.31l-4.917 4.917q1.15 1.038 2.276 1.06 1.138.012 1.956-.806.618-.619.729-1.37.122-.762-.331-1.724Zm-5.492 1.868 3.69-3.69q-.905-.752-1.668-.83-1.193-.11-2.044.741-.762.762-.773 1.812 0 1.039.795 1.967Zm10.165-2.298-6.596-6.596 1.005-1.006.94.94q-.365-1.824 1.005-3.194.597-.596 1.315-.873.718-.298 1.315-.187.596.088 1.17.464.365.254 1.15 1.038l4.055 4.055-1.116 1.116-4.01-4.01q-.686-.686-1.161-.896-.464-.22-1.005-.077-.53.133-.973.575-.718.718-.784 1.69-.066.972 1.204 2.243l3.602 3.602-1.116 1.116Zm11.358-11.358-.829-.829q.354 1.613-.873 2.84-.784.784-1.878 1.016-1.105.22-2.243-.188-1.149-.42-2.165-1.436-.995-.995-1.459-2.121-.475-1.139-.254-2.221.232-1.094 1.05-1.912.597-.596 1.315-.806.718-.21 1.414-.11l-3.27-3.271 1.104-1.105 9.115 9.115-1.027 1.028Zm-6.84.254q1.271 1.27 2.432 1.37 1.16.077 1.889-.652.73-.73.64-1.834-.077-1.116-1.314-2.354-1.348-1.347-2.497-1.458-1.16-.121-1.923.64-.75.752-.651 1.868.11 1.105 1.425 2.42ZM656.261 695.63l-9.115-9.115 1.116-1.116 9.115 9.115-1.116 1.116Zm-4.96-10.684-1.293-1.293 1.116-1.116 1.292 1.293-1.116 1.116Zm7.822 7.822-6.596-6.596 1.116-1.116 6.596 6.596-1.116 1.116Zm4.706-9.546 1.238-.95q.961 1.315.873 2.707-.1 1.381-1.183 2.464-1.358 1.359-3.071 1.304-1.713-.078-3.359-1.724-1.072-1.072-1.513-2.22-.453-1.16-.133-2.277.32-1.138 1.171-1.988 1.083-1.083 2.31-1.205 1.226-.143 2.419.652l-.928 1.26q-.818-.509-1.547-.442-.73.044-1.293.607-.84.84-.762 1.978.077 1.138 1.392 2.453 1.326 1.326 2.442 1.425 1.105.089 1.933-.74.652-.652.696-1.492.034-.85-.685-1.812Zm6.873-6.275 1.303-1.017q.73 1.282.553 2.586-.177 1.303-1.326 2.452-1.447 1.448-3.193 1.404-1.746-.045-3.359-1.658-1.657-1.657-1.723-3.425-.067-1.79 1.303-3.16 1.326-1.325 3.072-1.26 1.734.056 3.37 1.691.099.1.287.31l-4.917 4.916q1.15 1.039 2.276 1.061 1.138.011 1.956-.807.619-.618.729-1.37.122-.762-.331-1.723Zm-5.492 1.867 3.69-3.69q-.905-.752-1.668-.829-1.193-.11-2.044.74-.762.763-.773 1.812 0 1.039.795 1.967Zm10.165-2.298-6.596-6.596 1.006-1.005.939.939q-.365-1.823 1.005-3.193.597-.597 1.315-.873.718-.298 1.315-.188.596.088 1.17.464.365.254 1.15 1.039l4.055 4.054-1.116 1.116-4.01-4.01q-.686-.685-1.161-.895-.464-.221-1.005-.078-.53.133-.973.575-.718.718-.784 1.69-.066.973 1.204 2.243l3.602 3.602-1.116 1.116Zm8.96-13.8 1.238-.95q.961 1.315.873 2.707-.1 1.381-1.182 2.464-1.36 1.359-3.072 1.304-1.712-.078-3.359-1.724-1.071-1.072-1.513-2.22-.453-1.16-.133-2.277.32-1.138 1.171-1.988 1.083-1.083 2.31-1.205 1.226-.143 2.419.652l-.928 1.26q-.818-.509-1.547-.442-.73.044-1.293.607-.84.84-.762 1.978.077 1.138 1.392 2.453 1.326 1.326 2.442 1.425 1.105.088 1.933-.74.652-.652.697-1.492.033-.85-.685-1.812Zm6.873-6.275 1.303-1.017q.73 1.282.553 2.586-.177 1.303-1.326 2.452-1.447 1.448-3.193 1.404-1.746-.045-3.359-1.658-1.657-1.657-1.723-3.425-.067-1.79 1.303-3.16 1.326-1.325 3.072-1.26 1.735.056 3.37 1.691.1.1.287.31l-4.917 4.916q1.15 1.039 2.276 1.06 1.138.012 1.956-.806.619-.618.73-1.37.12-.762-.332-1.723Zm-5.491 1.867 3.69-3.69q-.906-.752-1.669-.829-1.193-.11-2.044.74-.762.763-.773 1.812 0 1.039.796 1.967Zm6.993-4.607-1.116-1.116 3.436-3.436 1.116 1.116-3.436 3.436Zm7.679-2.199-5.734-5.734-.983.983-.862-.862.983-.983-.707-.707q-.663-.663-.862-1.105-.287-.597-.144-1.27.133-.685.873-1.426.464-.464 1.15-.928l.817 1.15q-.42.287-.73.596-.507.508-.496.939 0 .42.596 1.016l.619.62 1.282-1.282.861.861-1.281 1.282 5.734 5.734-1.116 1.116Zm-4.54-11.104-1.294-1.292 1.116-1.116 1.293 1.292-1.116 1.116Zm7.821 7.823-6.596-6.596 1.116-1.116 6.596 6.596-1.115 1.116Zm2.818-2.818-6.596-6.596 1.005-1.005.94.939q-.365-1.823 1.005-3.193.596-.597 1.315-.873.718-.298 1.314-.188.597.089 1.172.464.364.254 1.149 1.039l4.054 4.055-1.116 1.116-4.01-4.011q-.685-.685-1.16-.895-.464-.22-1.006-.077-.53.132-.972.574-.718.718-.784 1.69-.067.973 1.204 2.244l3.602 3.601-1.116 1.116Zm11.358-11.358-.829-.828q.354 1.613-.873 2.84-.784.784-1.878 1.016-1.105.22-2.243-.188-1.149-.42-2.165-1.437-.995-.994-1.459-2.12-.475-1.139-.254-2.222.232-1.093 1.05-1.911.596-.597 1.314-.807.719-.21 1.415-.11l-3.27-3.27 1.104-1.105 9.115 9.115-1.027 1.027Zm-6.84.254q1.271 1.271 2.431 1.37 1.16.078 1.89-.651.729-.73.64-1.834-.077-1.116-1.314-2.354-1.348-1.348-2.497-1.458-1.16-.122-1.923.64-.751.752-.652 1.868.11 1.105 1.426 2.42Zm12.021-9.678 1.304-1.016q.73 1.281.553 2.585-.177 1.303-1.326 2.453-1.447 1.447-3.193 1.403-1.746-.044-3.359-1.658-1.657-1.657-1.723-3.425-.067-1.79 1.303-3.16 1.326-1.325 3.072-1.259 1.734.055 3.37 1.69.099.1.287.31l-4.917 4.916q1.15 1.039 2.276 1.061 1.138.011 1.956-.806.619-.62.729-1.37.121-.763-.332-1.724Zm-5.49 1.867 3.69-3.69q-.906-.751-1.669-.829-1.193-.11-2.044.74-.762.763-.773 1.813 0 1.038.795 1.966Zm10.153-2.287-6.596-6.596 1.005-1.005.995.994q-.31-1.083-.21-1.624.1-.564.486-.95.574-.575 1.514-.785l.663 1.415q-.663.176-1.072.585-.365.365-.442.884-.066.508.199 1.016.409.785 1.116 1.492l3.458 3.458-1.116 1.116ZM718.621 708.236l.94-1.292q.75.574 1.524.508.784-.077 1.547-.84.773-.773.84-1.458.055-.696-.365-1.116-.376-.376-.928-.265-.376.088-1.525.773-1.536.917-2.232 1.171-.707.243-1.359.1-.652-.166-1.138-.652-.442-.442-.619-1.017-.165-.585-.066-1.17.066-.465.387-1.05.32-.586.828-1.094.785-.785 1.602-1.138.807-.365 1.47-.254.663.088 1.403.63l-.95 1.237q-.586-.431-1.226-.365-.641.067-1.293.718-.774.774-.85 1.36-.078.585.264.927.221.221.542.255.309.044.718-.122.232-.121 1.281-.707 1.492-.873 2.166-1.127.674-.276 1.326-.155.663.11 1.226.674.564.564.73 1.392.176.818-.166 1.713-.354.884-1.127 1.657-1.293 1.293-2.497 1.437-1.216.132-2.453-.73Zm11.181-11.49 1.304-1.017q.729 1.282.552 2.586-.177 1.303-1.326 2.452-1.447 1.448-3.193 1.404-1.745-.045-3.358-1.658-1.658-1.657-1.724-3.425-.066-1.79 1.304-3.16 1.326-1.325 3.071-1.26 1.735.056 3.37 1.691.1.1.287.31l-4.916 4.916q1.149 1.039 2.276 1.061 1.138.011 1.955-.807.62-.618.73-1.37.121-.762-.332-1.723Zm-5.491 1.867 3.69-3.69q-.906-.751-1.668-.829-1.193-.11-2.044.74-.762.763-.774 1.812 0 1.039.796 1.967Zm10.154-2.287-6.596-6.596 1.005-1.005.994.994q-.309-1.083-.21-1.624.1-.564.487-.95.574-.575 1.513-.785l.663 1.414q-.663.177-1.072.586-.364.365-.442.884-.066.508.2 1.016.408.785 1.115 1.492l3.458 3.458-1.115 1.116Zm6.087-6.088-9.104-4.088 1.183-1.182 5.358 2.53q.873.409 1.757.917-.376-.685-.84-1.68l-2.563-5.48 1.16-1.16 4.088 9.105-1.039 1.038Zm-3.281-12.363-1.293-1.293 1.116-1.116 1.293 1.293-1.116 1.116Zm7.822 7.822-6.596-6.596 1.116-1.116 6.596 6.596-1.116 1.116Zm4.707-9.546 1.237-.95q.962 1.315.873 2.707-.1 1.381-1.182 2.464-1.359 1.359-3.071 1.304-1.713-.078-3.36-1.724-1.07-1.072-1.513-2.22-.453-1.16-.132-2.277.32-1.138 1.17-1.988 1.083-1.083 2.31-1.205 1.226-.143 2.42.652l-.929 1.26q-.817-.509-1.546-.442-.73.044-1.293.607-.84.84-.762 1.978.077 1.138 1.392 2.453 1.326 1.326 2.441 1.425 1.105.088 1.934-.74.652-.652.696-1.492.033-.85-.685-1.812Zm6.872-6.275 1.304-1.017q.73 1.282.552 2.586-.177 1.303-1.326 2.452-1.447 1.448-3.193 1.404-1.745-.045-3.358-1.658-1.658-1.657-1.724-3.425-.066-1.79 1.304-3.16 1.326-1.325 3.071-1.26 1.735.056 3.37 1.691.1.1.287.31l-4.916 4.916q1.149 1.039 2.276 1.06 1.138.012 1.955-.806.62-.618.73-1.37.121-.762-.332-1.723Zm-5.491 1.867 3.69-3.69q-.906-.752-1.668-.829-1.193-.11-2.044.74-.762.763-.774 1.812 0 1.039.796 1.967Zm6.994-4.607-1.116-1.116 3.436-3.436 1.116 1.116-3.436 3.436Zm7.413-1.934-6.596-6.596 1.006-1.005.917.917q-.166-.785.044-1.591.22-.818.884-1.48.73-.73 1.502-.885.774-.176 1.514.188-.376-1.944.884-3.204.983-.983 2.055-.95 1.072.011 2.199 1.138l4.53 4.53-1.105 1.105-4.155-4.154q-.674-.674-1.082-.862-.41-.188-.873-.078-.464.11-.85.498-.697.696-.697 1.624.011.917 1.028 1.933l3.833 3.834-1.115 1.116-4.287-4.287q-.752-.751-1.392-.84-.652-.099-1.271.52-.475.475-.619 1.127-.154.64.133 1.303.298.652 1.204 1.558l3.425 3.425-1.116 1.116Zm13.391-15.026q-.088 1.15-.453 1.956-.353.795-1.005 1.447-1.094 1.094-2.21 1.15-1.116.032-1.945-.796-.475-.475-.651-1.094-.188-.63-.078-1.226.11-.597.442-1.172.243-.42.829-1.16 1.182-1.513 1.602-2.375-.221-.243-.287-.31-.674-.673-1.282-.64-.807.055-1.646.895-.796.795-.895 1.447-.1.652.43 1.536l-1.248.939q-.552-.862-.652-1.624-.088-.774.32-1.646.42-.884 1.282-1.746.84-.84 1.57-1.171.729-.332 1.28-.265.553.044 1.106.397.342.232 1.094.984l1.491 1.491q1.558 1.558 2.044 1.912.486.331 1.072.497l-1.171 1.17q-.53-.176-1.039-.596Zm-2.596-2.397q-.354.861-1.403 2.243-.586.784-.74 1.204-.166.409-.078.806.077.387.376.685.442.442 1.071.41.641-.045 1.293-.697.652-.652.873-1.425.22-.796-.033-1.514-.21-.563-.95-1.303l-.41-.41Zm6.176.453-6.596-6.596 1.005-1.006.94.94q-.365-1.824 1.005-3.194.596-.596 1.315-.872.718-.299 1.314-.188.597.088 1.172.464.364.254 1.149 1.038l4.054 4.055-1.115 1.116-4.011-4.01q-.685-.686-1.16-.896-.464-.22-1.006-.077-.53.133-.972.575-.718.718-.784 1.69-.067.972 1.204 2.243l3.602 3.602-1.116 1.116Zm11.39-11.391-.971-.973q.364 1.89-.962 3.215-.585.586-1.314.873-.74.277-1.315.188-.586-.1-1.182-.497-.398-.265-1.105-.972l-4.088-4.088 1.116-1.116 3.657 3.657q.873.873 1.248 1.116.553.331 1.15.243.585-.1 1.082-.597.508-.508.696-1.204.188-.696-.077-1.315-.265-.64-1.105-1.48l-3.536-3.536 1.116-1.116 6.596 6.596-1.005 1.006Zm6.243-7.878q-.088 1.15-.453 1.956-.353.795-1.005 1.447-1.094 1.094-2.21 1.149-1.116.033-1.944-.795-.475-.476-.652-1.094-.188-.63-.078-1.227.111-.596.442-1.17.243-.42.83-1.16 1.181-1.515 1.601-2.376-.22-.243-.287-.31-.674-.674-1.282-.64-.806.055-1.646.894-.796.796-.895 1.448-.1.652.43 1.536l-1.248.939q-.552-.862-.651-1.624-.089-.774.32-1.647.42-.884 1.282-1.745.84-.84 1.568-1.172.73-.331 1.282-.265.553.045 1.105.398.342.232 1.094.983l1.491 1.492q1.558 1.558 2.044 1.911.486.332 1.072.498l-1.171 1.17q-.53-.176-1.039-.596Zm-2.596-2.397q-.354.861-1.403 2.242-.586.785-.74 1.205-.166.408-.078.806.077.387.376.685.442.442 1.072.409.64-.044 1.292-.696.652-.652.873-1.425.221-.796-.033-1.514-.21-.563-.95-1.304l-.409-.409Zm6.154.475-9.115-9.115 1.116-1.116 9.115 9.115-1.116 1.116Zm-.32-5.16-1.116-1.116 3.436-3.436 1.116 1.116-3.436 3.436ZM804.592 701.165l.939-1.292q.751.574 1.524.508.785-.078 1.547-.84.774-.773.84-1.458.055-.696-.365-1.116-.375-.376-.928-.265-.375.088-1.525.773-1.535.917-2.231 1.171-.707.243-1.36.1-.651-.166-1.137-.652-.442-.442-.619-1.017-.166-.585-.066-1.17.066-.465.386-1.05.32-.586.829-1.094.784-.785 1.602-1.138.807-.365 1.47-.254.662.088 1.403.63l-.95 1.237q-.586-.431-1.227-.365-.64.066-1.293.718-.773.774-.85 1.36-.078.585.265.927.22.221.541.255.31.044.718-.122.232-.122 1.282-.707 1.492-.873 2.166-1.127.673-.276 1.325-.155.663.11 1.227.674.563.564.729 1.392.177.818-.166 1.713-.353.884-1.127 1.657-1.292 1.293-2.497 1.436-1.215.133-2.452-.729Zm8.783-4.85-6.596-6.596 1.006-1.006.917.918q-.166-.785.044-1.591.22-.818.884-1.481.729-.73 1.502-.884.774-.177 1.514.188-.376-1.945.884-3.204.983-.983 2.055-.95 1.072.01 2.198 1.138l4.53 4.53-1.104 1.105-4.155-4.155q-.674-.674-1.082-.862-.41-.187-.873-.077-.464.11-.851.497-.696.696-.696 1.624.011.917 1.027 1.934l3.834 3.834-1.116 1.116-4.286-4.287q-.752-.751-1.393-.84-.651-.1-1.27.52-.475.475-.619 1.126-.155.641.133 1.304.298.652 1.204 1.558l3.425 3.425-1.116 1.116Zm13.391-15.026q-.088 1.149-.453 1.956-.354.795-1.005 1.447-1.094 1.094-2.21 1.149-1.116.033-1.945-.796-.475-.475-.652-1.093-.187-.63-.077-1.227.11-.596.442-1.17.243-.42.829-1.161 1.182-1.514 1.602-2.375-.221-.244-.288-.31-.673-.674-1.281-.64-.807.055-1.646.894-.796.796-.895 1.448-.1.652.43 1.535l-1.248.94q-.552-.862-.652-1.625-.088-.773.32-1.646.42-.884 1.282-1.745.84-.84 1.57-1.172.728-.331 1.28-.265.553.044 1.106.398.342.232 1.093.983l1.492 1.492q1.558 1.558 2.044 1.911.486.332 1.072.497l-1.171 1.171q-.53-.176-1.039-.596Zm-2.596-2.398q-.354.862-1.404 2.243-.585.785-.74 1.204-.166.41-.077.807.077.387.375.685.442.442 1.072.409.641-.044 1.293-.696.652-.652.873-1.425.22-.796-.033-1.514-.21-.564-.95-1.304l-.41-.409Zm6.165.464-6.596-6.596 1.005-1.005.994.994q-.309-1.082-.21-1.624.1-.563.487-.95.574-.574 1.513-.784l.663 1.414q-.663.177-1.072.585-.364.365-.441.884-.067.509.198 1.017.41.784 1.116 1.491l3.459 3.459-1.116 1.115Zm5.69-7.7 1.16.828q-.376.575-.751.95-.608.608-1.139.763-.53.132-.972-.044-.453-.188-1.458-1.194l-3.8-3.8-.83.828-.861-.862.828-.828-1.635-1.635.431-1.78 2.31 2.31 1.126-1.127.862.862-1.127 1.127 3.867 3.867q.475.475.674.563.199.067.409.011.21-.055.464-.31.176-.176.442-.53Zm-1.072-2.398-1.116-1.116 3.436-3.436 1.116 1.116-3.436 3.436Zm10.905-7.06q-.088 1.15-.453 1.956-.354.795-1.005 1.447-1.094 1.094-2.21 1.149-1.116.033-1.945-.796-.475-.475-.652-1.093-.188-.63-.077-1.227.11-.596.442-1.17.243-.42.829-1.16 1.182-1.515 1.602-2.376-.221-.243-.288-.31-.674-.674-1.281-.64-.807.055-1.647.894-.795.796-.894 1.448-.1.652.43 1.536l-1.248.939q-.553-.862-.652-1.625-.088-.773.32-1.646.42-.884 1.282-1.745.84-.84 1.569-1.172.73-.331 1.282-.265.552.044 1.105.398.342.232 1.093.983l1.492 1.492q1.558 1.558 2.044 1.911.486.332 1.072.497l-1.172 1.172q-.53-.177-1.038-.597Zm-2.596-2.398q-.354.862-1.404 2.243-.585.785-.74 1.205-.166.408-.077.806.077.387.375.685.442.442 1.072.409.64-.044 1.293-.696.652-.652.873-1.425.22-.796-.034-1.514-.21-.563-.95-1.304l-.409-.409Zm6.176.453-6.596-6.595 1.005-1.006.94.94q-.365-1.824 1.005-3.194.596-.596 1.314-.873.718-.298 1.315-.188.597.089 1.171.465.365.254 1.15 1.038l4.054 4.055-1.116 1.116-4.01-4.01q-.685-.686-1.16-.896-.465-.22-1.006-.077-.53.133-.972.574-.718.719-.785 1.69-.066.973 1.205 2.244l3.601 3.602-1.115 1.115Zm4.651-8.584.94-1.293q.75.575 1.524.508.784-.077 1.547-.84.773-.773.84-1.458.055-.696-.365-1.116-.376-.375-.928-.265-.376.089-1.525.774-1.536.917-2.232 1.17-.707.244-1.359.1-.652-.166-1.138-.652-.442-.442-.619-1.016-.165-.586-.066-1.171.067-.464.387-1.05.32-.586.828-1.094.785-.784 1.603-1.138.806-.364 1.469-.254.663.088 1.403.63l-.95 1.237q-.586-.43-1.226-.364-.641.066-1.293.718-.774.773-.85 1.359-.078.585.264.928.221.22.542.254.31.044.718-.121.232-.122 1.282-.708 1.491-.872 2.165-1.127.674-.276 1.326-.154.663.11 1.226.674.564.563.73 1.392.176.817-.166 1.712-.354.884-1.127 1.658-1.293 1.292-2.497 1.436-1.216.133-2.453-.73Zm9.999-6.066-8.618-4.574 1.16-1.16 4.85 2.751 1.823 1.027q-.088-.132-1.038-1.701l-2.795-4.917 1.149-1.149 4.806 2.84 1.59.928-.894-1.646-2.674-4.95 1.083-1.083 4.53 8.662-1.16 1.16-5.005-2.905-1.381-.873 3.745 6.419-1.171 1.171Zm10.375-14.617 1.303-1.017q.73 1.282.553 2.586-.177 1.303-1.326 2.453-1.447 1.447-3.193 1.403-1.746-.044-3.359-1.658-1.657-1.657-1.724-3.425-.066-1.79 1.304-3.16 1.326-1.325 3.072-1.259 1.734.055 3.37 1.69.099.1.287.31l-4.917 4.916q1.15 1.039 2.276 1.061 1.138.011 1.956-.807.619-.618.729-1.37.121-.762-.332-1.723Zm-5.492 1.867 3.69-3.69q-.905-.751-1.668-.829-1.193-.11-2.044.74-.762.763-.773 1.812 0 1.039.795 1.967Zm10.154-2.287-6.596-6.596 1.005-1.005.995.994q-.31-1.083-.21-1.624.1-.564.486-.95.575-.575 1.514-.785l.663 1.414q-.663.177-1.072.586-.365.365-.442.884-.066.508.199 1.016.409.785 1.116 1.492l3.458 3.458-1.116 1.116Zm1.834-5.767.94-1.293q.75.575 1.524.508.784-.077 1.547-.84.773-.773.84-1.458.055-.696-.365-1.116-.376-.375-.928-.265-.376.089-1.525.774-1.536.917-2.232 1.17-.707.244-1.359.1-.652-.166-1.138-.652-.442-.442-.618-1.016-.166-.586-.067-1.171.067-.465.387-1.05.32-.586.829-1.094.784-.784 1.602-1.138.806-.364 1.47-.254.662.088 1.402.63l-.95 1.237q-.586-.43-1.226-.364-.641.066-1.293.718-.773.773-.85 1.359-.078.585.264.928.221.22.542.254.31.044.718-.122.232-.121 1.282-.707 1.491-.873 2.165-1.127.674-.276 1.326-.154.663.11 1.226.674.564.563.73 1.392.176.817-.166 1.712-.354.884-1.127 1.658-1.293 1.292-2.497 1.436-1.215.132-2.453-.73ZM920.36 668.23l-8.618-4.575 1.16-1.16 4.85 2.751 1.824 1.028q-.089-.133-1.039-1.702l-2.795-4.916 1.149-1.15 4.806 2.84 1.59.928-.894-1.646-2.674-4.95 1.083-1.082 4.53 8.662-1.16 1.16-5.005-2.906-1.381-.873 3.745 6.42-1.17 1.17Zm7.977-7.977-9.115-9.116 1.116-1.115 3.27 3.27q-.121-1.69 1.072-2.884.73-.729 1.558-.983.828-.254 1.58.033.751.265 1.712 1.226l4.188 4.188-1.127 1.127-4.188-4.188q-.84-.84-1.58-.85-.75-.022-1.414.64-.497.498-.674 1.205-.177.685.078 1.315.254.63 1.027 1.403l3.613 3.613-1.116 1.116Zm-.74-14.905-1.293-1.293 1.116-1.116 1.293 1.293-1.116 1.116Zm7.822 7.822-6.596-6.596 1.116-1.115 6.596 6.595-1.116 1.116Zm4.254-6.264 1.16.829q-.376.574-.751.95-.608.607-1.138.762-.53.133-.973-.044-.453-.188-1.458-1.193l-3.8-3.801-.83.828-.861-.861.828-.829-1.635-1.635.431-1.779 2.31 2.31 1.126-1.128.862.862-1.127 1.127 3.867 3.867q.475.475.674.563.199.067.409.012.21-.056.464-.31.177-.177.442-.53Zm4.497-6.729 1.303-1.016q.73 1.281.553 2.585-.177 1.304-1.326 2.453-1.447 1.447-3.193 1.403-1.746-.044-3.359-1.657-1.657-1.657-1.723-3.425-.067-1.79 1.303-3.16 1.326-1.326 3.072-1.26 1.734.056 3.37 1.69.099.1.287.31l-4.917 4.917q1.15 1.038 2.276 1.06 1.138.011 1.956-.806.619-.619.73-1.37.12-.762-.332-1.724Zm-5.491 1.867 3.69-3.69q-.906-.751-1.669-.828-1.193-.11-2.044.74-.762.762-.773 1.812 0 1.038.795 1.966Zm10.164-2.298-9.115-9.115 1.116-1.116 3.27 3.27q-.121-1.69 1.072-2.883.73-.73 1.558-.983.829-.254 1.58.033.751.265 1.712 1.226l4.188 4.188-1.127 1.127-4.188-4.188q-.84-.84-1.58-.85-.75-.023-1.414.64-.497.497-.674 1.205-.176.685.078 1.314.254.63 1.027 1.404l3.613 3.612-1.116 1.116Zm10.563-12.197q-.089 1.149-.453 1.955-.354.796-1.006 1.448-1.094 1.094-2.21 1.149-1.115.033-1.944-.796-.475-.475-.652-1.093-.188-.63-.077-1.227.11-.596.442-1.171.243-.42.828-1.16 1.183-1.514 1.602-2.376-.22-.243-.287-.309-.674-.674-1.282-.64-.806.055-1.646.894-.795.796-.895 1.448-.1.651.431 1.535l-1.248.94q-.553-.862-.652-1.625-.089-.773.32-1.646.42-.884 1.282-1.746.84-.84 1.569-1.17.729-.332 1.281-.266.553.044 1.105.398.343.232 1.094.983l1.492 1.492q1.557 1.558 2.044 1.911.486.332 1.071.497l-1.17 1.171q-.531-.176-1.04-.596Zm-2.597-2.398q-.353.862-1.403 2.243-.586.785-.74 1.204-.166.41-.078.807.078.387.376.685.442.442 1.072.409.64-.044 1.292-.696.652-.652.873-1.426.221-.795-.033-1.513-.21-.564-.95-1.304l-.409-.409Zm6.154.475-9.115-9.115 1.116-1.116 9.115 9.115-1.116 1.116Zm2.829-2.828-9.115-9.115 1.115-1.116 9.116 9.115-1.116 1.116Z"/>
  <path fill="#801650" d="M1052.711 52.515a1 1 0 0 1 1-1h10a1 1 0 0 1 1 1v10a1 1 0 0 1-1 1h-10a1 1 0 0 1-1-1Z"/>
  <path fill="#1a1a1a" d="m1079.992 60.593 1.547.203q-.25 1.61-1.297 2.531-1.046.906-2.578.906-1.922 0-3.093-1.25-1.157-1.265-1.157-3.593 0-1.516.5-2.641.5-1.14 1.516-1.703 1.031-.578 2.234-.578 1.532 0 2.485.781.968.766 1.25 2.172l-1.547.234q-.219-.937-.781-1.406-.547-.484-1.344-.484-1.188 0-1.938.859-.75.86-.75 2.719 0 1.875.719 2.734.719.844 1.89.844.923 0 1.548-.563.625-.578.796-1.765Zm2.313-1.25q0-2.594 1.453-3.844 1.203-1.031 2.922-1.031 1.937 0 3.156 1.265 1.219 1.266 1.219 3.485 0 1.797-.547 2.828-.531 1.031-1.562 1.61-1.032.577-2.266.577-1.953 0-3.172-1.25-1.203-1.265-1.203-3.64Zm1.625 0q0 1.797.781 2.687.781.89 1.969.89 1.187 0 1.969-.89.78-.906.78-2.734 0-1.734-.796-2.625-.781-.89-1.953-.89-1.188 0-1.969.89-.781.89-.781 2.672Zm8.969 4.672v-9.328h1.422v1.296q.437-.671 1.156-1.093.734-.422 1.672-.422 1.03 0 1.687.437.672.422.938 1.203 1.109-1.64 2.89-1.64 1.39 0 2.125.781.75.766.75 2.36v6.406h-1.562V58.14q0-.953-.156-1.375-.157-.422-.563-.672-.406-.25-.953-.25-.984 0-1.64.656-.641.656-.641 2.094v5.422h-1.578v-6.063q0-1.062-.391-1.578-.39-.531-1.266-.531-.672 0-1.234.36-.563.343-.828 1.015-.25.672-.25 1.953v4.844h-1.578Zm14 3.578V54.686h1.437v1.204q.516-.703 1.156-1.063.641-.36 1.547-.36 1.203 0 2.11.626.922.61 1.39 1.734.469 1.11.469 2.453 0 1.422-.516 2.578-.515 1.141-1.5 1.766-.984.61-2.062.61-.781 0-1.422-.329-.625-.343-1.031-.86v4.548h-1.578Zm1.437-8.188q0 1.797.719 2.657.734.859 1.766.859 1.062 0 1.812-.89.75-.891.75-2.766 0-1.782-.734-2.672-.735-.89-1.75-.89-1.016 0-1.797.952-.766.938-.766 2.75Zm7.969-.062q0-2.594 1.453-3.844 1.203-1.031 2.922-1.031 1.937 0 3.156 1.265 1.219 1.266 1.219 3.485 0 1.797-.547 2.828-.531 1.031-1.562 1.61-1.032.577-2.266.577-1.953 0-3.172-1.25-1.203-1.265-1.203-3.64Zm1.625 0q0 1.797.781 2.687.781.89 1.969.89 1.187 0 1.969-.89.78-.906.78-2.734 0-1.734-.796-2.625-.781-.89-1.953-.89-1.188 0-1.969.89-.781.89-.781 2.672Zm8.969 4.672v-9.328h1.422v1.328q1.03-1.547 2.968-1.547.844 0 1.547.312.719.297 1.063.797.359.485.5 1.156.078.438.078 1.547v5.735h-1.578v-5.672q0-.969-.188-1.453-.172-.485-.656-.766-.469-.281-1.094-.281-1.015 0-1.75.64-.734.641-.734 2.438v5.094h-1.578Zm16.39-3 1.64.203q-.39 1.422-1.437 2.218-1.046.797-2.671.797-2.047 0-3.25-1.265-1.204-1.266-1.204-3.547 0-2.344 1.204-3.64 1.218-1.313 3.156-1.313 1.875 0 3.062 1.281 1.188 1.266 1.188 3.578 0 .14-.016.422h-6.953q.078 1.547.86 2.36.796.812 1.953.812.875 0 1.484-.453.625-.453.984-1.453Zm-5.203-2.563h5.219q-.11-1.172-.594-1.765-.765-.922-1.969-.922-1.078 0-1.828.734-.734.734-.828 1.953Zm8.813 5.563v-9.328h1.422v1.328q1.03-1.547 2.968-1.547.844 0 1.547.312.719.297 1.063.797.359.485.5 1.156.078.438.078 1.547v5.735h-1.578v-5.672q0-.969-.188-1.453-.172-.485-.656-.766-.469-.281-1.094-.281-1.015 0-1.75.64-.734.641-.734 2.438v5.094h-1.578Zm13.453-1.422.234 1.406q-.672.14-1.203.14-.86 0-1.344-.265-.468-.281-.656-.719-.187-.453-.187-1.875v-5.375h-1.172v-1.218h1.172v-2.313l1.562-.953v3.266h1.594v1.218h-1.594v5.469q0 .672.078.875.094.188.281.297.188.11.547.11.25 0 .688-.063ZM1073.258 83.233l1.578-.25q.125.938.719 1.438.61.5 1.687.5 1.094 0 1.625-.438.532-.453.532-1.047 0-.53-.47-.843-.327-.203-1.624-.532-1.734-.437-2.406-.75-.672-.328-1.032-.89-.343-.578-.343-1.266 0-.625.28-1.156.298-.531.782-.875.375-.281 1.016-.469.64-.187 1.36-.187 1.109 0 1.937.328.828.312 1.218.86.407.53.547 1.437l-1.547.203q-.109-.719-.609-1.125t-1.422-.406q-1.094 0-1.562.359-.47.36-.47.844 0 .312.204.562.188.25.594.422.25.078 1.406.406 1.672.438 2.328.735.672.281 1.047.828.39.547.39 1.344 0 .796-.468 1.5-.453.703-1.328 1.093-.875.375-1.969.375-1.828 0-2.781-.75-.953-.765-1.219-2.25Zm9.656-8.28v-1.829h1.578v1.828h-1.578Zm0 11.062v-9.329h1.578v9.329h-1.578Zm3.157 0v-1.282l5.937-6.828q-1.016.063-1.781.063h-3.813v-1.282h7.625v1.047l-5.047 5.922-.984 1.078q1.063-.078 2-.078h4.313v1.36h-8.25Zm15.218-3 1.64.203q-.39 1.422-1.437 2.218-1.046.797-2.671.797-2.047 0-3.25-1.265-1.204-1.266-1.204-3.547 0-2.344 1.204-3.64 1.218-1.313 3.156-1.313 1.875 0 3.062 1.281 1.188 1.266 1.188 3.578 0 .14-.016.422h-6.953q.078 1.547.86 2.36.796.812 1.953.812.875 0 1.484-.453.625-.453.984-1.453Zm-5.203-2.563h5.219q-.11-1.172-.594-1.766-.765-.921-1.969-.921-1.078 0-1.828.734-.734.734-.828 1.953Z"/>
  <path fill="#28a197" d="M1052.711 105.515a1 1 0 0 1 1-1h10a1 1 0 0 1 1 1v10a1 1 0 0 1-1 1h-10a1 1 0 0 1-1-1Z"/>
  <path fill="#1a1a1a" d="M1079.992 115.858q-.875.75-1.703 1.063-.812.312-1.734.312-1.547 0-2.375-.75-.813-.765-.813-1.937 0-.672.313-1.235.312-.578.812-.921.5-.344 1.141-.516.469-.125 1.406-.234 1.907-.235 2.813-.547.015-.328.015-.422 0-.953-.453-1.36-.61-.53-1.797-.53-1.125 0-1.656.39-.531.39-.781 1.39l-1.547-.218q.219-1 .688-1.61.484-.609 1.39-.937.922-.328 2.14-.328 1.188 0 1.938.281t1.094.719q.36.422.5 1.062.078.406.078 1.469v2.11q0 2.203.094 2.796.11.578.406 1.11h-1.656q-.25-.5-.313-1.157Zm-.14-3.53q-.86.358-2.578.593-.97.14-1.375.328-.407.172-.625.516-.22.328-.22.75 0 .625.47 1.046.484.422 1.406.422.922 0 1.625-.39.719-.407 1.047-1.094.25-.547.25-1.594v-.578Zm4.047 8.265v-12.907h1.437v1.204q.516-.704 1.156-1.063.641-.36 1.547-.36 1.203 0 2.11.626.922.61 1.39 1.734.469 1.11.469 2.453 0 1.422-.516 2.578-.515 1.141-1.5 1.766-.984.61-2.062.61-.781 0-1.422-.329-.625-.344-1.031-.86v4.548h-1.578Zm1.437-8.188q0 1.797.719 2.656.734.86 1.766.86 1.062 0 1.812-.89.75-.891.75-2.766 0-1.782-.734-2.672-.735-.89-1.75-.89-1.016 0-1.797.952-.766.938-.766 2.75Zm8.563 8.188v-12.907h1.437v1.204q.516-.704 1.156-1.063.641-.36 1.547-.36 1.203 0 2.11.626.922.61 1.39 1.734.469 1.11.469 2.453 0 1.422-.516 2.578-.515 1.141-1.5 1.766-.984.61-2.062.61-.781 0-1.422-.329-.625-.344-1.031-.86v4.548h-1.578Zm1.437-8.188q0 1.797.719 2.656.734.86 1.766.86 1.062 0 1.812-.89.75-.891.75-2.766 0-1.782-.734-2.672-.735-.89-1.75-.89-1.016 0-1.797.952-.766.938-.766 2.75Zm12.922 1.828 1.578-.25q.125.938.719 1.438.61.5 1.687.5 1.094 0 1.625-.438.532-.453.532-1.047 0-.53-.47-.843-.327-.203-1.624-.532-1.734-.437-2.406-.75-.672-.328-1.032-.89-.343-.578-.343-1.266 0-.625.28-1.156.298-.531.782-.875.375-.281 1.016-.469.64-.187 1.36-.187 1.109 0 1.937.328.828.312 1.218.86.407.53.547 1.437l-1.547.203q-.109-.719-.609-1.125t-1.422-.406q-1.094 0-1.562.359-.47.36-.47.844 0 .312.204.562.188.25.594.422.25.078 1.406.406 1.672.438 2.328.735.672.281 1.047.828.39.547.39 1.344 0 .796-.468 1.5-.453.703-1.328 1.093-.875.375-1.969.375-1.828 0-2.781-.75-.953-.765-1.219-2.25Zm9.656-8.28v-1.829h1.578v1.828h-1.578Zm0 11.062v-9.329h1.578v9.329h-1.578Zm3.157 0v-1.282l5.937-6.828q-1.016.063-1.781.063h-3.813v-1.282h7.625v1.047l-5.047 5.922-.984 1.078q1.063-.078 2-.078h4.313v1.36h-8.25Zm15.218-3 1.64.203q-.39 1.422-1.437 2.218-1.046.797-2.671.797-2.047 0-3.25-1.265-1.204-1.266-1.204-3.547 0-2.344 1.204-3.64 1.218-1.313 3.156-1.313 1.875 0 3.062 1.281 1.188 1.266 1.188 3.578 0 .14-.016.422h-6.953q.078 1.547.86 2.36.796.812 1.953.812.875 0 1.484-.453.625-.453.984-1.453Zm-5.203-2.563h5.219q-.11-1.172-.594-1.766-.765-.921-1.969-.921-1.078 0-1.828.734-.734.734-.828 1.953Z"/>
  <path fill="#12436d" d="M1052.711 136.515a1 1 0 0 1 1-1h10a1 1 0 0 1 1 1v10a1 1 0 0 1-1 1h-10a1 1 0 0 1-1-1Z"/>
  <path fill="#1a1a1a" d="m1073.258 145.233 1.578-.25q.125.938.719 1.438.61.5 1.687.5 1.094 0 1.625-.438.532-.453.532-1.047 0-.53-.47-.843-.327-.203-1.624-.531-1.734-.438-2.406-.75-.672-.329-1.032-.891-.343-.578-.343-1.266 0-.625.28-1.156.298-.531.782-.875.375-.281 1.016-.469.64-.187 1.36-.187 1.109 0 1.937.328.828.312 1.218.86.407.53.547 1.437l-1.547.203q-.109-.719-.609-1.125t-1.422-.406q-1.094 0-1.562.359-.47.36-.47.844 0 .312.204.562.188.25.594.422.25.078 1.406.406 1.672.438 2.328.735.672.281 1.047.828.39.547.39 1.344t-.468 1.5q-.453.703-1.328 1.093-.875.375-1.969.375-1.828 0-2.781-.75-.953-.765-1.219-2.25Zm13.094 1.36.234 1.406q-.672.14-1.203.14-.86 0-1.344-.265-.468-.281-.656-.719-.187-.453-.187-1.875v-5.375h-1.172v-1.219h1.172v-2.312l1.562-.953v3.266h1.594v1.218h-1.594v5.469q0 .672.078.875.094.188.281.297.188.11.547.11.25 0 .688-.063Zm7.64.265q-.875.75-1.703 1.063-.812.312-1.734.312-1.547 0-2.375-.75-.813-.765-.813-1.937 0-.672.313-1.234.312-.579.812-.922.5-.344 1.141-.516.469-.125 1.406-.234 1.907-.235 2.813-.547.015-.328.015-.422 0-.953-.453-1.36-.61-.53-1.797-.53-1.125 0-1.656.39-.531.39-.781 1.39l-1.547-.218q.219-1 .688-1.61.484-.609 1.39-.937.922-.328 2.14-.328 1.188 0 1.938.281t1.094.719q.36.422.5 1.062.078.406.078 1.469v2.11q0 2.202.094 2.796.11.578.406 1.11h-1.656q-.25-.5-.313-1.157Zm-.14-3.53q-.86.358-2.578.593-.97.14-1.375.328-.407.172-.625.516-.22.328-.22.75 0 .625.47 1.047.484.421 1.406.421.922 0 1.625-.39.719-.406 1.047-1.094.25-.547.25-1.594v-.578Zm7.5 3.265.234 1.406q-.672.14-1.203.14-.86 0-1.344-.265-.468-.281-.656-.719-.187-.453-.187-1.875v-5.375h-1.172v-1.219h1.172v-2.312l1.562-.953v3.266h1.594v1.218h-1.594v5.469q0 .672.078.875.094.188.281.297.188.11.547.11.25 0 .688-.063Zm1.562-9.64v-1.829h1.578v1.828h-1.578Zm0 11.062v-9.328h1.578v9.328h-1.578Zm10.078-3.422 1.547.203q-.25 1.61-1.297 2.531-1.046.906-2.578.906-1.922 0-3.093-1.25-1.157-1.265-1.157-3.593 0-1.516.5-2.641.5-1.14 1.516-1.703 1.031-.578 2.234-.578 1.532 0 2.485.781.968.766 1.25 2.172l-1.547.234q-.219-.937-.781-1.406-.547-.484-1.344-.484-1.188 0-1.938.859-.75.86-.75 2.719 0 1.875.719 2.734.719.844 1.89.844.923 0 1.548-.563.625-.578.796-1.765Zm7.266.64 1.578-.25q.125.938.719 1.438.61.5 1.687.5 1.094 0 1.625-.438.532-.453.532-1.047 0-.53-.47-.843-.327-.203-1.624-.531-1.734-.438-2.406-.75-.672-.329-1.032-.891-.343-.578-.343-1.266 0-.625.28-1.156.298-.531.782-.875.375-.281 1.016-.469.64-.187 1.36-.187 1.109 0 1.937.328.828.312 1.218.86.407.53.547 1.437l-1.547.203q-.109-.719-.609-1.125t-1.422-.406q-1.094 0-1.562.359-.47.36-.47.844 0 .312.204.562.188.25.594.422.25.078 1.406.406 1.672.438 2.328.735.672.281 1.047.828.39.547.39 1.344t-.468 1.5q-.453.703-1.328 1.093-.875.375-1.969.375-1.828 0-2.781-.75-.953-.765-1.219-2.25Zm9.656-8.28v-1.829h1.578v1.828h-1.578Zm0 11.062v-9.328h1.578v9.328h-1.578Zm3.157 0v-1.282l5.937-6.828q-1.016.063-1.781.063h-3.813v-1.281h7.625v1.046l-5.047 5.922-.984 1.078q1.063-.078 2-.078h4.313v1.36h-8.25Zm15.218-3 1.64.203q-.39 1.422-1.437 2.219-1.046.796-2.671.796-2.047 0-3.25-1.265-1.204-1.266-1.204-3.547 0-2.344 1.204-3.64 1.218-1.313 3.156-1.313 1.875 0 3.062 1.281 1.188 1.266 1.188 3.578 0 .14-.016.422h-6.953q.078 1.547.86 2.36.796.812 1.953.812.875 0 1.484-.453.625-.453.984-1.453Zm-5.203-2.563h5.219q-.11-1.172-.594-1.766-.765-.921-1.969-.921-1.078 0-1.828.734-.734.734-.828 1.953Z"/>
</svg>
